<?xml version="1.0" standalone="no"?>
<!DOCTYPE svg PUBLIC "-//W3C//DTD SVG 1.1//EN" "http://www.w3.org/Graphics/SVG/1.1/DTD/svg11.dtd" >
<svg xmlns="http://www.w3.org/2000/svg" xmlns:xlink="http://www.w3.org/1999/xlink" version="1.1">
<metadata>
Created by FontForge 20190801 at Wed Jan 22 02:12:02 2014
 By Jimmy Wärting
Copyright (c) 2013 by Rene' Bieder. All rights reserved.
</metadata>
<defs>
<font id="Canaro-RegularItalic" horiz-adv-x="600" >
  <font-face 
    font-family="Canaro"
    font-weight="400"
    font-style="italic"
    font-stretch="normal"
    units-per-em="1000"
    panose-1="0 0 5 0 0 0 0 0 0 0"
    ascent="800"
    descent="-200"
    x-height="467"
    cap-height="680"
    bbox="-119 -272 1421 929"
    underline-thickness="50"
    underline-position="-100"
    slope="-10"
    stemh="77"
    stemv="92"
    unicode-range="U+0020-FB02"
  />
<missing-glyph horiz-adv-x="870" 
d="M770 680v-680h-670v680h670zM700 610h-481l481 -481v481zM170 70h477l-477 477v-477z" />
    <glyph glyph-name="f_f" unicode="ff" horiz-adv-x="740" 
d="M746 752c26 0 51 -4 76 -11l-29 -78c-18 4 -38 6 -59 6c-54 0 -97 -37 -110 -107l-16 -95h167l-15 -82h-167l-67 -385h-92l67 385h-272l-67 -385h-92l68 385h-111l15 82h111l11 67c25 142 128 218 266 218c70 0 115 -20 168 -58c38 37 89 58 148 58zM421 669
c-95 0 -149 -47 -165 -138l-12 -64h272l16 98c4 20 10 40 19 56c-41 33 -81 48 -130 48z" />
    <glyph glyph-name="f_f_i" unicode="ffi" horiz-adv-x="979" 
d="M870 0h-92l68 385h-253l-68 -385h-92l68 385h-272l-67 -385h-92l68 385h-111l15 82h111l11 67c25 142 128 218 266 218c74 0 120 -22 177 -65c46 43 107 65 183 65c72 0 115 -21 172 -60l-55 -66c-42 30 -82 43 -127 43c-90 0 -145 -47 -161 -138l-11 -64h344zM516 467
l11 67c6 32 15 60 29 83c-43 35 -85 52 -135 52c-95 0 -149 -47 -165 -138l-12 -64h272z" />
    <glyph glyph-name="f_f_l" unicode="ffl" horiz-adv-x="992" 
d="M864 0h-92l114 645c-34 16 -62 24 -108 24c-92 0 -143 -49 -158 -134l-12 -68h177l-14 -82h-178l-67 -385h-92l68 385h-272l-68 -385h-92l68 385h-110l14 82h111l12 67c25 142 128 218 266 218c72 0 118 -21 173 -62c43 40 102 62 186 62c49 0 87 -13 124 -31l76 -4z
M516 467l13 71c5 30 14 57 26 80c-42 35 -84 51 -134 51c-94 0 -149 -47 -165 -138l-12 -64h272z" />
    <glyph glyph-name="fi" unicode="fi" horiz-adv-x="615" 
d="M506 0h-91l67 385h-253l-67 -385h-92l68 385h-111l15 82h111l11 67c25 142 128 218 263 218c72 0 115 -21 172 -60l-55 -66c-43 30 -82 43 -127 43c-91 0 -145 -47 -161 -138l-12 -64h345z" />
    <glyph glyph-name="fl" unicode="fl" horiz-adv-x="640" 
d="M420 0l113 640c-39 19 -68 29 -118 29c-92 0 -143 -49 -159 -134l-12 -68h177l-13 -82h-178l-68 -385h-92l69 385h-111l14 82h111l12 71c25 137 113 214 261 214c51 0 89 -13 126 -32l86 -5l-126 -715h-92z" />
    <glyph glyph-name=".notdef" horiz-adv-x="870" 
d="M770 680v-680h-670v680h670zM700 610h-481l481 -481v481zM170 70h477l-477 477v-477z" />
    <glyph glyph-name="A" unicode="A" horiz-adv-x="757" 
d="M185 153l-94 -153h-109l430 684h91l188 -684h-106l-40 153h-360zM438 561l-201 -323h285z" />
    <glyph glyph-name="Aacute" unicode="&#xc1;" horiz-adv-x="757" 
d="M671 894l-139 -148h-98l113 148h124zM186 153l-94 -153h-110l431 684h90l188 -684h-105l-40 153h-360zM437 561l-200 -323h285z" />
    <glyph glyph-name="Abreve" unicode="&#x102;" horiz-adv-x="757" 
d="M569 886h73c-16 -85 -81 -138 -167 -138c-85 0 -132 53 -116 138h71c-8 -47 16 -71 58 -71c41 0 73 24 81 71zM186 153l-94 -153h-110l431 684h90l188 -684h-105l-40 153h-360zM437 561l-200 -323h285z" />
    <glyph glyph-name="Acaron" unicode="&#x1cd;" horiz-adv-x="757" 
d="M516 738h-83l-96 154h90l56 -91l90 91h93zM186 153l-94 -153h-110l431 684h90l188 -684h-105l-40 153h-360zM437 561l-200 -323h285z" />
    <glyph glyph-name="Acircumflex" unicode="&#xc2;" horiz-adv-x="757" 
d="M493 835l-90 -89h-93l150 148h82l98 -148h-90zM186 153l-94 -153h-110l431 684h90l188 -684h-105l-40 153h-360zM437 561l-200 -323h285z" />
    <glyph glyph-name="Adieresis" unicode="&#xc4;" horiz-adv-x="757" 
d="M377 760c-33 0 -60 25 -60 58s27 58 60 58c34 0 61 -25 61 -58s-27 -58 -61 -58zM589 760c-33 0 -60 25 -60 58s27 58 60 58c34 0 60 -25 60 -58s-26 -58 -60 -58zM186 153l-94 -153h-110l431 684h90l188 -684h-105l-40 153h-360zM437 561l-200 -323h285z" />
    <glyph glyph-name="Agrave" unicode="&#xc0;" horiz-adv-x="757" 
d="M515 746h-83l-93 148h121zM186 153l-94 -153h-110l431 684h90l188 -684h-105l-40 153h-360zM437 561l-200 -323h285z" />
    <glyph glyph-name="Amacron" unicode="&#x100;" horiz-adv-x="757" 
d="M644 850l-12 -73h-300l12 73h300zM186 153l-94 -153h-110l431 684h90l188 -684h-105l-40 153h-360zM437 561l-200 -323h285z" />
    <glyph glyph-name="Aogonek" unicode="&#x104;" horiz-adv-x="757" 
d="M628 -122c16 0 27 2 41 5l6 -69c-15 -5 -40 -9 -73 -9c-68 0 -112 37 -109 91c4 50 38 87 91 113l-38 144h-360l-94 -153h-110l431 684h90l188 -684h-51c-41 -19 -66 -43 -69 -76c-3 -26 13 -46 57 -46zM522 238l-85 323l-200 -323h285z" />
    <glyph glyph-name="Aring" unicode="&#xc5;" horiz-adv-x="757" 
d="M486 929c57 0 96 -37 96 -92c0 -62 -48 -107 -114 -107c-58 0 -96 38 -96 93c0 62 49 106 114 106zM473 780c31 0 55 22 55 54c0 28 -19 46 -47 46c-31 0 -55 -23 -55 -54c0 -29 20 -46 47 -46zM186 153l-94 -153h-110l431 684h90l188 -684h-105l-40 153h-360zM437 561
l-200 -323h285z" />
    <glyph glyph-name="Atilde" unicode="&#xc3;" horiz-adv-x="757" 
d="M588 860h75c-19 -109 -119 -131 -168 -98l-47 34c-27 19 -56 2 -61 -30h-75c19 109 119 130 168 98l47 -34c28 -20 55 -2 61 30zM186 153l-94 -153h-110l431 684h90l188 -684h-105l-40 153h-360zM437 561l-200 -323h285z" />
    <glyph glyph-name="AE" unicode="&#xc6;" horiz-adv-x="1094" 
d="M675 384h346l-16 -88h-345l-37 -208h387l-15 -88h-483l26 150h-296l-136 -150h-119l618 680h510l-15 -88h-388zM612 563l-294 -325h236z" />
    <glyph glyph-name="B" unicode="B" horiz-adv-x="676" 
d="M478 349c88 -17 137 -69 137 -140c0 -136 -115 -217 -293 -217c-80 0 -199 4 -271 8l120 680c67 2 178 6 263 6c131 0 205 -53 205 -149c0 -93 -62 -163 -161 -188zM409 601c-48 0 -105 -1 -157 -2l-39 -216h163c101 0 169 50 169 130c0 61 -48 88 -136 88zM326 76
c122 0 196 45 196 133c0 59 -52 92 -140 92h-183l-39 -220c60 -3 118 -5 166 -5z" />
    <glyph glyph-name="C" unicode="C" horiz-adv-x="729" 
d="M747 659l-33 -86c-76 20 -139 30 -197 30c-203 0 -340 -125 -340 -305c0 -132 91 -216 236 -216c54 0 137 12 228 34l4 -88c-89 -27 -179 -43 -253 -43c-194 0 -317 116 -317 299c0 244 178 411 445 411c80 0 157 -15 227 -36z" />
    <glyph glyph-name="Cacute" unicode="&#x106;" horiz-adv-x="729" 
d="M716 894l-139 -148h-98l113 148h124zM747 659l-33 -86c-76 20 -139 30 -197 30c-203 0 -340 -125 -340 -305c0 -132 91 -216 236 -216c54 0 137 12 228 34l4 -88c-89 -27 -179 -43 -252 -43c-195 0 -318 116 -318 299c0 244 178 411 445 411c80 0 157 -15 227 -36z" />
    <glyph glyph-name="Ccaron" unicode="&#x10c;" horiz-adv-x="729" 
d="M562 738h-83l-96 154h90l56 -91l90 91h93zM747 659l-33 -86c-76 20 -139 30 -197 30c-203 0 -340 -125 -340 -305c0 -132 91 -216 236 -216c54 0 137 12 228 34l4 -88c-89 -27 -179 -43 -252 -43c-195 0 -318 116 -318 299c0 244 178 411 445 411c80 0 157 -15 227 -36z
" />
    <glyph glyph-name="Ccedilla" unicode="&#xc7;" horiz-adv-x="729" 
d="M747 659l-33 -86c-76 20 -139 30 -197 30c-203 0 -340 -125 -340 -305c0 -132 91 -216 236 -216c54 0 137 12 228 34l4 -88c-89 -27 -179 -43 -252 -43c-195 0 -318 116 -318 299c0 244 178 411 445 411c80 0 157 -15 227 -36zM319 -206h-77l75 156h89z" />
    <glyph glyph-name="Cdotaccent" unicode="&#x10a;" horiz-adv-x="729" 
d="M527 767c-33 0 -60 25 -60 58s27 59 60 59c34 0 61 -26 61 -59s-27 -58 -61 -58zM747 659l-33 -86c-76 20 -139 30 -197 30c-203 0 -340 -125 -340 -305c0 -132 91 -216 236 -216c54 0 137 12 228 34l4 -88c-89 -27 -179 -43 -252 -43c-195 0 -318 116 -318 299
c0 244 178 411 445 411c80 0 157 -15 227 -36z" />
    <glyph glyph-name="D" unicode="D" horiz-adv-x="743" 
d="M406 688c187 0 305 -111 305 -286c0 -242 -189 -410 -414 -410c-87 0 -192 5 -246 8l120 680c55 3 155 8 235 8zM313 81c159 0 296 125 296 309c0 129 -84 210 -218 210c-44 0 -94 -2 -140 -4l-90 -512c49 -2 104 -3 152 -3z" />
    <glyph glyph-name="Eth" unicode="&#xd0;" horiz-adv-x="744" 
d="M406 688c187 0 305 -111 305 -286c0 -242 -189 -410 -414 -410c-87 0 -192 5 -246 8l51 291h-72l16 88h72l53 301c55 3 155 8 235 8zM313 81c159 0 296 125 296 309c0 129 -84 210 -218 210c-44 0 -94 -2 -140 -4l-38 -217h152l-15 -88h-153l-36 -207
c49 -2 104 -3 152 -3z" />
    <glyph glyph-name="Dcaron" unicode="&#x10e;" horiz-adv-x="743" 
d="M471 738h-83l-96 154h90l56 -91l90 91h93zM406 688c187 0 305 -111 305 -286c0 -242 -189 -410 -414 -410c-87 0 -192 5 -246 8l120 680c55 3 155 8 235 8zM313 81c159 0 296 125 296 309c0 129 -84 210 -218 210c-44 0 -94 -2 -140 -4l-90 -512c49 -2 104 -3 152 -3z
" />
    <glyph glyph-name="Dcroat" unicode="&#x110;" horiz-adv-x="744" 
d="M406 688c187 0 305 -111 305 -286c0 -242 -189 -410 -414 -410c-87 0 -192 5 -246 8l51 291h-72l16 88h72l53 301c55 3 155 8 235 8zM313 81c159 0 296 125 296 309c0 129 -84 210 -218 210c-44 0 -94 -2 -140 -4l-38 -217h152l-15 -88h-153l-36 -207
c49 -2 104 -3 152 -3z" />
    <glyph glyph-name="E" unicode="E" horiz-adv-x="633" 
d="M214 384h346l-15 -88h-346l-37 -208h388l-16 -88h-483l120 680h483l-15 -88h-388z" />
    <glyph glyph-name="Eacute" unicode="&#xc9;" horiz-adv-x="633" 
d="M616 894l-139 -148h-98l113 148h124zM214 384h346l-15 -88h-346l-37 -208h387l-15 -88h-483l120 680h483l-15 -88h-388z" />
    <glyph glyph-name="Ecaron" unicode="&#x11a;" horiz-adv-x="633" 
d="M462 738h-83l-96 154h90l56 -91l90 91h93zM214 384h346l-15 -88h-346l-37 -208h387l-15 -88h-483l120 680h483l-15 -88h-388z" />
    <glyph glyph-name="Ecircumflex" unicode="&#xca;" horiz-adv-x="633" 
d="M439 835l-90 -89h-93l150 148h82l98 -148h-90zM214 384h346l-15 -88h-346l-37 -208h387l-15 -88h-483l120 680h483l-15 -88h-388z" />
    <glyph glyph-name="Edieresis" unicode="&#xcb;" horiz-adv-x="633" 
d="M323 760c-33 0 -60 25 -60 58s27 58 60 58c34 0 61 -25 61 -58s-27 -58 -61 -58zM535 760c-33 0 -60 25 -60 58s27 58 60 58c34 0 60 -25 60 -58s-26 -58 -60 -58zM214 384h346l-15 -88h-346l-37 -208h387l-15 -88h-483l120 680h483l-15 -88h-388z" />
    <glyph glyph-name="Edotaccent" unicode="&#x116;" horiz-adv-x="633" 
d="M426 767c-33 0 -60 25 -60 58s27 59 60 59c34 0 61 -26 61 -59s-27 -58 -61 -58zM214 384h346l-15 -88h-346l-37 -208h387l-15 -88h-483l120 680h483l-15 -88h-388z" />
    <glyph glyph-name="Egrave" unicode="&#xc8;" horiz-adv-x="633" 
d="M461 746h-83l-93 148h121zM214 384h346l-15 -88h-346l-37 -208h387l-15 -88h-483l120 680h483l-15 -88h-388z" />
    <glyph glyph-name="Emacron" unicode="&#x112;" horiz-adv-x="633" 
d="M589 850l-12 -73h-300l12 73h300zM214 384h346l-15 -88h-346l-37 -208h387l-15 -88h-483l120 680h483l-15 -88h-388z" />
    <glyph glyph-name="Eogonek" unicode="&#x118;" horiz-adv-x="633" 
d="M251 592l-37 -208h346l-15 -88h-346l-37 -208h387l-15 -88h-60c-57 -20 -92 -47 -96 -87c-3 -26 13 -46 57 -46c16 0 27 2 41 5l6 -69c-15 -5 -40 -9 -73 -9c-68 0 -112 37 -109 91c4 51 39 89 94 115h-343l120 680h483l-15 -88h-388z" />
    <glyph glyph-name="F" unicode="F" horiz-adv-x="599" 
d="M210 358h333l-15 -88h-334l-47 -270h-96l120 680h471l-16 -88h-375z" />
    <glyph glyph-name="G" unicode="G" horiz-adv-x="806" 
d="M762 381l-56 -331c-129 -47 -226 -65 -325 -65c-182 0 -306 123 -306 295c0 249 173 415 432 415c81 0 165 -12 241 -34l-35 -87c-85 19 -156 29 -216 29c-193 0 -321 -123 -321 -307c0 -131 89 -218 222 -218c67 0 150 13 227 36l31 179h-258l15 88h349z" />
    <glyph glyph-name="Gbreve" unicode="&#x11e;" horiz-adv-x="806" 
d="M610 886h73c-16 -85 -81 -138 -167 -138c-85 0 -132 53 -116 138h71c-8 -47 16 -71 58 -71c41 0 73 24 81 71zM763 381l-57 -331c-129 -47 -226 -65 -325 -65c-182 0 -306 123 -306 295c0 249 173 415 432 415c81 0 165 -12 241 -34l-34 -87c-86 19 -157 29 -217 29
c-193 0 -321 -123 -321 -307c0 -131 89 -218 222 -218c67 0 150 13 227 36l31 179h-258l15 88h350z" />
    <glyph glyph-name="Gcommaaccent" unicode="&#x122;" horiz-adv-x="806" 
d="M763 381l-57 -331c-129 -47 -226 -65 -325 -65c-182 0 -306 123 -306 295c0 249 173 415 432 415c81 0 165 -12 241 -34l-34 -87c-86 19 -157 29 -217 29c-193 0 -321 -123 -321 -307c0 -131 89 -218 222 -218c67 0 150 13 227 36l31 179h-258l15 88h350zM290 -258l38 89
c-25 9 -38 28 -38 51c0 31 27 57 61 57c33 0 61 -26 61 -57c0 -26 -6 -33 -64 -140h-58z" />
    <glyph glyph-name="Gdotaccent" unicode="&#x120;" horiz-adv-x="806" 
d="M522 767c-33 0 -60 25 -60 58s27 59 60 59c34 0 61 -26 61 -59s-27 -58 -61 -58zM763 381l-57 -331c-129 -47 -226 -65 -325 -65c-182 0 -306 123 -306 295c0 249 173 415 432 415c81 0 165 -12 241 -34l-34 -87c-86 19 -157 29 -217 29c-193 0 -321 -123 -321 -307
c0 -131 89 -218 222 -218c67 0 150 13 227 36l31 179h-258l15 88h350z" />
    <glyph glyph-name="H" unicode="H" horiz-adv-x="757" 
d="M623 0h-95l51 291h-381l-51 -291h-96l120 680h96l-53 -301h381l53 301h95z" />
    <glyph glyph-name="Hbar" unicode="&#x126;" horiz-adv-x="757" 
d="M755 493h-45l-87 -493h-96l52 291h-381l-52 -291h-95l87 493h-46l14 79h46l19 108h95l-19 -108h381l19 108h96l-19 -108h45zM615 493h-382l-20 -114h382z" />
    <glyph glyph-name="I" unicode="I" horiz-adv-x="280" 
d="M267 680l-120 -680h-96l120 680h96z" />
    <glyph glyph-name="IJ" unicode="&#x132;" horiz-adv-x="848" 
d="M266 680l-120 -680h-95l120 680h95zM844 680l-75 -425c-31 -173 -134 -270 -286 -270c-78 0 -137 12 -220 42l34 85c84 -26 139 -33 196 -33c91 0 160 67 179 176l75 425h97z" />
    <glyph glyph-name="Iacute" unicode="&#xcd;" horiz-adv-x="280" 
d="M426 894l-139 -148h-98l113 148h124zM266 680l-120 -680h-95l120 680h95z" />
    <glyph glyph-name="Icircumflex" unicode="&#xce;" horiz-adv-x="280" 
d="M248 835l-90 -89h-93l150 148h82l98 -148h-90zM266 680l-120 -680h-95l120 680h95z" />
    <glyph glyph-name="Idieresis" unicode="&#xcf;" horiz-adv-x="280" 
d="M132 760c-33 0 -60 25 -60 58s27 58 60 58c34 0 61 -25 61 -58s-27 -58 -61 -58zM344 760c-33 0 -60 25 -60 58s27 58 60 58c34 0 60 -25 60 -58s-26 -58 -60 -58zM266 680l-120 -680h-95l120 680h95z" />
    <glyph glyph-name="Idotaccent" unicode="&#x130;" horiz-adv-x="280" 
d="M238 775c-37 0 -66 28 -66 65c0 36 29 64 66 64s66 -28 66 -64c0 -37 -29 -65 -66 -65zM266 680l-120 -680h-95l120 680h95z" />
    <glyph glyph-name="Igrave" unicode="&#xcc;" horiz-adv-x="280" 
d="M270 746h-83l-93 148h121zM266 680l-120 -680h-95l120 680h95z" />
    <glyph glyph-name="Imacron" unicode="&#x12a;" horiz-adv-x="280" 
d="M398 850l-12 -73h-300l12 73h300zM266 680l-120 -680h-95l120 680h95z" />
    <glyph glyph-name="Iogonek" unicode="&#x12e;" horiz-adv-x="280" 
d="M146 0h-26c-52 -20 -84 -46 -88 -84c-3 -26 13 -46 57 -46c16 0 27 2 41 5l6 -69c-15 -5 -40 -9 -73 -9c-69 0 -112 37 -109 91c3 52 41 90 98 117l119 675h95z" />
    <glyph glyph-name="J" unicode="J" horiz-adv-x="568" 
d="M564 680l-75 -425c-31 -173 -134 -270 -286 -270c-78 0 -137 12 -220 42l34 85c84 -26 139 -33 196 -33c91 0 160 67 179 176l75 425h97z" />
    <glyph glyph-name="K" unicode="K" horiz-adv-x="694" 
d="M194 268l-47 -268h-96l120 680h96l-57 -320h61l337 320h121l-345 -331l243 -349h-112l-193 268h-128z" />
    <glyph glyph-name="Kcommaaccent" unicode="&#x136;" horiz-adv-x="694" 
d="M194 268l-48 -268h-95l120 680h95l-56 -320h60l338 320h121l-345 -331l243 -349h-112l-193 268h-128zM232 -255l38 89c-25 9 -38 28 -38 51c0 31 27 57 61 57c33 0 61 -26 61 -57c0 -26 -6 -33 -64 -140h-58z" />
    <glyph glyph-name="L" unicode="L" horiz-adv-x="590" 
d="M515 0h-464l120 680h96l-105 -594h369z" />
    <glyph glyph-name="Lacute" unicode="&#x139;" horiz-adv-x="590" 
d="M428 894l-139 -148h-98l113 148h124zM515 0h-464l120 680h95l-104 -594h368z" />
    <glyph glyph-name="Lcaron" unicode="&#x13d;" horiz-adv-x="590" 
d="M515 0h-464l120 680h95l-104 -594h368zM468 680l-67 -199h-71l43 199h95z" />
    <glyph glyph-name="Lcommaaccent" unicode="&#x13b;" horiz-adv-x="590" 
d="M515 0h-464l120 680h95l-104 -594h368zM199 -255l38 89c-25 9 -38 28 -38 51c0 31 27 57 61 57c33 0 61 -26 61 -57c0 -26 -6 -33 -64 -140h-58z" />
    <glyph glyph-name="Ldot" unicode="&#x13f;" horiz-adv-x="583" 
d="M515 0h-464l120 680h95l-104 -594h368zM387 250c-33 0 -60 26 -60 58c0 33 27 59 60 59c34 0 60 -26 60 -59c0 -32 -26 -58 -60 -58z" />
    <glyph glyph-name="Lslash" unicode="&#x141;" horiz-adv-x="590" 
d="M530 86l-15 -86h-464l41 235l-80 -34l14 81l81 34l64 364h95l-56 -321l167 70l-15 -81l-166 -70l-34 -192h368z" />
    <glyph glyph-name="M" unicode="M" horiz-adv-x="937" 
d="M775 469l-304 -469h-86l-138 469l-113 -469h-93l159 680h90l156 -565l356 565h93l-81 -680h-94z" />
    <glyph glyph-name="N" unicode="N" horiz-adv-x="779" 
d="M766 680l-120 -680h-85l-322 520l-93 -520h-95l120 680h85l322 -523l93 523h95z" />
    <glyph glyph-name="Nacute" unicode="&#x143;" horiz-adv-x="779" 
d="M669 894l-139 -148h-98l113 148h124zM766 680l-120 -680h-85l-322 520l-93 -520h-95l120 680h85l322 -523l93 523h95z" />
    <glyph glyph-name="Ncaron" unicode="&#x147;" horiz-adv-x="779" 
d="M515 738h-83l-96 154h90l56 -91l90 91h93zM766 680l-120 -680h-85l-322 520l-93 -520h-95l120 680h85l322 -523l93 523h95z" />
    <glyph glyph-name="Ncommaaccent" unicode="&#x145;" horiz-adv-x="779" 
d="M766 680l-120 -680h-85l-322 520l-93 -520h-95l120 680h85l322 -523l93 523h95zM271 -255l38 89c-25 9 -38 28 -38 51c0 31 27 57 61 57c33 0 61 -26 61 -57c0 -26 -6 -33 -64 -140h-58z" />
    <glyph glyph-name="Ntilde" unicode="&#xd1;" horiz-adv-x="779" 
d="M586 860h75c-19 -109 -119 -131 -168 -98l-47 34c-27 19 -56 2 -61 -30h-75c19 109 119 130 168 98l47 -34c28 -20 55 -2 61 30zM766 680l-120 -680h-85l-322 520l-93 -520h-95l120 680h85l322 -523l93 523h95z" />
    <glyph glyph-name="O" unicode="O" horiz-adv-x="842" 
d="M505 695c186 0 304 -118 304 -295c0 -242 -190 -415 -430 -415c-184 0 -304 118 -304 295c0 245 185 415 430 415zM395 74c173 0 312 131 312 313c0 131 -85 218 -218 218c-178 0 -312 -127 -312 -312c0 -131 87 -219 218 -219z" />
    <glyph glyph-name="Oacute" unicode="&#xd3;" horiz-adv-x="842" 
d="M706 894l-139 -148h-98l113 148h124zM505 695c186 0 304 -118 304 -295c0 -242 -190 -415 -430 -415c-184 0 -304 118 -304 295c0 245 185 415 430 415zM395 74c174 0 312 131 312 313c0 131 -85 218 -218 218c-178 0 -312 -127 -312 -312c0 -131 87 -219 218 -219z" />
    <glyph glyph-name="Ocircumflex" unicode="&#xd4;" horiz-adv-x="842" 
d="M529 835l-90 -89h-93l150 148h82l98 -148h-90zM505 695c186 0 304 -118 304 -295c0 -242 -190 -415 -430 -415c-184 0 -304 118 -304 295c0 245 185 415 430 415zM395 74c174 0 312 131 312 313c0 131 -85 218 -218 218c-178 0 -312 -127 -312 -312
c0 -131 87 -219 218 -219z" />
    <glyph glyph-name="Odieresis" unicode="&#xd6;" horiz-adv-x="842" 
d="M413 760c-33 0 -60 25 -60 58s27 58 60 58c34 0 61 -25 61 -58s-27 -58 -61 -58zM625 760c-33 0 -60 25 -60 58s27 58 60 58c34 0 60 -25 60 -58s-26 -58 -60 -58zM505 695c186 0 304 -118 304 -295c0 -242 -190 -415 -430 -415c-184 0 -304 118 -304 295
c0 245 185 415 430 415zM395 74c174 0 312 131 312 313c0 131 -85 218 -218 218c-178 0 -312 -127 -312 -312c0 -131 87 -219 218 -219z" />
    <glyph glyph-name="Ograve" unicode="&#xd2;" horiz-adv-x="842" 
d="M551 746h-83l-93 148h121zM505 695c186 0 304 -118 304 -295c0 -242 -190 -415 -430 -415c-184 0 -304 118 -304 295c0 245 185 415 430 415zM395 74c174 0 312 131 312 313c0 131 -85 218 -218 218c-178 0 -312 -127 -312 -312c0 -131 87 -219 218 -219z" />
    <glyph glyph-name="Ohungarumlaut" unicode="&#x150;" horiz-adv-x="842" 
d="M584 898l-100 -156h-92l90 156h102zM740 898l-100 -156h-92l90 156h102zM505 695c186 0 304 -118 304 -295c0 -242 -190 -415 -430 -415c-184 0 -304 118 -304 295c0 245 185 415 430 415zM395 74c174 0 312 131 312 313c0 131 -85 218 -218 218
c-178 0 -312 -127 -312 -312c0 -131 87 -219 218 -219z" />
    <glyph glyph-name="Omacron" unicode="&#x14c;" horiz-adv-x="842" 
d="M679 850l-12 -73h-300l12 73h300zM505 695c186 0 304 -118 304 -295c0 -242 -190 -415 -430 -415c-184 0 -304 118 -304 295c0 245 185 415 430 415zM395 74c174 0 312 131 312 313c0 131 -85 218 -218 218c-178 0 -312 -127 -312 -312c0 -131 87 -219 218 -219z" />
    <glyph glyph-name="Oslash" unicode="&#xd8;" horiz-adv-x="842" 
d="M806 642l-56 -54c38 -49 59 -113 59 -188c0 -242 -190 -415 -430 -415c-79 0 -146 22 -196 60l-61 -58l-55 53l62 60c-35 48 -54 109 -54 180c0 245 185 415 430 415c75 0 139 -19 188 -53l57 54zM177 293c0 -45 10 -86 30 -119l411 395c-35 23 -78 36 -129 36
c-178 0 -312 -127 -312 -312zM395 74c174 0 312 131 312 313c0 49 -12 93 -34 127l-416 -397c36 -28 83 -43 138 -43z" />
    <glyph glyph-name="Otilde" unicode="&#xd5;" horiz-adv-x="842" 
d="M623 860h75c-19 -109 -119 -131 -168 -98l-47 34c-27 19 -56 2 -61 -30h-75c19 109 119 130 168 98l47 -34c28 -20 55 -2 61 30zM505 695c186 0 304 -118 304 -295c0 -242 -190 -415 -430 -415c-184 0 -304 118 -304 295c0 245 185 415 430 415zM395 74
c174 0 312 131 312 313c0 131 -85 218 -218 218c-178 0 -312 -127 -312 -312c0 -131 87 -219 218 -219z" />
    <glyph glyph-name="OE" unicode="&#x152;" horiz-adv-x="998" 
d="M580 384h345l-15 -88h-345l-37 -208h387l-15 -88h-483c-209 1 -341 108 -341 285c0 242 196 394 461 395h483l-16 -88h-387zM177 296c0 -130 90 -206 256 -207l88 501c-216 -1 -344 -113 -344 -294z" />
    <glyph glyph-name="P" unicode="P" horiz-adv-x="641" 
d="M410 688c143 0 236 -73 236 -196c0 -159 -138 -270 -319 -270h-141l-39 -222h-96l120 680c72 4 155 8 239 8zM201 308h151c111 0 199 69 199 171c0 78 -59 121 -147 121c-50 0 -98 -1 -152 -4z" />
    <glyph glyph-name="Thorn" unicode="&#xde;" horiz-adv-x="641" 
d="M391 582c144 0 236 -73 236 -196c0 -159 -138 -270 -318 -270h-142l-20 -116h-96l120 680h96l-18 -101c51 2 96 3 142 3zM183 202h151c110 0 198 68 198 171c0 78 -59 121 -147 121c-50 0 -98 -1 -152 -4z" />
    <glyph glyph-name="Q" unicode="Q" horiz-adv-x="842" 
d="M809 400c0 -186 -112 -331 -272 -388l123 -177h-119l-108 153c-18 -2 -36 -3 -54 -3c-184 0 -304 118 -304 295c0 245 185 415 430 415c186 0 304 -118 304 -295zM395 74c174 0 312 131 312 313c0 131 -85 218 -218 218c-178 0 -312 -127 -312 -312
c0 -131 87 -219 218 -219z" />
    <glyph glyph-name="R" unicode="R" horiz-adv-x="663" 
d="M482 0l-126 234c-17 -1 -34 -1 -52 -1h-116l-41 -233h-95l119 680c61 3 156 6 238 6c143 0 232 -65 232 -185c0 -118 -74 -204 -186 -244l143 -257h-116zM203 318h151c107 0 192 67 192 169c0 76 -58 113 -149 113c-48 0 -93 -1 -145 -3z" />
    <glyph glyph-name="Racute" unicode="&#x154;" horiz-adv-x="663" 
d="M588 894l-139 -148h-98l113 148h124zM482 0l-126 234c-17 -1 -34 -1 -52 -1h-116l-41 -233h-95l119 680c61 3 156 6 238 6c143 0 233 -65 233 -185c0 -118 -75 -204 -187 -244l143 -257h-116zM203 318h151c107 0 193 67 193 169c0 76 -58 113 -150 113
c-48 0 -93 -1 -144 -3z" />
    <glyph glyph-name="Rcaron" unicode="&#x158;" horiz-adv-x="663" 
d="M434 738h-83l-96 154h90l56 -91l90 91h93zM482 0l-126 234c-17 -1 -34 -1 -52 -1h-116l-41 -233h-95l119 680c61 3 156 6 238 6c143 0 233 -65 233 -185c0 -118 -75 -204 -187 -244l143 -257h-116zM203 318h151c107 0 193 67 193 169c0 76 -58 113 -150 113
c-48 0 -93 -1 -144 -3z" />
    <glyph glyph-name="Rcommaaccent" unicode="&#x156;" horiz-adv-x="663" 
d="M482 0l-126 234c-17 -1 -34 -1 -52 -1h-116l-41 -233h-95l119 680c61 3 156 6 238 6c143 0 233 -65 233 -185c0 -118 -75 -204 -187 -244l143 -257h-116zM203 318h151c107 0 193 67 193 169c0 76 -58 113 -150 113c-48 0 -93 -1 -144 -3zM225 -255l38 89
c-25 9 -38 28 -38 51c0 31 27 57 61 57c33 0 61 -26 61 -57c0 -26 -6 -33 -64 -140h-58z" />
    <glyph glyph-name="S" unicode="S" horiz-adv-x="669" 
d="M657 648l-39 -84c-75 24 -160 40 -224 40c-98 0 -164 -45 -164 -119c0 -57 51 -71 154 -94c129 -30 217 -58 217 -173c0 -153 -124 -233 -302 -233c-84 0 -187 19 -273 57l39 89c88 -39 179 -57 255 -57c105 0 181 44 181 122c0 82 -101 93 -194 114
c-125 28 -181 65 -181 154c0 137 121 227 290 227c85 0 183 -20 241 -43z" />
    <glyph glyph-name="Sacute" unicode="&#x15a;" horiz-adv-x="669" 
d="M628 894l-139 -148h-98l113 148h124zM657 648l-39 -84c-75 24 -160 40 -224 40c-98 0 -164 -45 -164 -119c0 -57 51 -71 154 -94c129 -30 217 -58 217 -173c0 -153 -124 -233 -302 -233c-84 0 -187 19 -273 57l39 89c88 -39 179 -57 255 -57c105 0 181 44 181 122
c0 82 -100 93 -194 114c-124 28 -180 65 -180 154c0 137 120 227 289 227c85 0 183 -20 241 -43z" />
    <glyph glyph-name="Scaron" unicode="&#x160;" horiz-adv-x="669" 
d="M474 738h-83l-96 154h90l56 -91l90 91h93zM657 648l-39 -84c-75 24 -160 40 -224 40c-98 0 -164 -45 -164 -119c0 -57 51 -71 154 -94c129 -30 217 -58 217 -173c0 -153 -124 -233 -302 -233c-84 0 -187 19 -273 57l39 89c88 -39 179 -57 255 -57c105 0 181 44 181 122
c0 82 -100 93 -194 114c-124 28 -180 65 -180 154c0 137 120 227 289 227c85 0 183 -20 241 -43z" />
    <glyph glyph-name="Scedilla" unicode="&#x15e;" horiz-adv-x="669" 
d="M657 648l-39 -84c-75 24 -160 40 -224 40c-98 0 -164 -45 -164 -119c0 -57 51 -71 154 -94c129 -30 217 -58 217 -173c0 -153 -124 -233 -302 -233c-84 0 -187 19 -273 57l39 89c88 -39 179 -57 255 -57c105 0 181 44 181 122c0 82 -100 93 -194 114
c-124 28 -180 65 -180 154c0 137 120 227 289 227c85 0 183 -20 241 -43zM247 -206h-77l75 156h89z" />
    <glyph glyph-name="Scommaaccent" unicode="&#x218;" horiz-adv-x="669" 
d="M657 648l-39 -84c-75 24 -160 40 -224 40c-98 0 -164 -45 -164 -119c0 -57 51 -71 154 -94c129 -30 217 -58 217 -173c0 -153 -124 -233 -302 -233c-84 0 -187 19 -273 57l39 89c88 -39 179 -57 255 -57c105 0 181 44 181 122c0 82 -100 93 -194 114
c-124 28 -180 65 -180 154c0 137 120 227 289 227c85 0 183 -20 241 -43zM207 -255l38 89c-25 9 -38 28 -38 51c0 31 27 57 61 57c33 0 61 -26 61 -57c0 -26 -6 -33 -64 -140h-58z" />
    <glyph glyph-name="T" unicode="T" horiz-adv-x="681" 
d="M452 592l-105 -592h-95l105 592h-259l15 88h613l-16 -88h-258z" />
    <glyph glyph-name="Tcaron" unicode="&#x164;" horiz-adv-x="681" 
d="M472 738h-83l-96 154h90l56 -91l90 91h93zM452 592l-105 -592h-95l105 592h-259l15 88h613l-16 -88h-258z" />
    <glyph glyph-name="uni021A" unicode="&#x21a;" horiz-adv-x="681" 
d="M452 592l-105 -592h-95l105 592h-259l15 88h613l-16 -88h-258zM220 -248l38 89c-25 9 -38 28 -38 51c0 31 27 57 61 57c33 0 61 -26 61 -57c0 -26 -6 -33 -64 -140h-58z" />
    <glyph glyph-name="U" unicode="U" horiz-adv-x="762" 
d="M758 680l-71 -398c-31 -178 -165 -297 -344 -297s-284 114 -252 297l70 398h97l-70 -398c-23 -127 44 -206 165 -206c120 0 215 79 237 206l71 398h97z" />
    <glyph glyph-name="Uacute" unicode="&#xda;" horiz-adv-x="762" 
d="M667 894l-139 -148h-98l113 148h124zM757 680l-70 -398c-32 -178 -166 -297 -345 -297c-178 0 -284 114 -252 297l71 398h97l-71 -398c-22 -127 44 -206 166 -206c119 0 214 79 237 206l70 398h97z" />
    <glyph glyph-name="Ucircumflex" unicode="&#xdb;" horiz-adv-x="762" 
d="M489 835l-90 -89h-93l150 148h82l98 -148h-90zM757 680l-70 -398c-32 -178 -166 -297 -345 -297c-178 0 -284 114 -252 297l71 398h97l-71 -398c-22 -127 44 -206 166 -206c119 0 214 79 237 206l70 398h97z" />
    <glyph glyph-name="Udieresis" unicode="&#xdc;" horiz-adv-x="762" 
d="M373 760c-33 0 -60 25 -60 58s27 58 60 58c34 0 61 -25 61 -58s-27 -58 -61 -58zM585 760c-33 0 -60 25 -60 58s27 58 60 58c34 0 60 -25 60 -58s-26 -58 -60 -58zM757 680l-70 -398c-32 -178 -166 -297 -345 -297c-178 0 -284 114 -252 297l71 398h97l-71 -398
c-22 -127 44 -206 166 -206c119 0 214 79 237 206l70 398h97z" />
    <glyph glyph-name="Ugrave" unicode="&#xd9;" horiz-adv-x="762" 
d="M511 746h-83l-93 148h121zM757 680l-70 -398c-32 -178 -166 -297 -345 -297c-178 0 -284 114 -252 297l71 398h97l-71 -398c-22 -127 44 -206 166 -206c119 0 214 79 237 206l70 398h97z" />
    <glyph glyph-name="Uhungarumlaut" unicode="&#x170;" horiz-adv-x="762" 
d="M544 898l-100 -156h-92l90 156h102zM700 898l-100 -156h-92l90 156h102zM757 680l-70 -398c-32 -178 -166 -297 -345 -297c-178 0 -284 114 -252 297l71 398h97l-71 -398c-22 -127 44 -206 166 -206c119 0 214 79 237 206l70 398h97z" />
    <glyph glyph-name="Umacron" unicode="&#x16a;" horiz-adv-x="762" 
d="M639 850l-12 -73h-300l12 73h300zM757 680l-70 -398c-32 -178 -166 -297 -345 -297c-178 0 -284 114 -252 297l71 398h97l-71 -398c-22 -127 44 -206 166 -206c119 0 214 79 237 206l70 398h97z" />
    <glyph glyph-name="Uogonek" unicode="&#x172;" horiz-adv-x="762" 
d="M757 680l-70 -398c-27 -149 -125 -257 -261 -288c-51 -19 -82 -45 -86 -83c-3 -26 13 -46 57 -46c16 0 27 2 41 5l6 -69c-15 -5 -40 -9 -73 -9c-68 0 -112 37 -109 91c3 43 29 77 71 102c-173 4 -274 117 -243 297l71 398h97l-71 -398c-22 -127 44 -206 166 -206
c119 0 214 79 237 206l70 398h97z" />
    <glyph glyph-name="Uring" unicode="&#x16e;" horiz-adv-x="762" 
d="M482 929c57 0 96 -37 96 -92c0 -62 -48 -107 -114 -107c-58 0 -96 38 -96 93c0 62 49 106 114 106zM469 780c31 0 55 22 55 54c0 28 -19 46 -47 46c-31 0 -55 -23 -55 -54c0 -29 20 -46 47 -46zM757 680l-70 -398c-32 -178 -166 -297 -345 -297c-178 0 -284 114 -252 297
l71 398h97l-71 -398c-22 -127 44 -206 166 -206c119 0 214 79 237 206l70 398h97z" />
    <glyph glyph-name="V" unicode="V" horiz-adv-x="787" 
d="M400 0h-93l-197 680h109l153 -552l353 552h110z" />
    <glyph glyph-name="W" unicode="W" horiz-adv-x="1059" 
d="M758 0h-91l-85 519l-272 -519h-91l-109 680h100l81 -533l275 533h83l85 -532l271 532h102z" />
    <glyph glyph-name="Wacute" unicode="&#x1e82;" horiz-adv-x="1059" 
d="M815 894l-139 -148h-98l113 148h124zM758 0h-91l-85 519l-272 -519h-91l-109 680h100l81 -533l275 533h83l84 -532l272 532h102z" />
    <glyph glyph-name="Wcircumflex" unicode="&#x174;" horiz-adv-x="1059" 
d="M638 835l-90 -89h-93l150 148h82l98 -148h-90zM758 0h-91l-85 519l-272 -519h-91l-109 680h100l81 -533l275 533h83l84 -532l272 532h102z" />
    <glyph glyph-name="Wdieresis" unicode="&#x1e84;" horiz-adv-x="1059" 
d="M522 760c-33 0 -60 25 -60 58s27 58 60 58c34 0 61 -25 61 -58s-27 -58 -61 -58zM734 760c-33 0 -60 25 -60 58s27 58 60 58c34 0 60 -25 60 -58s-26 -58 -60 -58zM758 0h-91l-85 519l-272 -519h-91l-109 680h100l81 -533l275 533h83l84 -532l272 532h102z" />
    <glyph glyph-name="Wgrave" unicode="&#x1e80;" horiz-adv-x="1059" 
d="M660 746h-83l-93 148h121zM758 0h-91l-85 519l-272 -519h-91l-109 680h100l81 -533l275 533h83l84 -532l272 532h102z" />
    <glyph glyph-name="X" unicode="X" horiz-adv-x="720" 
d="M437 331l214 -331h-112l-172 264l-257 -264h-125l334 343l-205 337h117l159 -267l247 267h127z" />
    <glyph glyph-name="Y" unicode="Y" horiz-adv-x="711" 
d="M304 236l-202 444h107l161 -344l285 344h110l-359 -444l-42 -236h-102z" />
    <glyph glyph-name="Yacute" unicode="&#xdd;" horiz-adv-x="711" 
d="M641 894l-139 -148h-98l113 148h124zM305 236l-203 444h107l161 -344l286 344h110l-359 -444l-43 -236h-101z" />
    <glyph glyph-name="Ycircumflex" unicode="&#x176;" horiz-adv-x="711" 
d="M464 835l-90 -89h-93l150 148h82l98 -148h-90zM305 236l-203 444h107l161 -344l286 344h110l-359 -444l-43 -236h-101z" />
    <glyph glyph-name="Ydieresis" unicode="&#x178;" horiz-adv-x="711" 
d="M348 760c-33 0 -60 25 -60 58s27 58 60 58c34 0 61 -25 61 -58s-27 -58 -61 -58zM560 760c-33 0 -60 25 -60 58s27 58 60 58c34 0 60 -25 60 -58s-26 -58 -60 -58zM305 236l-203 444h107l161 -344l286 344h110l-359 -444l-43 -236h-101z" />
    <glyph glyph-name="Ygrave" unicode="&#x1ef2;" horiz-adv-x="711" 
d="M486 746h-83l-93 148h121zM305 236l-203 444h107l161 -344l286 344h110l-359 -444l-43 -236h-101z" />
    <glyph glyph-name="Z" unicode="Z" horiz-adv-x="667" 
d="M669 620l-488 -532h397l-15 -88h-545l10 60l494 532h-386l16 88h527z" />
    <glyph glyph-name="Zacute" unicode="&#x179;" horiz-adv-x="667" 
d="M619 894l-139 -148h-98l113 148h124zM669 620l-489 -532h398l-16 -88h-544l10 60l494 532h-386l15 88h528z" />
    <glyph glyph-name="Zcaron" unicode="&#x17d;" horiz-adv-x="667" 
d="M465 738h-83l-96 154h90l56 -91l90 91h93zM669 620l-489 -532h398l-16 -88h-544l10 60l494 532h-386l15 88h528z" />
    <glyph glyph-name="Zdotaccent" unicode="&#x17b;" horiz-adv-x="667" 
d="M430 767c-33 0 -60 25 -60 58s27 59 60 59c34 0 61 -26 61 -59s-27 -58 -61 -58zM669 620l-489 -532h398l-16 -88h-544l10 60l494 532h-386l15 88h528z" />
    <glyph glyph-name="R.ss02" horiz-adv-x="650" 
d="M409 686c143 0 232 -65 232 -185c0 -145 -111 -244 -266 -263h-41l250 -238h-132l-243 233h-21l-41 -233h-95l119 680c61 3 156 6 238 6zM397 600c-48 0 -93 -1 -145 -3l-49 -279h151c107 0 192 67 192 169c0 76 -58 113 -149 113z" />
    <glyph glyph-name="Racute.ss02" horiz-adv-x="650" 
d="M590 894l-139 -148h-98l113 148h124zM409 686c143 0 233 -65 233 -185c0 -145 -112 -244 -267 -263h-40l249 -238h-132l-243 233h-21l-41 -233h-95l119 680c61 3 156 6 238 6zM397 600c-48 0 -93 -1 -144 -3l-50 -279h151c107 0 193 67 193 169c0 76 -58 113 -150 113z
" />
    <glyph glyph-name="Rcaron.ss02" horiz-adv-x="650" 
d="M436 738h-83l-96 154h90l56 -91l90 91h93zM409 686c143 0 233 -65 233 -185c0 -145 -112 -244 -267 -263h-40l249 -238h-132l-243 233h-21l-41 -233h-95l119 680c61 3 156 6 238 6zM397 600c-48 0 -93 -1 -144 -3l-50 -279h151c107 0 193 67 193 169
c0 76 -58 113 -150 113z" />
    <glyph glyph-name="Rcommaaccent.ss02" horiz-adv-x="650" 
d="M409 686c143 0 233 -65 233 -185c0 -145 -112 -244 -267 -263h-40l249 -238h-132l-243 233h-21l-41 -233h-95l119 680c61 3 156 6 238 6zM397 600c-48 0 -93 -1 -144 -3l-50 -279h151c107 0 193 67 193 169c0 76 -58 113 -150 113zM202 -255l38 89c-25 9 -38 28 -38 51
c0 31 27 57 61 57c33 0 61 -26 61 -57c0 -26 -6 -33 -64 -140h-58z" />
    <glyph glyph-name="Q.ss04" horiz-adv-x="842" 
d="M505 695c186 0 304 -118 304 -295c0 -242 -190 -415 -430 -415c-184 0 -304 118 -304 295c0 245 185 415 430 415zM395 74c174 0 312 131 312 313c0 131 -85 218 -218 218c-178 0 -312 -127 -312 -312c0 -131 87 -219 218 -219zM655 -91l-13 -87c-112 2 -221 13 -330 29
l9 65z" />
    <glyph glyph-name="a" unicode="a" horiz-adv-x="613" 
d="M330 482c87 0 151 -8 243 -23l-80 -459h-92l7 38c-58 -34 -110 -53 -173 -53c-131 0 -205 94 -187 235c18 156 134 262 282 262zM328 405c-114 0 -192 -83 -192 -205c0 -81 46 -137 126 -137c48 0 98 15 159 54l49 277c-47 7 -90 11 -142 11z" />
    <glyph glyph-name="aacute" unicode="&#xe1;" horiz-adv-x="613" 
d="M544 714l-132 -147h-92l100 147h124zM329 482c87 0 152 -8 244 -23l-81 -459h-92l7 38c-57 -34 -110 -53 -172 -53c-132 0 -205 94 -187 235c18 156 133 262 281 262zM327 405c-113 0 -191 -83 -191 -205c0 -81 45 -137 125 -137c49 0 98 15 160 54l49 277
c-47 7 -90 11 -143 11z" />
    <glyph glyph-name="abreve" unicode="&#x103;" horiz-adv-x="613" 
d="M467 698h72c-15 -86 -80 -138 -166 -138c-85 0 -132 52 -117 138h72c-8 -47 16 -71 58 -71c41 0 73 24 81 71zM329 482c87 0 152 -8 244 -23l-81 -459h-92l7 38c-57 -34 -110 -53 -172 -53c-132 0 -205 94 -187 235c18 156 133 262 281 262zM327 405
c-113 0 -191 -83 -191 -205c0 -81 45 -137 125 -137c49 0 98 15 160 54l49 277c-47 7 -90 11 -143 11z" />
    <glyph glyph-name="acaron" unicode="&#x1ce;" horiz-adv-x="613" 
d="M416 564h-83l-97 153h91l55 -90l90 90h94zM329 482c87 0 152 -8 244 -23l-81 -459h-92l7 38c-57 -34 -110 -53 -172 -53c-132 0 -205 94 -187 235c18 156 133 262 281 262zM327 405c-113 0 -191 -83 -191 -205c0 -81 45 -137 125 -137c49 0 98 15 160 54l49 277
c-47 7 -90 11 -143 11z" />
    <glyph glyph-name="acircumflex" unicode="&#xe2;" horiz-adv-x="613" 
d="M397 649l-90 -82h-92l148 144h83l98 -144h-90zM329 482c87 0 152 -8 244 -23l-81 -459h-92l7 38c-57 -34 -110 -53 -172 -53c-132 0 -205 94 -187 235c18 156 133 262 281 262zM327 405c-113 0 -191 -83 -191 -205c0 -81 45 -137 125 -137c49 0 98 15 160 54l49 277
c-47 7 -90 11 -143 11z" />
    <glyph glyph-name="adieresis" unicode="&#xe4;" horiz-adv-x="613" 
d="M275 686c33 0 60 -25 60 -58s-27 -59 -60 -59c-34 0 -61 26 -61 59s27 58 61 58zM487 686c33 0 60 -25 60 -58s-27 -59 -60 -59c-34 0 -61 26 -61 59s27 58 61 58zM329 482c87 0 152 -8 244 -23l-81 -459h-92l7 38c-57 -34 -110 -53 -172 -53c-132 0 -205 94 -187 235
c18 156 133 262 281 262zM327 405c-113 0 -191 -83 -191 -205c0 -81 45 -137 125 -137c49 0 98 15 160 54l49 277c-47 7 -90 11 -143 11z" />
    <glyph glyph-name="agrave" unicode="&#xe0;" horiz-adv-x="613" 
d="M434 567h-82l-88 147h122zM329 482c87 0 152 -8 244 -23l-81 -459h-92l7 38c-57 -34 -110 -53 -172 -53c-132 0 -205 94 -187 235c18 156 133 262 281 262zM327 405c-113 0 -191 -83 -191 -205c0 -81 45 -137 125 -137c49 0 98 15 160 54l49 277c-47 7 -90 11 -143 11z
" />
    <glyph glyph-name="amacron" unicode="&#x101;" horiz-adv-x="613" 
d="M531 676l-13 -75h-275l14 75h274zM329 482c87 0 152 -8 244 -23l-81 -459h-92l7 38c-57 -34 -110 -53 -172 -53c-132 0 -205 94 -187 235c18 156 133 262 281 262zM327 405c-113 0 -191 -83 -191 -205c0 -81 45 -137 125 -137c49 0 98 15 160 54l49 277
c-47 7 -90 11 -143 11z" />
    <glyph glyph-name="aogonek" unicode="&#x105;" horiz-adv-x="613" 
d="M492 0h-35c-49 -19 -79 -45 -83 -82c-3 -26 13 -46 57 -46c16 0 27 2 41 5l6 -69c-15 -5 -40 -9 -73 -9c-68 0 -112 37 -109 91c4 55 44 94 106 120l5 28c-57 -34 -110 -53 -172 -53c-132 0 -205 94 -187 235c18 156 133 262 281 262c87 0 152 -8 244 -23zM261 63
c49 0 98 15 160 54l49 277c-47 7 -90 11 -143 11c-113 0 -191 -83 -191 -205c0 -81 45 -137 125 -137z" />
    <glyph glyph-name="aring" unicode="&#xe5;" horiz-adv-x="613" 
d="M383 746c57 0 95 -37 95 -92c0 -62 -48 -107 -113 -107c-58 0 -96 38 -96 93c0 63 48 106 114 106zM369 597c31 0 56 22 56 54c0 28 -20 46 -48 46c-31 0 -55 -23 -55 -54c0 -28 20 -46 47 -46zM329 482c87 0 152 -8 244 -23l-81 -459h-92l7 38
c-57 -34 -110 -53 -172 -53c-132 0 -205 94 -187 235c18 156 133 262 281 262zM327 405c-113 0 -191 -83 -191 -205c0 -81 45 -137 125 -137c49 0 98 15 160 54l49 277c-47 7 -90 11 -143 11z" />
    <glyph glyph-name="atilde" unicode="&#xe3;" horiz-adv-x="613" 
d="M487 680h75c-19 -109 -119 -130 -168 -97l-47 34c-27 19 -56 1 -61 -30h-75c19 109 119 130 168 97l47 -33c28 -20 55 -2 61 29zM329 482c87 0 152 -8 244 -23l-81 -459h-92l7 38c-57 -34 -110 -53 -172 -53c-132 0 -205 94 -187 235c18 156 133 262 281 262zM327 405
c-113 0 -191 -83 -191 -205c0 -81 45 -137 125 -137c49 0 98 15 160 54l49 277c-47 7 -90 11 -143 11z" />
    <glyph glyph-name="ae" unicode="&#xe6;" horiz-adv-x="901" 
d="M674 483c132 0 212 -85 188 -216c-5 -29 -7 -39 -17 -68h-370c3 -79 54 -132 144 -132c47 0 101 11 174 26v-74c-70 -21 -132 -34 -191 -34c-68 0 -120 18 -156 50c-135 -45 -198 -50 -252 -50c-108 0 -165 44 -165 126c0 112 82 158 237 157l124 -1l1 5l5 26
c12 71 -27 107 -98 107c-60 0 -122 -8 -186 -17l4 77c80 14 136 21 203 21c81 0 135 -25 157 -76c52 46 122 73 198 73zM662 410c-89 0 -156 -57 -179 -140h296c14 86 -34 140 -117 140zM118 123c0 -43 38 -63 111 -63c32 0 90 6 173 32c-14 29 -21 62 -21 99h-136
c-87 0 -127 -17 -127 -68z" />
    <glyph glyph-name="b" unicode="b" horiz-adv-x="615" 
d="M258 710l-43 -245c48 12 100 17 152 17c138 0 205 -79 205 -199c0 -172 -118 -298 -297 -298c-59 0 -109 0 -232 25l123 700h92zM341 405c-46 0 -94 -7 -140 -18l-55 -312c63 -11 98 -12 132 -12c119 0 203 86 203 207c0 79 -40 135 -140 135z" />
    <glyph glyph-name="c" unicode="c" horiz-adv-x="521" 
d="M514 456l-26 -73c-51 12 -106 20 -143 20c-116 0 -207 -80 -207 -197c0 -85 57 -136 145 -136c38 0 100 9 158 24l1 -79c-57 -18 -124 -30 -177 -30c-134 0 -220 83 -220 208c0 171 137 291 310 291c52 0 113 -12 159 -28z" />
    <glyph glyph-name="cacute" unicode="&#x107;" horiz-adv-x="521" 
d="M522 713l-132 -147h-92l100 147h124zM514 456l-26 -73c-51 12 -106 20 -143 20c-116 0 -207 -80 -207 -197c0 -85 57 -136 145 -136c38 0 100 9 158 24l1 -79c-57 -18 -124 -30 -177 -30c-134 0 -220 83 -220 208c0 171 137 291 310 291c52 0 113 -12 159 -28z" />
    <glyph glyph-name="ccaron" unicode="&#x10d;" horiz-adv-x="521" 
d="M394 563h-83l-97 153h91l55 -90l90 90h94zM514 456l-26 -73c-51 12 -106 20 -143 20c-116 0 -207 -80 -207 -197c0 -85 57 -136 145 -136c38 0 100 9 158 24l1 -79c-57 -18 -124 -30 -177 -30c-134 0 -220 83 -220 208c0 171 137 291 310 291c52 0 113 -12 159 -28z" />
    <glyph glyph-name="ccedilla" unicode="&#xe7;" horiz-adv-x="521" 
d="M514 456l-26 -73c-51 12 -106 20 -143 20c-116 0 -207 -80 -207 -197c0 -85 57 -136 145 -136c38 0 100 9 158 24l1 -79c-57 -18 -124 -30 -177 -30c-134 0 -220 83 -220 208c0 171 137 291 310 291c52 0 113 -12 159 -28zM193 -206h-77l75 156h89z" />
    <glyph glyph-name="cdotaccent" unicode="&#x10b;" horiz-adv-x="521" 
d="M365 568c-34 0 -60 26 -60 59s26 58 60 58s60 -25 60 -58s-26 -59 -60 -59zM514 456l-26 -73c-51 12 -106 20 -143 20c-116 0 -207 -80 -207 -197c0 -85 57 -136 145 -136c38 0 100 9 158 24l1 -79c-57 -18 -124 -30 -177 -30c-134 0 -220 83 -220 208
c0 171 137 291 310 291c52 0 113 -12 159 -28z" />
    <glyph glyph-name="d" unicode="d" horiz-adv-x="614" 
d="M617 710l-123 -700c-137 -26 -186 -25 -259 -25c-119 0 -190 81 -190 203c0 170 111 294 284 294c60 0 106 -4 154 -17l43 245h91zM327 405c-133 0 -191 -100 -191 -205c0 -81 45 -137 125 -137c44 0 78 -1 153 12l54 312c-46 13 -88 18 -141 18z" />
    <glyph glyph-name="eth" unicode="&#xf0;" horiz-adv-x="611" 
d="M231 676l96 37c39 -15 74 -36 103 -60l97 35l13 -56l-63 -24c78 -82 115 -213 90 -361c-30 -168 -147 -264 -299 -264s-247 105 -219 260c26 147 149 244 283 244c67 0 107 -23 137 -57c-15 65 -45 116 -83 149l-161 -56l-12 56l120 43c-30 21 -64 39 -102 54zM334 403
c-100 0 -190 -74 -198 -182c-8 -93 49 -154 138 -154c105 0 189 74 198 188c8 92 -50 148 -138 148z" />
    <glyph glyph-name="dcaron" unicode="&#x10f;" horiz-adv-x="614" 
d="M617 710l-123 -700c-137 -26 -186 -25 -259 -25c-119 0 -190 81 -190 203c0 170 111 294 284 294c60 0 106 -4 154 -17l43 245h91zM762 710l-67 -199h-71l43 199h95zM327 405c-133 0 -191 -100 -191 -205c0 -81 45 -137 125 -137c44 0 78 -1 152 12l55 312
c-46 13 -88 18 -141 18z" />
    <glyph glyph-name="dcroat" unicode="&#x111;" horiz-adv-x="614" 
d="M633 563h-42l-97 -553c-137 -26 -186 -25 -259 -25c-119 0 -190 81 -190 203c0 170 111 294 284 294c60 0 106 -4 154 -17l17 98h-176l13 76h177l12 71h91l-12 -71h41zM413 75l55 312c-46 13 -88 18 -141 18c-133 0 -191 -100 -191 -205c0 -81 45 -137 125 -137
c44 0 78 -1 152 12z" />
    <glyph glyph-name="e" unicode="e" horiz-adv-x="566" 
d="M337 483c132 0 209 -82 189 -214c-6 -32 -8 -41 -18 -70h-368c0 -87 46 -127 140 -127c44 0 102 10 173 26l3 -79c-65 -20 -131 -34 -188 -34c-158 0 -232 94 -222 222c9 166 139 276 291 276zM326 410c-85 0 -152 -55 -177 -140h293c12 89 -33 140 -116 140z" />
    <glyph glyph-name="eacute" unicode="&#xe9;" horiz-adv-x="566" 
d="M521 714l-132 -147h-92l100 147h124zM336 483c132 0 209 -82 189 -214c-5 -32 -7 -41 -17 -70h-368c0 -87 45 -127 140 -127c44 0 102 10 173 26l3 -79c-65 -20 -131 -34 -188 -34c-158 0 -232 94 -223 222c10 166 139 276 291 276zM325 410c-84 0 -151 -55 -176 -140
h292c13 89 -33 140 -116 140z" />
    <glyph glyph-name="ecaron" unicode="&#x11b;" horiz-adv-x="566" 
d="M393 564h-83l-97 153h91l55 -90l90 90h94zM336 483c132 0 209 -82 189 -214c-5 -32 -7 -41 -17 -70h-368c0 -87 45 -127 140 -127c44 0 102 10 173 26l3 -79c-65 -20 -131 -34 -188 -34c-158 0 -232 94 -223 222c10 166 139 276 291 276zM325 410
c-84 0 -151 -55 -176 -140h292c13 89 -33 140 -116 140z" />
    <glyph glyph-name="ecircumflex" unicode="&#xea;" horiz-adv-x="566" 
d="M374 649l-90 -82h-92l148 144h83l98 -144h-90zM336 483c132 0 209 -82 189 -214c-5 -32 -7 -41 -17 -70h-368c0 -87 45 -127 140 -127c44 0 102 10 173 26l3 -79c-65 -20 -131 -34 -188 -34c-158 0 -232 94 -223 222c10 166 139 276 291 276zM325 410
c-84 0 -151 -55 -176 -140h292c13 89 -33 140 -116 140z" />
    <glyph glyph-name="edieresis" unicode="&#xeb;" horiz-adv-x="566" 
d="M252 686c33 0 60 -25 60 -58s-27 -59 -60 -59c-34 0 -61 26 -61 59s27 58 61 58zM464 686c33 0 60 -25 60 -58s-27 -59 -60 -59c-34 0 -61 26 -61 59s27 58 61 58zM336 483c132 0 209 -82 189 -214c-5 -32 -7 -41 -17 -70h-368c0 -87 45 -127 140 -127
c44 0 102 10 173 26l3 -79c-65 -20 -131 -34 -188 -34c-158 0 -232 94 -223 222c10 166 139 276 291 276zM325 410c-84 0 -151 -55 -176 -140h292c13 89 -33 140 -116 140z" />
    <glyph glyph-name="edotaccent" unicode="&#x117;" horiz-adv-x="566" 
d="M364 569c-34 0 -60 26 -60 59s26 58 60 58s60 -25 60 -58s-26 -59 -60 -59zM336 483c132 0 209 -82 189 -214c-5 -32 -7 -41 -17 -70h-368c0 -87 45 -127 140 -127c44 0 102 10 173 26l3 -79c-65 -20 -131 -34 -188 -34c-158 0 -232 94 -223 222c10 166 139 276 291 276z
M325 410c-84 0 -151 -55 -176 -140h292c13 89 -33 140 -116 140z" />
    <glyph glyph-name="egrave" unicode="&#xe8;" horiz-adv-x="566" 
d="M411 567h-82l-88 147h122zM336 483c132 0 209 -82 189 -214c-5 -32 -7 -41 -17 -70h-368c0 -87 45 -127 140 -127c44 0 102 10 173 26l3 -79c-65 -20 -131 -34 -188 -34c-158 0 -232 94 -223 222c10 166 139 276 291 276zM325 410c-84 0 -151 -55 -176 -140h292
c13 89 -33 140 -116 140z" />
    <glyph glyph-name="emacron" unicode="&#x113;" horiz-adv-x="566" 
d="M508 676l-13 -75h-275l14 75h274zM336 483c132 0 209 -82 189 -214c-5 -32 -7 -41 -17 -70h-368c0 -87 45 -127 140 -127c44 0 102 10 173 26l3 -79c-65 -20 -131 -34 -188 -34c-158 0 -232 94 -223 222c10 166 139 276 291 276zM325 410c-84 0 -151 -55 -176 -140h292
c13 89 -33 140 -116 140z" />
    <glyph glyph-name="eogonek" unicode="&#x119;" horiz-adv-x="566" 
d="M336 483c132 0 209 -82 189 -214c-5 -32 -7 -41 -17 -70h-368c0 -87 45 -127 140 -127c44 0 102 10 173 26l3 -79c-20 -6 -41 -12 -61 -17c-54 -20 -87 -46 -91 -85c-3 -26 13 -46 57 -46c16 0 27 2 41 5l6 -69c-15 -5 -40 -9 -73 -9c-68 0 -112 37 -109 91
c3 40 26 72 62 97l-20 -1c-158 0 -232 94 -223 222c10 166 139 276 291 276zM149 270h292c13 89 -33 140 -116 140c-84 0 -151 -55 -176 -140z" />
    <glyph glyph-name="f" unicode="f" horiz-adv-x="393" 
d="M381 669c-54 0 -98 -37 -110 -107l-17 -95h177l-14 -82h-177l-68 -385h-92l68 385h-121l15 82h121l17 98c20 117 105 187 212 187c26 0 52 -4 77 -11l-29 -78c-19 4 -38 6 -59 6z" />
    <glyph glyph-name="g" unicode="g" horiz-adv-x="605" 
d="M328 482c87 0 180 -12 244 -23l-81 -459c-25 -144 -136 -250 -305 -250c-58 0 -118 14 -165 32l29 76c51 -14 101 -26 148 -26c105 0 180 64 200 164c-72 -11 -110 -11 -165 -11c-131 0 -204 94 -186 235c18 156 133 262 281 262zM326 405c-113 0 -191 -83 -191 -205
c0 -81 45 -137 125 -137c43 0 77 -1 152 12l56 319c-47 7 -90 11 -142 11z" />
    <glyph glyph-name="gbreve" unicode="&#x11f;" horiz-adv-x="605" 
d="M457 698h72c-15 -86 -80 -138 -166 -138c-85 0 -132 52 -117 138h72c-8 -47 16 -71 58 -71c41 0 73 24 81 71zM328 482c88 0 180 -12 244 -23l-81 -459c-25 -144 -136 -250 -304 -250c-59 0 -118 14 -166 32l29 76c51 -14 101 -26 149 -26c105 0 179 64 200 164
c-73 -11 -111 -11 -165 -11c-131 0 -205 94 -187 235c18 156 133 262 281 262zM326 405c-113 0 -191 -83 -191 -205c0 -81 45 -137 125 -137c43 0 77 -1 152 12l57 319c-47 7 -90 11 -143 11z" />
    <glyph glyph-name="gcommaaccent" unicode="&#x123;" horiz-adv-x="605" 
d="M432 769l-38 -89c25 -9 38 -28 38 -51c0 -31 -27 -57 -61 -57c-33 0 -61 26 -61 57c0 26 6 33 64 140h58zM328 482c88 0 180 -12 244 -23l-81 -459c-25 -144 -136 -250 -304 -250c-59 0 -118 14 -166 32l29 76c51 -14 101 -26 149 -26c105 0 179 64 200 164
c-73 -11 -111 -11 -165 -11c-131 0 -205 94 -187 235c18 156 133 262 281 262zM326 405c-113 0 -191 -83 -191 -205c0 -81 45 -137 125 -137c43 0 77 -1 152 12l57 319c-47 7 -90 11 -143 11z" />
    <glyph glyph-name="gdotaccent" unicode="&#x121;" horiz-adv-x="605" 
d="M377 569c-34 0 -60 26 -60 59s26 58 60 58s60 -25 60 -58s-26 -59 -60 -59zM328 482c88 0 180 -12 244 -23l-81 -459c-25 -144 -136 -250 -304 -250c-59 0 -118 14 -166 32l29 76c51 -14 101 -26 149 -26c105 0 179 64 200 164c-73 -11 -111 -11 -165 -11
c-131 0 -205 94 -187 235c18 156 133 262 281 262zM326 405c-113 0 -191 -83 -191 -205c0 -81 45 -137 125 -137c43 0 77 -1 152 12l57 319c-47 7 -90 11 -143 11z" />
    <glyph glyph-name="h" unicode="h" horiz-adv-x="611" 
d="M387 482c119 0 181 -71 161 -186l-52 -296h-92l48 271c14 79 -24 128 -98 128c-47 0 -99 -5 -155 -19l-67 -380h-92l125 710h92l-43 -246c61 14 120 18 173 18z" />
    <glyph glyph-name="hbar" unicode="&#x127;" horiz-adv-x="611" 
d="M388 482c118 0 180 -71 160 -186l-52 -296h-92l48 271c14 79 -24 128 -98 128c-47 0 -98 -5 -155 -19l-67 -380h-92l102 582h-52l12 66h52l11 62h92l-11 -62h154l-12 -66h-153l-21 -118c61 14 121 18 174 18z" />
    <glyph glyph-name="i" unicode="i" horiz-adv-x="256" 
d="M194 567c-36 0 -64 27 -64 62c0 37 28 64 64 64c35 0 63 -27 63 -64c0 -35 -28 -62 -63 -62zM216 467l-83 -467h-92l83 467h92z" />
    <glyph glyph-name="dotlessi" unicode="&#x131;" horiz-adv-x="257" 
d="M216 467l-83 -467h-92l83 467h92z" />
    <glyph glyph-name="iacute" unicode="&#xed;" horiz-adv-x="257" 
d="M363 714l-132 -147h-92l100 147h124zM215 467l-82 -467h-92l83 467h91z" />
    <glyph glyph-name="icircumflex" unicode="&#xee;" horiz-adv-x="257" 
d="M211 649l-90 -82h-92l148 144h83l98 -144h-90zM215 467l-82 -467h-92l83 467h91z" />
    <glyph glyph-name="idieresis" unicode="&#xef;" horiz-adv-x="257" 
d="M89 686c33 0 60 -25 60 -58s-27 -59 -60 -59c-34 0 -61 26 -61 59s27 58 61 58zM301 686c33 0 60 -25 60 -58s-27 -59 -60 -59c-34 0 -61 26 -61 59s27 58 61 58zM215 467l-82 -467h-92l83 467h91z" />
    <glyph glyph-name="i.loclTRK" horiz-adv-x="257" 
d="M200 569c-34 0 -60 26 -60 59s26 58 60 58s60 -25 60 -58s-26 -59 -60 -59zM215 467l-82 -467h-92l83 467h91z" />
    <glyph glyph-name="igrave" unicode="&#xec;" horiz-adv-x="257" 
d="M214 567h-83l-87 147h122zM215 467l-82 -467h-92l83 467h91z" />
    <glyph glyph-name="ij" unicode="&#x133;" horiz-adv-x="521" 
d="M194 567c-36 0 -64 27 -64 62c0 37 28 64 64 64c34 0 63 -27 63 -64c0 -35 -29 -62 -63 -62zM458 567c-35 0 -63 27 -63 62c0 37 28 64 63 64s64 -27 64 -64c0 -35 -29 -62 -64 -62zM215 467l-82 -467h-92l83 467h91zM479 467l-90 -508c-25 -142 -76 -215 -233 -217l7 81
c88 11 117 38 132 125l92 519h92z" />
    <glyph glyph-name="imacron" unicode="&#x12b;" horiz-adv-x="257" 
d="M344 676l-13 -75h-275l14 75h274zM215 467l-82 -467h-92l83 467h91z" />
    <glyph glyph-name="iogonek" unicode="&#x12f;" horiz-adv-x="257" 
d="M200 686c34 0 60 -25 60 -58s-26 -59 -60 -59s-60 26 -60 59s26 58 60 58zM124 467h91l-82 -467h-28c-49 -19 -79 -45 -83 -82c-3 -26 13 -46 57 -46c16 0 27 2 41 5l6 -69c-15 -5 -40 -9 -73 -9c-69 0 -112 37 -109 91c3 52 41 90 98 117z" />
    <glyph glyph-name="j" unicode="j" horiz-adv-x="246" 
d="M183 567c-35 0 -63 27 -63 62c0 37 28 64 63 64s64 -27 64 -64c0 -35 -29 -62 -64 -62zM204 467l-90 -508c-25 -142 -76 -215 -233 -217l7 81c88 11 117 38 132 125l92 519h92z" />
    <glyph glyph-name="k" unicode="k" horiz-adv-x="578" 
d="M187 279h51l210 188h120l-231 -212l171 -255h-103l-136 194h-97l-34 -194h-92l126 710h91z" />
    <glyph glyph-name="kcommaaccent" unicode="&#x137;" horiz-adv-x="578" 
d="M187 279h51l210 188h120l-232 -212l172 -255h-104l-135 194h-97l-34 -194h-92l125 710h92zM172 -255l38 89c-25 9 -38 28 -38 51c0 31 27 57 61 57c33 0 61 -26 61 -57c0 -26 -6 -33 -64 -140h-58z" />
    <glyph glyph-name="l" unicode="l" horiz-adv-x="267" 
d="M263 710l-125 -710h-92l126 710h91z" />
    <glyph glyph-name="lacute" unicode="&#x13a;" horiz-adv-x="267" 
d="M404 900l-132 -147h-91l99 147h124zM263 710l-125 -710h-92l125 710h92z" />
    <glyph glyph-name="lcaron" unicode="&#x13e;" horiz-adv-x="267" 
d="M263 710l-125 -710h-92l125 710h92zM408 710l-67 -199h-71l43 199h95z" />
    <glyph glyph-name="lcommaaccent" unicode="&#x13c;" horiz-adv-x="267" 
d="M263 710l-125 -710h-92l125 710h92zM10 -255l38 89c-25 9 -38 28 -38 51c0 31 27 57 61 57c33 0 61 -26 61 -57c0 -26 -6 -33 -64 -140h-58z" />
    <glyph glyph-name="ldot" unicode="&#x140;" horiz-adv-x="337" 
d="M263 710l-125 -710h-92l125 710h92zM306 271c-34 0 -61 25 -61 58s27 59 61 59c33 0 60 -26 60 -59s-27 -58 -60 -58z" />
    <glyph glyph-name="lslash" unicode="&#x142;" horiz-adv-x="267" 
d="M271 352l-77 -33l-56 -319h-92l49 277l-71 -30l14 81l71 30l62 352h92l-55 -310l77 32z" />
    <glyph glyph-name="m" unicode="m" horiz-adv-x="931" 
d="M704 482c117 0 180 -56 157 -187l-52 -295h-92l48 272c15 84 -15 127 -93 127c-45 0 -88 -6 -142 -22c3 -21 2 -46 -3 -78l-53 -299h-92l49 275c16 89 -15 124 -97 124c-40 -1 -79 -4 -126 -11l-68 -388h-92l80 457c50 11 154 24 239 25c56 0 99 -10 126 -35
c64 23 142 35 211 35z" />
    <glyph glyph-name="n" unicode="n" horiz-adv-x="626" 
d="M395 482c118 0 181 -72 161 -187l-52 -295h-92l48 272c14 79 -24 127 -98 127c-46 0 -98 -4 -154 -12l-68 -387h-92l81 459c61 12 179 23 266 23z" />
    <glyph glyph-name="nacute" unicode="&#x144;" horiz-adv-x="626" 
d="M542 714l-132 -147h-92l100 147h124zM395 482c119 0 181 -72 161 -187l-52 -295h-92l48 272c14 79 -24 127 -97 127c-47 0 -99 -4 -154 -12l-69 -387h-92l81 459c62 12 179 23 266 23z" />
    <glyph glyph-name="ncaron" unicode="&#x148;" horiz-adv-x="626" 
d="M414 564h-83l-97 153h91l55 -90l90 90h94zM395 482c119 0 181 -72 161 -187l-52 -295h-92l48 272c14 79 -24 127 -97 127c-47 0 -99 -4 -154 -12l-69 -387h-92l81 459c62 12 179 23 266 23z" />
    <glyph glyph-name="ncommaaccent" unicode="&#x146;" horiz-adv-x="626" 
d="M395 482c119 0 181 -72 161 -187l-52 -295h-92l48 272c14 79 -24 127 -97 127c-47 0 -99 -4 -154 -12l-69 -387h-92l81 459c62 12 179 23 266 23zM190 -255l38 89c-25 9 -38 28 -38 51c0 31 27 57 61 57c33 0 61 -26 61 -57c0 -26 -6 -33 -64 -140h-58z" />
    <glyph glyph-name="ntilde" unicode="&#xf1;" horiz-adv-x="626" 
d="M485 680h75c-19 -109 -119 -130 -168 -97l-47 34c-27 19 -56 1 -61 -30h-75c19 109 119 130 168 97l47 -33c28 -20 55 -2 61 29zM395 482c119 0 181 -72 161 -187l-52 -295h-92l48 272c14 79 -24 127 -97 127c-47 0 -99 -4 -154 -12l-69 -387h-92l81 459
c62 12 179 23 266 23z" />
    <glyph glyph-name="o" unicode="o" horiz-adv-x="615" 
d="M352 487c136 0 220 -82 220 -209c0 -170 -135 -295 -308 -295c-135 0 -219 84 -219 211c0 171 134 293 307 293zM279 67c111 0 198 84 198 198c0 84 -53 138 -140 138c-110 0 -198 -82 -198 -196c0 -85 53 -140 140 -140z" />
    <glyph glyph-name="oacute" unicode="&#xf3;" horiz-adv-x="615" 
d="M537 714l-132 -147h-92l100 147h124zM352 487c136 0 220 -82 220 -209c0 -170 -135 -295 -308 -295c-135 0 -219 84 -219 211c0 171 135 293 307 293zM279 67c111 0 198 84 198 198c0 84 -53 138 -140 138c-110 0 -198 -82 -198 -196c0 -85 53 -140 140 -140z" />
    <glyph glyph-name="ocircumflex" unicode="&#xf4;" horiz-adv-x="615" 
d="M390 649l-90 -82h-92l148 144h83l98 -144h-90zM352 487c136 0 220 -82 220 -209c0 -170 -135 -295 -308 -295c-135 0 -219 84 -219 211c0 171 135 293 307 293zM279 67c111 0 198 84 198 198c0 84 -53 138 -140 138c-110 0 -198 -82 -198 -196c0 -85 53 -140 140 -140z
" />
    <glyph glyph-name="odieresis" unicode="&#xf6;" horiz-adv-x="615" 
d="M268 686c33 0 60 -25 60 -58s-27 -59 -60 -59c-34 0 -61 26 -61 59s27 58 61 58zM480 686c33 0 60 -25 60 -58s-27 -59 -60 -59c-34 0 -61 26 -61 59s27 58 61 58zM352 487c136 0 220 -82 220 -209c0 -170 -135 -295 -308 -295c-135 0 -219 84 -219 211
c0 171 135 293 307 293zM279 67c111 0 198 84 198 198c0 84 -53 138 -140 138c-110 0 -198 -82 -198 -196c0 -85 53 -140 140 -140z" />
    <glyph glyph-name="ograve" unicode="&#xf2;" horiz-adv-x="615" 
d="M426 567h-82l-88 147h122zM352 487c136 0 220 -82 220 -209c0 -170 -135 -295 -308 -295c-135 0 -219 84 -219 211c0 171 135 293 307 293zM279 67c111 0 198 84 198 198c0 84 -53 138 -140 138c-110 0 -198 -82 -198 -196c0 -85 53 -140 140 -140z" />
    <glyph glyph-name="ohungarumlaut" unicode="&#x151;" horiz-adv-x="615" 
d="M336 564h-84l84 147h94zM482 564h-85l85 147h94zM352 487c136 0 220 -82 220 -209c0 -170 -135 -295 -308 -295c-135 0 -219 84 -219 211c0 171 135 293 307 293zM279 67c111 0 198 84 198 198c0 84 -53 138 -140 138c-110 0 -198 -82 -198 -196c0 -85 53 -140 140 -140z
" />
    <glyph glyph-name="omacron" unicode="&#x14d;" horiz-adv-x="615" 
d="M523 676l-13 -75h-275l14 75h274zM352 487c136 0 220 -82 220 -209c0 -170 -135 -295 -308 -295c-135 0 -219 84 -219 211c0 171 135 293 307 293zM279 67c111 0 198 84 198 198c0 84 -53 138 -140 138c-110 0 -198 -82 -198 -196c0 -85 53 -140 140 -140z" />
    <glyph glyph-name="oslash" unicode="&#xf8;" horiz-adv-x="615" 
d="M588 473l-60 -59c29 -35 44 -82 44 -136c0 -170 -135 -295 -308 -295c-53 0 -98 13 -133 36l-65 -65l-46 43l65 65c-26 35 -40 80 -40 132c0 171 135 293 307 293c51 0 94 -11 129 -32l61 61zM139 207c0 -29 6 -54 17 -75l255 254c-20 11 -45 17 -74 17
c-110 0 -198 -82 -198 -196zM477 265c0 30 -7 57 -20 78l-257 -256c21 -13 48 -20 79 -20c111 0 198 84 198 198z" />
    <glyph glyph-name="otilde" unicode="&#xf5;" horiz-adv-x="615" 
d="M479 680h75c-19 -109 -119 -130 -168 -97l-47 34c-27 19 -56 1 -61 -30h-75c19 109 119 130 168 97l47 -33c28 -20 55 -2 61 29zM352 487c136 0 220 -82 220 -209c0 -170 -135 -295 -308 -295c-135 0 -219 84 -219 211c0 171 135 293 307 293zM279 67
c111 0 198 84 198 198c0 84 -53 138 -140 138c-110 0 -198 -82 -198 -196c0 -85 53 -140 140 -140z" />
    <glyph glyph-name="oe" unicode="&#x153;" horiz-adv-x="991" 
d="M762 483c131 0 209 -82 189 -214c-6 -32 -8 -41 -18 -70h-368c0 -87 45 -127 140 -127c44 0 102 10 173 26l3 -79c-65 -20 -131 -34 -188 -34c-98 0 -164 36 -197 95c-56 -61 -139 -97 -232 -97c-135 0 -219 84 -219 211c0 171 135 293 307 293c90 0 158 -36 193 -98
c54 60 132 94 217 94zM574 270h293c12 89 -34 140 -116 140c-85 0 -152 -55 -177 -140zM279 67c95 0 172 61 193 151c1 11 2 23 5 34v13c0 84 -53 138 -140 138c-110 0 -198 -82 -198 -196c0 -85 53 -140 140 -140z" />
    <glyph glyph-name="p" unicode="p" horiz-adv-x="620" 
d="M381 482c142 0 210 -92 194 -231c-16 -158 -131 -266 -276 -266c-54 0 -92 0 -160 11l-40 -224h-92l122 687c105 16 171 23 252 23zM301 63c107 0 186 88 186 208c0 78 -41 134 -132 134c-52 0 -96 -4 -146 -11l-56 -319c70 -13 105 -12 148 -12z" />
    <glyph glyph-name="thorn" unicode="&#xfe;" horiz-adv-x="612" 
d="M373 482c142 0 209 -92 194 -231c-17 -158 -131 -266 -276 -266c-54 0 -92 0 -160 11l-40 -224h-92l166 938h92l-42 -239c50 9 98 11 158 11zM292 63c107 0 187 88 187 208c0 78 -41 134 -132 134c-52 0 -96 -4 -146 -11l-56 -319c70 -13 103 -12 147 -12z" />
    <glyph glyph-name="q" unicode="q" horiz-adv-x="613" 
d="M348 482c94 0 167 -11 224 -23l-121 -687h-91l39 224c-72 -11 -110 -11 -165 -11c-131 0 -206 94 -187 235c19 156 119 262 301 262zM261 63c43 0 77 -1 152 12l56 319c-47 7 -90 11 -142 11c-114 0 -192 -83 -192 -205c0 -81 46 -137 126 -137z" />
    <glyph glyph-name="r" unicode="r" horiz-adv-x="398" 
d="M407 484l-15 -90c-64 0 -120 -2 -184 -8l-67 -386h-92l79 458c85 15 191 26 279 26z" />
    <glyph glyph-name="racute" unicode="&#x155;" horiz-adv-x="398" 
d="M457 714l-132 -147h-92l100 147h124zM407 484l-15 -90c-64 0 -120 -2 -184 -8l-67 -386h-92l80 458c85 15 190 26 278 26z" />
    <glyph glyph-name="rcaron" unicode="&#x159;" horiz-adv-x="398" 
d="M329 564h-83l-97 153h91l55 -90l90 90h94zM407 484l-15 -90c-64 0 -120 -2 -184 -8l-67 -386h-92l80 458c85 15 190 26 278 26z" />
    <glyph glyph-name="rcommaaccent" unicode="&#x157;" horiz-adv-x="398" 
d="M407 484l-15 -90c-64 0 -120 -2 -184 -8l-67 -386h-92l80 458c85 15 190 26 278 26zM16 -255l38 89c-25 9 -38 28 -38 51c0 31 27 57 61 57c33 0 61 -26 61 -57c0 -26 -6 -33 -64 -140h-58z" />
    <glyph glyph-name="s" unicode="s" horiz-adv-x="519" 
d="M26 29l33 79c67 -30 131 -44 181 -44c68 0 116 24 116 69c0 44 -63 54 -130 69c-83 17 -133 48 -133 115c0 106 84 165 214 165c69 0 139 -16 179 -34l-35 -76c-49 21 -116 33 -160 33c-63 0 -103 -27 -103 -71c0 -38 46 -46 110 -60c90 -20 150 -47 150 -117
c0 -115 -95 -172 -225 -172c-59 0 -132 14 -197 44z" />
    <glyph glyph-name="sacute" unicode="&#x15b;" horiz-adv-x="519" 
d="M491 713l-132 -147h-92l100 147h124zM26 29l34 79c66 -30 131 -44 181 -44c67 0 116 24 116 69c0 44 -64 54 -131 69c-83 17 -133 48 -133 115c0 106 84 165 214 165c69 0 139 -16 180 -34l-35 -76c-50 21 -117 33 -160 33c-64 0 -103 -27 -103 -71c0 -38 45 -46 109 -60
c90 -20 150 -47 150 -117c0 -115 -94 -172 -225 -172c-58 0 -131 14 -197 44z" />
    <glyph glyph-name="scaron" unicode="&#x161;" horiz-adv-x="519" 
d="M363 563h-83l-97 153h91l55 -90l90 90h94zM26 29l34 79c66 -30 131 -44 181 -44c67 0 116 24 116 69c0 44 -64 54 -131 69c-83 17 -133 48 -133 115c0 106 84 165 214 165c69 0 139 -16 180 -34l-35 -76c-50 21 -117 33 -160 33c-64 0 -103 -27 -103 -71
c0 -38 45 -46 109 -60c90 -20 150 -47 150 -117c0 -115 -94 -172 -225 -172c-58 0 -131 14 -197 44z" />
    <glyph glyph-name="scedilla" unicode="&#x15f;" horiz-adv-x="519" 
d="M26 29l34 79c66 -30 131 -44 181 -44c67 0 116 24 116 69c0 44 -64 54 -131 69c-83 17 -133 48 -133 115c0 106 84 165 214 165c69 0 139 -16 180 -34l-35 -76c-50 21 -117 33 -160 33c-64 0 -103 -27 -103 -71c0 -38 45 -46 109 -60c90 -20 150 -47 150 -117
c0 -115 -94 -172 -225 -172c-58 0 -131 14 -197 44zM171 -206h-77l75 156h89z" />
    <glyph glyph-name="scommaaccent" unicode="&#x219;" horiz-adv-x="519" 
d="M26 29l34 79c66 -30 131 -44 181 -44c67 0 116 24 116 69c0 44 -64 54 -131 69c-83 17 -133 48 -133 115c0 106 84 165 214 165c69 0 139 -16 180 -34l-35 -76c-50 21 -117 33 -160 33c-64 0 -103 -27 -103 -71c0 -38 45 -46 109 -60c90 -20 150 -47 150 -117
c0 -115 -94 -172 -225 -172c-58 0 -131 14 -197 44zM127 -255l38 89c-25 9 -38 28 -38 51c0 31 27 57 61 57c33 0 61 -26 61 -57c0 -26 -6 -33 -64 -140h-58z" />
    <glyph glyph-name="germandbls" unicode="&#xdf;" horiz-adv-x="654" 
d="M364 752l-14 -83c-67 0 -100 -35 -113 -108l-16 -94h403l-10 -58l-201 -199l20 -1c95 -9 158 -74 151 -173c-8 -140 -126 -240 -283 -240c-53 0 -100 7 -150 20l26 77c65 -12 106 -15 138 -15c97 0 171 60 178 145c6 66 -40 107 -115 107h-100l9 45l199 207h-280
l-68 -382h-92l101 571c22 121 89 181 217 181z" />
    <glyph glyph-name="t" unicode="t" horiz-adv-x="445" 
d="M370 75l-2 -76c-42 -9 -67 -14 -117 -14c-109 0 -156 61 -134 182l38 218h-111l15 82h111l32 187h92l-33 -187h161l-15 -82h-160l-37 -210c-13 -73 6 -108 72 -108c27 0 55 3 88 8z" />
    <glyph glyph-name="tcaron" unicode="&#x165;" horiz-adv-x="445" 
d="M457 734l-67 -199h-71l43 199h95zM370 75l-2 -76c-42 -9 -67 -14 -117 -14c-110 0 -156 61 -134 182l38 218h-111l15 82h111l32 187h92l-33 -187h161l-15 -82h-161l-36 -210c-14 -73 6 -108 72 -108c27 0 55 3 88 8z" />
    <glyph glyph-name="uni021B" unicode="&#x21b;" horiz-adv-x="445" 
d="M370 75l-2 -76c-42 -9 -67 -14 -117 -14c-110 0 -156 61 -134 182l38 218h-111l15 82h111l32 187h92l-33 -187h161l-15 -82h-161l-36 -210c-14 -73 6 -108 72 -108c27 0 55 3 88 8zM132 -255l38 89c-25 9 -38 28 -38 51c0 31 27 57 61 57c33 0 61 -26 61 -57
c0 -26 -6 -33 -64 -140h-58z" />
    <glyph glyph-name="u" unicode="u" horiz-adv-x="615" 
d="M576 467l-80 -457c-62 -14 -180 -25 -267 -25c-117 0 -184 57 -160 187l51 295h92l-49 -276c-14 -84 19 -127 98 -127c47 0 98 4 154 11l69 392h92z" />
    <glyph glyph-name="uacute" unicode="&#xfa;" horiz-adv-x="615" 
d="M536 714l-132 -147h-92l100 147h124zM576 467l-80 -457c-63 -14 -180 -25 -267 -25c-117 0 -184 57 -161 187l52 295h92l-49 -276c-15 -84 19 -127 98 -127c47 0 98 4 154 11l69 392h92z" />
    <glyph glyph-name="ucircumflex" unicode="&#xfb;" horiz-adv-x="615" 
d="M389 649l-90 -82h-92l148 144h83l98 -144h-90zM576 467l-80 -457c-63 -14 -180 -25 -267 -25c-117 0 -184 57 -161 187l52 295h92l-49 -276c-15 -84 19 -127 98 -127c47 0 98 4 154 11l69 392h92z" />
    <glyph glyph-name="udieresis" unicode="&#xfc;" horiz-adv-x="615" 
d="M267 686c33 0 60 -25 60 -58s-27 -59 -60 -59c-34 0 -61 26 -61 59s27 58 61 58zM479 686c33 0 60 -25 60 -58s-27 -59 -60 -59c-34 0 -61 26 -61 59s27 58 61 58zM576 467l-80 -457c-63 -14 -180 -25 -267 -25c-117 0 -184 57 -161 187l52 295h92l-49 -276
c-15 -84 19 -127 98 -127c47 0 98 4 154 11l69 392h92z" />
    <glyph glyph-name="ugrave" unicode="&#xf9;" horiz-adv-x="615" 
d="M425 567h-82l-88 147h122zM576 467l-80 -457c-63 -14 -180 -25 -267 -25c-117 0 -184 57 -161 187l52 295h92l-49 -276c-15 -84 19 -127 98 -127c47 0 98 4 154 11l69 392h92z" />
    <glyph glyph-name="uhungarumlaut" unicode="&#x171;" horiz-adv-x="615" 
d="M335 564h-84l84 147h94zM481 564h-85l85 147h94zM576 467l-80 -457c-63 -14 -180 -25 -267 -25c-117 0 -184 57 -161 187l52 295h92l-49 -276c-15 -84 19 -127 98 -127c47 0 98 4 154 11l69 392h92z" />
    <glyph glyph-name="umacron" unicode="&#x16b;" horiz-adv-x="615" 
d="M522 676l-13 -75h-275l14 75h274zM576 467l-80 -457c-63 -14 -180 -25 -267 -25c-117 0 -184 57 -161 187l52 295h92l-49 -276c-15 -84 19 -127 98 -127c47 0 98 4 154 11l69 392h92z" />
    <glyph glyph-name="uogonek" unicode="&#x173;" horiz-adv-x="615" 
d="M457 -123c16 0 27 2 41 5l6 -69c-15 -5 -40 -9 -73 -9c-68 0 -112 37 -109 91c3 41 27 74 65 99c-52 -6 -110 -9 -158 -9c-117 0 -184 57 -161 187l52 295h92l-49 -276c-15 -84 19 -127 98 -127c47 0 98 4 154 11l69 392h92l-80 -457c-57 -20 -92 -47 -96 -87
c-3 -26 13 -46 57 -46z" />
    <glyph glyph-name="uring" unicode="&#x16f;" horiz-adv-x="615" 
d="M375 746c57 0 95 -37 95 -92c0 -62 -48 -107 -113 -107c-58 0 -96 38 -96 93c0 63 48 106 114 106zM361 597c31 0 56 22 56 54c0 28 -20 46 -48 46c-31 0 -55 -23 -55 -54c0 -28 20 -46 47 -46zM576 467l-80 -457c-63 -14 -180 -25 -267 -25c-117 0 -184 57 -161 187
l52 295h92l-49 -276c-15 -84 19 -127 98 -127c47 0 98 4 154 11l69 392h92z" />
    <glyph glyph-name="v" unicode="v" horiz-adv-x="611" 
d="M313 0h-98l-140 467h98l107 -358l234 358h104z" />
    <glyph glyph-name="w" unicode="w" horiz-adv-x="821" 
d="M580 0h-90l-60 334l-181 -334h-89l-81 467h93l56 -341l187 341h73l62 -343l180 343h95z" />
    <glyph glyph-name="wacute" unicode="&#x1e83;" horiz-adv-x="821" 
d="M643 714l-132 -147h-92l100 147h124zM580 0h-90l-60 334l-181 -334h-90l-80 467h92l57 -341l187 341h72l63 -343l180 343h95z" />
    <glyph glyph-name="wcircumflex" unicode="&#x175;" horiz-adv-x="821" 
d="M493 649l-90 -82h-92l148 144h83l98 -144h-90zM580 0h-90l-60 334l-181 -334h-90l-80 467h92l57 -341l187 341h72l63 -343l180 343h95z" />
    <glyph glyph-name="wdieresis" unicode="&#x1e85;" horiz-adv-x="821" 
d="M370 686c33 0 60 -25 60 -58s-27 -59 -60 -59c-34 0 -61 26 -61 59s27 58 61 58zM582 686c33 0 60 -25 60 -58s-27 -59 -60 -59c-34 0 -61 26 -61 59s27 58 61 58zM580 0h-90l-60 334l-181 -334h-90l-80 467h92l57 -341l187 341h72l63 -343l180 343h95z" />
    <glyph glyph-name="wgrave" unicode="&#x1e81;" horiz-adv-x="821" 
d="M479 567h-82l-88 147h122zM580 0h-90l-60 334l-181 -334h-90l-80 467h92l57 -341l187 341h72l63 -343l180 343h95z" />
    <glyph glyph-name="x" unicode="x" horiz-adv-x="560" 
d="M339 234l147 -234h-106l-110 172l-172 -172h-108l231 234l-146 233h109l106 -168l167 168h110z" />
    <glyph glyph-name="y" unicode="y" horiz-adv-x="629" 
d="M639 469l-468 -697h-99l170 257l-169 440h102l132 -342l227 342h105z" />
    <glyph glyph-name="yacute" unicode="&#xfd;" horiz-adv-x="629" 
d="M401 568h-92l100 147h124zM639 469l-468 -697h-99l170 257l-169 440h101l133 -342l227 342h105z" />
    <glyph glyph-name="ycircumflex" unicode="&#x177;" horiz-adv-x="629" 
d="M296 568h-92l148 144h83l98 -144h-90l-57 82zM639 469l-468 -697h-99l170 257l-169 440h101l133 -342l227 342h105z" />
    <glyph glyph-name="ydieresis" unicode="&#xff;" horiz-adv-x="629" 
d="M264 570c-34 0 -61 26 -61 59s27 58 61 58c33 0 60 -25 60 -58s-27 -59 -60 -59zM476 570c-34 0 -61 26 -61 59s27 58 61 58c33 0 60 -25 60 -58s-27 -59 -60 -59zM639 469l-468 -697h-99l170 257l-169 440h101l133 -342l227 342h105z" />
    <glyph glyph-name="ygrave" unicode="&#x1ef3;" horiz-adv-x="629" 
d="M341 568l-88 147h122l48 -147h-82zM639 469l-468 -697h-99l170 257l-169 440h101l133 -342l227 342h105z" />
    <glyph glyph-name="z" unicode="z" horiz-adv-x="499" 
d="M476 416l-319 -336h273l-14 -80h-410l9 46l326 342h-259l15 80h389z" />
    <glyph glyph-name="zacute" unicode="&#x17a;" horiz-adv-x="499" 
d="M475 714l-132 -147h-92l100 147h124zM476 416l-320 -336h274l-14 -80h-410l8 46l327 342h-259l14 80h389z" />
    <glyph glyph-name="zcaron" unicode="&#x17e;" horiz-adv-x="499" 
d="M347 564h-83l-97 153h91l55 -90l90 90h94zM476 416l-320 -336h274l-14 -80h-410l8 46l327 342h-259l14 80h389z" />
    <glyph glyph-name="zdotaccent" unicode="&#x17c;" horiz-adv-x="499" 
d="M318 569c-34 0 -60 26 -60 59s26 58 60 58s60 -25 60 -58s-26 -59 -60 -59zM476 416l-320 -336h274l-14 -80h-410l8 46l327 342h-259l14 80h389z" />
    <glyph glyph-name="germandbls.case" horiz-adv-x="1301" 
d="M657 648l-39 -84c-75 24 -160 40 -224 40c-98 0 -164 -45 -164 -119c0 -57 51 -71 154 -94c129 -30 217 -58 217 -173c0 -153 -124 -233 -302 -233c-84 0 -187 19 -273 57l39 89c88 -39 179 -57 255 -57c105 0 181 44 181 122c0 82 -100 93 -194 114
c-124 28 -180 65 -180 154c0 137 120 227 289 227c85 0 183 -20 241 -43zM1289 648l-39 -84c-75 24 -160 40 -224 40c-98 0 -164 -45 -164 -119c0 -57 51 -71 154 -94c129 -30 217 -58 217 -173c0 -153 -124 -233 -302 -233c-84 0 -187 19 -273 57l39 89
c88 -39 179 -57 255 -57c105 0 181 44 181 122c0 82 -101 93 -194 114c-125 28 -181 65 -181 154c0 137 121 227 290 227c85 0 183 -20 241 -43z" />
    <glyph glyph-name="y.ss01" horiz-adv-x="607" 
d="M576 467l-82 -467c-25 -144 -136 -250 -304 -250c-59 0 -117 13 -165 28l28 80c51 -14 101 -26 148 -26c105 0 180 65 201 166c-61 -10 -120 -13 -173 -13c-117 0 -184 57 -160 187l51 295h92l-49 -276c-14 -84 19 -127 98 -127c47 0 98 4 154 11l69 392h92z" />
    <glyph glyph-name="yacute.ss01" horiz-adv-x="607" 
d="M539 714l-132 -147h-92l100 147h124zM576 467l-82 -467c-25 -144 -136 -250 -304 -250c-59 0 -117 13 -165 28l28 80c51 -14 101 -26 148 -26c106 0 181 65 201 166c-61 -10 -120 -13 -173 -13c-117 0 -184 57 -160 187l52 295h91l-48 -276c-15 -84 18 -127 97 -127
c47 0 99 4 154 11l70 392h91z" />
    <glyph glyph-name="ycircumflex.ss01" horiz-adv-x="607" 
d="M392 649l-90 -82h-92l148 144h83l98 -144h-90zM576 467l-82 -467c-25 -144 -136 -250 -304 -250c-59 0 -117 13 -165 28l28 80c51 -14 101 -26 148 -26c106 0 181 65 201 166c-61 -10 -120 -13 -173 -13c-117 0 -184 57 -160 187l52 295h91l-48 -276
c-15 -84 18 -127 97 -127c47 0 99 4 154 11l70 392h91z" />
    <glyph glyph-name="ydieresis.ss01" horiz-adv-x="607" 
d="M270 686c33 0 60 -25 60 -58s-27 -59 -60 -59c-34 0 -61 26 -61 59s27 58 61 58zM482 686c33 0 60 -25 60 -58s-27 -59 -60 -59c-34 0 -61 26 -61 59s27 58 61 58zM576 467l-82 -467c-25 -144 -136 -250 -304 -250c-59 0 -117 13 -165 28l28 80c51 -14 101 -26 148 -26
c106 0 181 65 201 166c-61 -10 -120 -13 -173 -13c-117 0 -184 57 -160 187l52 295h91l-48 -276c-15 -84 18 -127 97 -127c47 0 99 4 154 11l70 392h91z" />
    <glyph glyph-name="ygrave.ss01" horiz-adv-x="607" 
d="M428 567h-82l-88 147h122zM576 467l-82 -467c-25 -144 -136 -250 -304 -250c-59 0 -117 13 -165 28l28 80c51 -14 101 -26 148 -26c106 0 181 65 201 166c-61 -10 -120 -13 -173 -13c-117 0 -184 57 -160 187l52 295h91l-48 -276c-15 -84 18 -127 97 -127
c47 0 99 4 154 11l70 392h91z" />
    <glyph glyph-name="a.ss03" horiz-adv-x="571" 
d="M341 487c135 0 187 -72 168 -181l-52 -296c-153 -24 -199 -25 -259 -25c-112 0 -174 47 -168 136c5 104 82 159 237 166l152 8l2 10c12 69 -11 100 -89 100c-59 0 -134 -9 -197 -19l3 79c80 14 137 22 203 22zM227 62c32 0 83 3 153 12l26 149l-158 -8
c-80 -4 -123 -32 -127 -80c-6 -50 29 -73 106 -73z" />
    <glyph glyph-name="aacute.ss03" horiz-adv-x="571" 
d="M517 714l-132 -147h-92l100 147h124zM341 487c135 0 187 -72 168 -181l-52 -296c-153 -24 -198 -25 -259 -25c-112 0 -174 47 -168 136c5 104 82 159 237 166l152 8l2 10c12 69 -11 100 -88 100c-60 0 -134 -9 -198 -19l3 79c81 14 137 22 203 22zM227 62
c32 0 83 3 153 12l26 149l-158 -8c-81 -4 -123 -32 -128 -80c-5 -50 30 -73 107 -73z" />
    <glyph glyph-name="abreve.ss03" horiz-adv-x="571" 
d="M440 698h72c-15 -86 -80 -138 -166 -138c-85 0 -132 52 -117 138h72c-8 -47 16 -71 58 -71c41 0 73 24 81 71zM341 487c135 0 187 -72 168 -181l-52 -296c-153 -24 -198 -25 -259 -25c-112 0 -174 47 -168 136c5 104 82 159 237 166l152 8l2 10c12 69 -11 100 -88 100
c-60 0 -134 -9 -198 -19l3 79c81 14 137 22 203 22zM227 62c32 0 83 3 153 12l26 149l-158 -8c-81 -4 -123 -32 -128 -80c-5 -50 30 -73 107 -73z" />
    <glyph glyph-name="acaron.ss03" horiz-adv-x="571" 
d="M389 564h-83l-97 153h91l55 -90l90 90h94zM341 487c135 0 187 -72 168 -181l-52 -296c-153 -24 -198 -25 -259 -25c-112 0 -174 47 -168 136c5 104 82 159 237 166l152 8l2 10c12 69 -11 100 -88 100c-60 0 -134 -9 -198 -19l3 79c81 14 137 22 203 22zM227 62
c32 0 83 3 153 12l26 149l-158 -8c-81 -4 -123 -32 -128 -80c-5 -50 30 -73 107 -73z" />
    <glyph glyph-name="acircumflex.ss03" horiz-adv-x="571" 
d="M370 649l-90 -82h-92l148 144h83l98 -144h-90zM341 487c135 0 187 -72 168 -181l-52 -296c-153 -24 -198 -25 -259 -25c-112 0 -174 47 -168 136c5 104 82 159 237 166l152 8l2 10c12 69 -11 100 -88 100c-60 0 -134 -9 -198 -19l3 79c81 14 137 22 203 22zM227 62
c32 0 83 3 153 12l26 149l-158 -8c-81 -4 -123 -32 -128 -80c-5 -50 30 -73 107 -73z" />
    <glyph glyph-name="adieresis.ss03" horiz-adv-x="571" 
d="M248 686c33 0 60 -25 60 -58s-27 -59 -60 -59c-34 0 -61 26 -61 59s27 58 61 58zM460 686c33 0 60 -25 60 -58s-27 -59 -60 -59c-34 0 -61 26 -61 59s27 58 61 58zM341 487c135 0 187 -72 168 -181l-52 -296c-153 -24 -198 -25 -259 -25c-112 0 -174 47 -168 136
c5 104 82 159 237 166l152 8l2 10c12 69 -11 100 -88 100c-60 0 -134 -9 -198 -19l3 79c81 14 137 22 203 22zM227 62c32 0 83 3 153 12l26 149l-158 -8c-81 -4 -123 -32 -128 -80c-5 -50 30 -73 107 -73z" />
    <glyph glyph-name="agrave.ss03" horiz-adv-x="571" 
d="M407 567h-82l-88 147h122zM341 487c135 0 187 -72 168 -181l-52 -296c-153 -24 -198 -25 -259 -25c-112 0 -174 47 -168 136c5 104 82 159 237 166l152 8l2 10c12 69 -11 100 -88 100c-60 0 -134 -9 -198 -19l3 79c81 14 137 22 203 22zM227 62c32 0 83 3 153 12l26 149
l-158 -8c-81 -4 -123 -32 -128 -80c-5 -50 30 -73 107 -73z" />
    <glyph glyph-name="amacron.ss03" horiz-adv-x="571" 
d="M504 676l-13 -75h-275l14 75h274zM341 487c135 0 187 -72 168 -181l-52 -296c-153 -24 -198 -25 -259 -25c-112 0 -174 47 -168 136c5 104 82 159 237 166l152 8l2 10c12 69 -11 100 -88 100c-60 0 -134 -9 -198 -19l3 79c81 14 137 22 203 22zM227 62c32 0 83 3 153 12
l26 149l-158 -8c-81 -4 -123 -32 -128 -80c-5 -50 30 -73 107 -73z" />
    <glyph glyph-name="aogonek.ss03" horiz-adv-x="571" 
d="M509 306l-52 -296c-57 -20 -92 -47 -96 -87c-3 -26 13 -46 57 -46c16 0 27 2 41 5l6 -69c-15 -5 -40 -9 -73 -9c-68 0 -112 37 -109 91c3 42 28 75 66 100c-72 -9 -107 -10 -151 -10c-112 0 -174 47 -168 136c5 104 82 159 237 166l152 8l2 10c12 69 -11 100 -88 100
c-60 0 -134 -9 -198 -19l3 79c81 14 137 22 203 22c135 0 187 -72 168 -181zM120 135c-5 -50 30 -73 107 -73c32 0 83 3 153 12l26 149l-158 -8c-81 -4 -123 -32 -128 -80z" />
    <glyph glyph-name="aring.ss03" horiz-adv-x="571" 
d="M356 746c57 0 95 -37 95 -92c0 -62 -48 -107 -113 -107c-58 0 -96 38 -96 93c0 63 48 106 114 106zM342 597c31 0 56 22 56 54c0 28 -20 46 -48 46c-31 0 -55 -23 -55 -54c0 -28 20 -46 47 -46zM341 487c135 0 187 -72 168 -181l-52 -296c-153 -24 -198 -25 -259 -25
c-112 0 -174 47 -168 136c5 104 82 159 237 166l152 8l2 10c12 69 -11 100 -88 100c-60 0 -134 -9 -198 -19l3 79c81 14 137 22 203 22zM227 62c32 0 83 3 153 12l26 149l-158 -8c-81 -4 -123 -32 -128 -80c-5 -50 30 -73 107 -73z" />
    <glyph glyph-name="atilde.ss03" horiz-adv-x="571" 
d="M460 680h75c-19 -109 -119 -130 -168 -97l-47 34c-27 19 -56 1 -61 -30h-75c19 109 119 130 168 97l47 -33c28 -20 55 -2 61 29zM341 487c135 0 187 -72 168 -181l-52 -296c-153 -24 -198 -25 -259 -25c-112 0 -174 47 -168 136c5 104 82 159 237 166l152 8l2 10
c12 69 -11 100 -88 100c-60 0 -134 -9 -198 -19l3 79c81 14 137 22 203 22zM227 62c32 0 83 3 153 12l26 149l-158 -8c-81 -4 -123 -32 -128 -80c-5 -50 30 -73 107 -73z" />
    <glyph glyph-name="f_b" horiz-adv-x="995" 
d="M755 482c128 0 197 -79 197 -198c0 -174 -120 -299 -278 -299c-74 0 -123 -1 -251 25l112 632c-37 18 -65 27 -114 27c-98 0 -149 -49 -165 -134l-12 -68h184l-14 -82h-184l-68 -385h-92l68 385h-110l14 82h111l12 71c25 137 112 214 267 214c50 0 88 -13 124 -31l84 -4
l-45 -252c52 13 100 17 160 17zM675 63c107 0 186 88 186 208c0 78 -42 134 -132 134c-52 0 -97 -5 -147 -18l-56 -312c71 -13 105 -12 149 -12z" />
    <glyph glyph-name="f_f_b" horiz-adv-x="1353" 
d="M789 752c49 0 87 -13 124 -31l82 -4l-44 -252c51 13 99 17 159 17c129 0 199 -81 199 -201c0 -169 -122 -296 -280 -296c-74 0 -123 -1 -251 25l113 633c-37 17 -66 26 -113 26c-92 0 -144 -49 -158 -134l-12 -68h177l-15 -82h-177l-68 -385h-92l68 385h-271l-68 -385
h-92l68 385h-110l14 82h111l11 67c25 142 128 218 266 218c72 0 119 -21 174 -62c43 40 102 62 185 62zM421 669c-94 0 -150 -47 -166 -138l-11 -64h272l12 71c5 30 15 57 27 80c-42 35 -84 51 -134 51zM1084 405c-51 0 -95 -5 -147 -18l-55 -312c70 -13 105 -12 148 -12
c108 0 188 90 188 206c0 78 -42 136 -134 136z" />
    <glyph glyph-name="f_f_f" horiz-adv-x="1104" 
d="M430 752c74 0 120 -22 177 -65c46 43 107 65 187 65c69 0 114 -20 167 -58c38 37 90 58 148 58c26 0 52 -4 76 -11l-29 -78c-18 4 -37 6 -59 6c-54 0 -97 -37 -109 -107l-17 -95h167l-15 -82h-167l-67 -385h-92l67 385h-271l-67 -385h-92l67 385h-272l-67 -385h-92
l68 385h-111l15 82h111l11 67c25 142 128 218 266 218zM421 669c-95 0 -149 -47 -165 -138l-12 -64h272l11 67c6 32 15 60 29 83c-43 35 -85 52 -135 52zM784 669c-94 0 -149 -47 -165 -138l-11 -64h271l17 98c4 20 10 40 18 56c-41 33 -81 48 -130 48z" />
    <glyph glyph-name="f_f_h" horiz-adv-x="1350" 
d="M1126 482c118 0 180 -71 160 -186l-52 -296h-92l48 271c14 79 -24 128 -97 128c-47 0 -99 -5 -156 -19l-67 -380h-92l113 642c-37 18 -64 27 -113 27c-92 0 -143 -49 -158 -134l-12 -68h177l-14 -82h-178l-68 -385h-92l69 385h-272l-68 -385h-92l68 385h-110l14 82h111
l12 67c25 142 127 218 266 218c72 0 117 -21 173 -62c43 40 102 62 185 62c49 0 88 -13 124 -31l83 -4l-44 -253c61 14 121 18 174 18zM516 467l13 71c5 30 14 57 26 80c-42 35 -84 51 -134 51c-94 0 -149 -47 -165 -138l-12 -64h272z" />
    <glyph glyph-name="f_f_j" horiz-adv-x="971" 
d="M944 467l-85 -479c-25 -142 -77 -215 -233 -217l7 81c88 -3 117 38 133 125l71 408h-244l-67 -385h-92l67 385h-271l-68 -385h-92l68 385h-110l14 82h111l11 67c25 142 128 218 266 218c74 0 120 -22 177 -65c46 43 107 65 183 65c72 0 115 -21 172 -60l-55 -66
c-42 30 -81 43 -126 43c-91 0 -146 -47 -162 -138l-11 -64h336zM516 467l11 67c6 32 15 60 29 83c-43 35 -85 52 -135 52c-94 0 -149 -47 -165 -138l-12 -64h272z" />
    <glyph glyph-name="f_f_k" horiz-adv-x="1311" 
d="M1132 0l-130 194h-98l-34 -194h-92l114 642c-37 18 -66 27 -114 27c-92 0 -143 -49 -158 -134l-12 -68h177l-14 -82h-177l-68 -385h-92l68 385h-272l-68 -385h-92l69 385h-111l14 82h111l12 67c25 142 127 218 265 218c73 0 119 -21 174 -62c43 40 103 62 185 62
c49 0 88 -13 124 -31l84 -4l-77 -438h52l215 188h113l-232 -203l173 -264h-109zM516 467l12 71c6 30 15 57 27 80c-42 35 -83 51 -133 51c-95 0 -150 -47 -166 -138l-12 -64h272z" />
    <glyph glyph-name="f_f_t" horiz-adv-x="1140" 
d="M746 752c28 0 56 -5 81 -13l-27 -76c-22 4 -42 6 -66 6c-54 0 -97 -37 -110 -107l-16 -95h258l32 187h92l-32 -187h160l-14 -82h-161l-37 -210c-13 -72 7 -108 73 -108c27 0 55 3 88 8l-3 -76c-42 -9 -67 -14 -117 -14c-110 0 -156 60 -135 181l39 219h-258l-68 -385h-92
l68 385h-272l-67 -385h-92l68 385h-111l15 82h111l11 67c25 142 128 218 266 218c71 0 116 -20 168 -58c38 37 89 58 148 58zM421 669c-95 0 -149 -47 -165 -138l-12 -64h272l17 98c4 20 10 39 18 56c-40 32 -81 48 -130 48z" />
    <glyph glyph-name="f_h" horiz-adv-x="990" 
d="M766 482c118 0 181 -71 161 -186l-53 -296h-92l48 271c15 79 -24 128 -97 128c-47 0 -99 -5 -155 -19l-68 -380h-92l114 641c-39 18 -67 28 -117 28c-92 0 -144 -49 -159 -134l-12 -68h177l-14 -82h-177l-68 -385h-92l68 385h-110l14 82h111l12 71
c24 137 112 214 261 214c49 0 87 -13 123 -31l87 -4l-44 -253c61 14 122 18 174 18z" />
    <glyph glyph-name="f_j" horiz-adv-x="604" 
d="M577 467l-85 -479c-25 -142 -77 -215 -233 -217l7 81c88 -3 117 38 132 125l73 408h-241l-68 -385h-92l68 385h-110l14 82h111l11 67c25 142 128 218 263 218c72 0 115 -21 172 -60l-55 -66c-42 30 -82 43 -127 43c-90 0 -145 -47 -161 -138l-12 -64h333z" />
    <glyph glyph-name="f_k" horiz-adv-x="947" 
d="M634 194h-93l-34 -194h-92l113 642c-37 18 -64 27 -113 27c-92 0 -143 -49 -159 -134l-12 -68h177l-13 -82h-178l-68 -385h-92l69 385h-111l14 82h111l12 71c25 137 112 214 261 214c49 0 87 -13 123 -31l84 -4l-76 -438h52l214 188h113l-232 -212l174 -255h-109z" />
    <glyph glyph-name="f_t" horiz-adv-x="783" 
d="M710 75l-3 -76c-42 -9 -67 -14 -117 -14c-110 0 -155 60 -134 181l38 219h-264l-68 -385h-92l68 385h-110l14 82h111l16 91c23 129 100 194 213 194c29 0 56 -5 82 -13l-27 -76c-22 4 -42 6 -66 6c-59 0 -97 -34 -111 -114l-16 -88h265l32 187h92l-32 -187h160l-14 -82
h-161l-37 -210c-13 -72 7 -108 73 -108c27 0 55 3 88 8z" />
    <glyph glyph-name="r_f" horiz-adv-x="721" 
d="M730 752c26 0 51 -4 76 -11l-28 -78c-19 4 -39 6 -60 6c-54 0 -98 -37 -110 -107l-17 -95h167l-14 -82h-167l-68 -385h-92l68 384c-125 0 -210 -2 -297 -9l-66 -375h-92l79 441c84 14 238 24 391 26l17 98c20 117 106 187 213 187z" />
    <glyph glyph-name="r_t" horiz-adv-x="758" 
d="M746 476l-14 -82h-160l-39 -219c-13 -72 7 -108 73 -108c27 0 55 3 88 8l-3 -76c-42 -9 -67 -14 -117 -14c-109 0 -156 60 -135 181l41 227c-107 0 -187 -2 -291 -11l-67 -382h-92l80 450c104 14 245 24 384 25l32 179h91l-31 -178h160z" />
    <glyph glyph-name="ordfeminine" unicode="&#xaa;" horiz-adv-x="463" 
d="M329 695c102 0 143 -40 128 -126l-37 -209c-116 -18 -155 -18 -201 -18c-81 0 -123 33 -123 91c0 77 59 117 178 123l114 5l2 7c5 44 -14 63 -71 63c-45 0 -99 -6 -146 -12l3 61c59 10 102 15 153 15zM378 507l-122 -6c-65 -3 -90 -23 -90 -57c0 -28 25 -44 77 -44
c24 0 64 3 118 10z" />
    <glyph glyph-name="ordmasculine" unicode="&#xba;" horiz-adv-x="457" 
d="M311 695c94 0 156 -59 156 -148c0 -120 -99 -207 -219 -207c-94 0 -157 60 -157 150c0 120 100 205 220 205zM259 406c72 0 134 54 134 132c0 55 -38 92 -94 92c-71 0 -134 -53 -134 -130c0 -57 39 -94 94 -94z" />
    <glyph glyph-name="zero" unicode="0" horiz-adv-x="752" 
d="M455 695c162 0 259 -114 259 -286c0 -245 -166 -424 -385 -424c-163 0 -261 114 -261 286c0 245 167 424 387 424zM344 71c153 0 273 138 273 326c0 127 -67 212 -178 212c-154 0 -273 -138 -273 -326c0 -127 67 -212 178 -212z" />
    <glyph glyph-name="one" unicode="1" horiz-adv-x="418" 
d="M269 0h-95l103 573l-187 -50l-8 77l279 80h28z" />
    <glyph glyph-name="two" unicode="2" horiz-adv-x="582" 
d="M490 0h-471l11 63l280 228c89 73 156 123 156 208c0 68 -45 108 -126 108c-44 0 -120 -13 -202 -46l-9 81c69 32 159 53 231 53c137 0 208 -78 208 -177c0 -120 -98 -205 -215 -302l-165 -136h317z" />
    <glyph glyph-name="three" unicode="3" horiz-adv-x="592" 
d="M586 622l-242 -237h12c116 0 184 -66 184 -158c0 -137 -115 -242 -302 -242c-80 0 -161 18 -228 56l46 75c63 -31 131 -49 200 -49c112 0 193 58 193 144c0 60 -57 95 -153 95h-108l8 45l248 240h-309l15 89h446z" />
    <glyph glyph-name="four" unicode="4" horiz-adv-x="670" 
d="M532 206h90l-14 -79h-90l-22 -127h-92l22 127h-401l13 69l486 484h92zM162 206h279l62 343z" />
    <glyph glyph-name="five" unicode="5" horiz-adv-x="613" 
d="M230 417l109 -6c134 -8 214 -70 214 -173c0 -147 -127 -253 -292 -253c-96 0 -172 18 -240 57l44 78c65 -31 130 -51 208 -51c104 0 189 60 189 153c0 62 -52 100 -151 105l-196 9l91 344h403l-16 -89h-315z" />
    <glyph glyph-name="six" unicode="6" horiz-adv-x="623" 
d="M353 471c143 0 234 -83 225 -213c-9 -161 -143 -273 -310 -273c-143 0 -232 89 -223 221c3 72 34 128 79 174l262 300h117l-185 -211c12 1 23 2 35 2zM485 248c8 89 -51 147 -145 147c-111 0 -195 -74 -203 -178c-8 -91 51 -151 144 -151c108 0 196 74 204 182z" />
    <glyph glyph-name="seven" unicode="7" horiz-adv-x="556" 
d="M594 622l-395 -622h-109l381 591h-371l15 89h488z" />
    <glyph glyph-name="eight" unicode="8" horiz-adv-x="644" 
d="M471 355c82 -26 124 -82 119 -153c-8 -126 -138 -217 -313 -217c-155 0 -248 77 -241 185c6 85 66 151 178 185c-62 25 -92 74 -87 138c6 122 123 202 275 202c134 0 217 -67 210 -168c-5 -78 -49 -139 -141 -172zM224 497c-6 -67 42 -108 122 -108c93 0 161 51 167 129
c6 57 -42 100 -124 100c-91 0 -159 -51 -165 -121zM291 66c109 0 192 57 199 136c6 61 -53 114 -153 114c-109 0 -192 -61 -198 -130c-7 -72 52 -120 152 -120z" />
    <glyph glyph-name="nine" unicode="9" horiz-adv-x="622" 
d="M390 695c143 0 232 -89 223 -221c-3 -75 -40 -127 -79 -174l-250 -300h-112l176 211c-14 -1 -28 -2 -43 -2c-143 0 -234 83 -225 213c9 161 142 273 310 273zM173 432c-8 -89 51 -147 145 -147c111 0 195 74 203 178c8 91 -51 151 -145 151c-107 0 -195 -74 -203 -182z
" />
    <glyph glyph-name="zero.osf" horiz-adv-x="653" 
d="M382 545c141 0 234 -91 234 -227c0 -192 -147 -330 -331 -330c-141 0 -235 91 -235 228c0 191 149 329 332 329zM299 72c120 0 224 98 224 232c0 94 -65 157 -155 157c-122 0 -225 -98 -225 -231c0 -95 65 -158 156 -158z" />
    <glyph glyph-name="one.osf" horiz-adv-x="461" 
d="M427 79l-14 -79h-417l14 79h169l60 345l-187 -48l-6 81l280 80h28l-80 -458h153z" />
    <glyph glyph-name="two.osf" horiz-adv-x="542" 
d="M315 540c126 0 195 -66 195 -146c0 -98 -76 -177 -284 -296l-32 -18h280l-14 -80h-451l10 63l110 62c198 112 279 172 279 244c0 53 -42 83 -122 83c-37 0 -108 -10 -193 -33l2 85c64 21 152 36 220 36z" />
    <glyph glyph-name="three.osf" horiz-adv-x="573" 
d="M550 476l-251 -235h14c123 -7 192 -66 192 -159c0 -138 -111 -241 -296 -241c-80 0 -168 18 -235 57l44 72c64 -32 133 -50 202 -50c113 0 196 60 196 147c0 62 -56 97 -154 97h-107l7 44l251 236h-313l14 89h446z" />
    <glyph glyph-name="four.osf" horiz-adv-x="650" 
d="M501 79h89l-14 -79h-90l-25 -147h-92l26 147h-402l11 62l485 471h92zM131 79h278l57 328z" />
    <glyph glyph-name="five.osf" horiz-adv-x="593" 
d="M192 274l110 -6c141 -8 221 -75 214 -184c-8 -142 -124 -242 -289 -242c-90 0 -167 18 -242 57l44 78c65 -31 130 -52 207 -52c100 0 181 56 189 145c7 67 -45 108 -149 113l-197 10l91 344h403l-16 -89h-317z" />
    <glyph glyph-name="six.osf" horiz-adv-x="606" 
d="M344 471c143 0 234 -83 225 -213c-8 -161 -142 -273 -309 -273c-143 0 -233 89 -224 221c4 72 35 128 79 174l262 300h111l-186 -211c14 1 28 2 42 2zM476 248c8 89 -51 147 -145 147c-111 0 -195 -74 -203 -178c-8 -91 51 -151 145 -151c107 0 195 74 203 182z" />
    <glyph glyph-name="seven.osf" horiz-adv-x="536" 
d="M558 479l-394 -622h-111l377 591h-365l15 89h488z" />
    <glyph glyph-name="eight.osf" horiz-adv-x="644" 
d="M471 355c83 -26 125 -82 119 -153c-8 -126 -137 -217 -312 -217c-155 0 -249 77 -241 185c5 85 65 151 177 185c-62 25 -92 74 -87 138c6 122 123 202 275 202c134 0 217 -67 211 -168c-6 -78 -50 -139 -142 -172zM224 497c-6 -67 42 -108 122 -108c93 0 161 51 167 129
c6 57 -42 100 -124 100c-91 0 -159 -51 -165 -121zM291 66c110 0 192 57 199 136c6 61 -53 114 -153 114c-109 0 -192 -61 -198 -130c-7 -72 52 -120 152 -120z" />
    <glyph glyph-name="nine.osf" horiz-adv-x="622" 
d="M366 552c143 0 232 -89 223 -221c-3 -75 -40 -127 -79 -174l-250 -300h-112l176 211c-14 -1 -28 -2 -43 -2c-143 0 -234 83 -225 213c9 161 142 273 310 273zM149 289c-8 -89 51 -147 145 -147c111 0 195 74 203 178c8 91 -51 151 -145 151c-107 0 -195 -74 -203 -182z
" />
    <glyph glyph-name="zero.osf.zero" horiz-adv-x="654" 
d="M383 545c140 0 234 -91 234 -227c0 -192 -148 -330 -332 -330c-140 0 -235 91 -235 228c0 191 149 329 333 329zM368 461c-122 0 -225 -98 -225 -231c0 -20 3 -38 8 -54l330 240c-27 28 -67 45 -113 45zM300 72c120 0 223 98 223 232c0 23 -4 44 -11 63l-333 -243
c28 -33 70 -52 121 -52z" />
    <glyph glyph-name="three.ss05" horiz-adv-x="588" 
d="M421 347c77 -18 116 -68 110 -144c-7 -135 -120 -218 -298 -218c-81 0 -161 21 -222 49l36 81c73 -29 133 -42 198 -42c110 0 183 52 191 128c7 68 -50 102 -146 102h-108l15 81h108c103 0 162 40 169 112c6 71 -46 111 -134 111c-65 0 -129 -13 -213 -42l-9 81
c71 28 158 49 240 49c139 0 223 -69 216 -175c-6 -95 -65 -150 -153 -173z" />
    <glyph glyph-name="zero.tf" horiz-adv-x="619" 
d="M387 695c141 0 227 -112 227 -282c0 -247 -155 -428 -353 -428c-141 0 -227 113 -227 282c0 248 155 428 353 428zM277 71c131 0 239 140 239 329c0 125 -55 209 -145 209c-132 0 -240 -140 -240 -329c0 -125 55 -209 146 -209z" />
    <glyph glyph-name="one.tf" horiz-adv-x="619" 
d="M526 0h-495l15 79h203l87 496l-186 -50l-8 75l280 80h28l-106 -601h196z" />
    <glyph glyph-name="two.tf" horiz-adv-x="619" 
d="M517 0h-491l11 63l280 228c90 73 156 123 156 208c0 68 -45 108 -126 108c-44 0 -120 -13 -202 -46l-9 81c69 32 159 53 231 53c137 0 208 -78 208 -177c0 -120 -98 -205 -215 -302l-165 -136h337z" />
    <glyph glyph-name="three.tf" horiz-adv-x="619" 
d="M613 622l-242 -237h13c115 0 183 -66 183 -158c0 -137 -115 -242 -302 -242c-80 0 -161 18 -228 56l47 75c62 -31 131 -49 199 -49c112 0 193 58 193 144c0 60 -57 95 -153 95h-108l8 45l248 240h-309l15 89h446z" />
    <glyph glyph-name="four.tf" horiz-adv-x="619" 
d="M516 206h89l-14 -79h-89l-23 -127h-92l23 127h-402l13 69l486 484h92zM145 206h279l62 343z" />
    <glyph glyph-name="five.tf" horiz-adv-x="619" 
d="M244 417l108 -6c135 -8 214 -70 214 -173c0 -147 -127 -253 -291 -253c-96 0 -172 18 -241 57l44 78c66 -31 131 -51 208 -51c104 0 189 60 189 153c0 62 -52 100 -151 105l-195 9l91 344h402l-16 -89h-315z" />
    <glyph glyph-name="six.tf" horiz-adv-x="619" 
d="M352 471c143 0 233 -83 225 -213c-9 -161 -143 -273 -310 -273c-143 0 -233 89 -224 221c4 72 35 128 80 174l262 300h116l-185 -211c12 1 24 2 36 2zM484 248c8 89 -52 147 -145 147c-111 0 -196 -74 -203 -178c-8 -91 51 -151 144 -151c108 0 196 74 204 182z" />
    <glyph glyph-name="seven.tf" horiz-adv-x="619" 
d="M627 622l-395 -622h-109l381 591h-371l15 89h488z" />
    <glyph glyph-name="eight.tf" horiz-adv-x="619" 
d="M467 355c83 -26 125 -82 119 -153c-7 -126 -137 -217 -312 -217c-155 0 -249 77 -241 185c5 85 65 151 177 185c-62 25 -92 74 -87 138c7 122 123 202 275 202c135 0 217 -67 211 -168c-5 -78 -49 -139 -142 -172zM221 497c-6 -67 41 -108 122 -108c92 0 161 51 167 129
c5 57 -43 100 -124 100c-91 0 -160 -51 -165 -121zM287 66c110 0 193 57 199 136c7 61 -52 114 -153 114c-109 0 -192 -61 -198 -130c-7 -72 52 -120 152 -120z" />
    <glyph glyph-name="nine.tf" horiz-adv-x="619" 
d="M405 695c143 0 232 -89 223 -221c-3 -75 -40 -127 -79 -174l-249 -300h-113l176 211c-14 -1 -28 -2 -43 -2c-143 0 -234 83 -225 213c9 161 143 273 310 273zM188 432c-8 -89 51 -147 145 -147c111 0 195 74 203 178c8 91 -51 151 -145 151c-107 0 -195 -74 -203 -182z
" />
    <glyph glyph-name="zero.zero" horiz-adv-x="744" 
d="M452 695c172 0 271 -124 257 -312c-13 -233 -174 -398 -382 -398c-172 0 -271 125 -258 312c14 233 175 398 383 398zM437 609c-144 0 -258 -126 -270 -301c-7 -59 1 -114 24 -150l354 417c-28 22 -65 34 -108 34zM580 535l-357 -421c29 -28 70 -43 119 -43
c142 0 257 126 269 301c8 66 -4 125 -31 163z" />
    <glyph glyph-name="fraction" unicode="&#x2044;" horiz-adv-x="471" 
d="M-36 0h-53l581 680h53z" />
    <glyph glyph-name="onehalf" unicode="&#xbd;" horiz-adv-x="874" 
d="M64 300l12 63h82l41 230l-88 -24l-4 64l158 47h20l-56 -317h94l-12 -63h-247zM756 680l-580 -680h-53l580 680h53zM631 62h168l-11 -62h-283l9 48l163 125c43 32 73 55 73 97c0 36 -25 51 -68 51c-25 0 -60 -5 -110 -21l-5 62c40 16 93 26 138 26c86 0 122 -47 122 -100
c0 -69 -54 -117 -126 -174z" />
    <glyph glyph-name="onequarter" unicode="&#xbc;" horiz-adv-x="847" 
d="M77 300l12 63h82l41 230l-88 -24l-4 64l158 47h20l-56 -317h94l-12 -63h-247zM776 680l-581 -680h-53l581 680h53zM793 144l-11 -61h-58l-14 -83h-71l14 83h-229l9 50l269 247h74l-41 -236h58zM692 299l-165 -155h138z" />
    <glyph glyph-name="threequarters" unicode="&#xbe;" horiz-adv-x="901" 
d="M404 637l-133 -117l8 -1c67 -4 105 -40 105 -89c0 -77 -59 -138 -174 -138c-52 0 -102 8 -142 32l36 56c35 -16 74 -26 112 -26c55 0 97 26 97 64c0 27 -22 42 -65 42h-85l6 34l132 122h-166l11 64h266zM222 0h-53l581 680h53zM770 144h58l-11 -61h-58l-15 -83h-70l14 83
h-229l9 50l269 247h74zM561 144h138l28 155z" />
    <glyph glyph-name="oneeighth" unicode="&#x215b;" horiz-adv-x="868" 
d="M75 300l12 63h82l41 230l-88 -24l-4 64l158 47h20l-56 -317h94l-12 -63h-247zM764 680l-581 -680h-53l581 680h53zM743 197c42 -15 60 -43 60 -77c0 -74 -75 -128 -176 -128c-86 0 -138 41 -138 98c0 46 27 85 95 107c-33 13 -48 37 -48 68c0 75 71 124 161 124
c74 0 122 -36 122 -92c0 -38 -14 -76 -76 -100zM666 223c49 0 79 28 79 64c0 29 -24 46 -59 46c-44 0 -77 -26 -77 -63c0 -32 22 -47 57 -47zM637 50c52 0 90 28 90 67c0 30 -26 52 -68 52c-50 0 -92 -28 -92 -67c0 -33 29 -52 70 -52z" />
    <glyph glyph-name="threeeighths" unicode="&#x215c;" horiz-adv-x="918" 
d="M406 637l-133 -117l8 -1c67 -4 105 -40 105 -89c0 -77 -59 -138 -174 -138c-52 0 -102 8 -142 32l36 56c35 -16 74 -26 112 -26c55 0 97 26 97 64c0 27 -22 42 -65 42h-85l6 34l132 122h-166l11 64h266zM216 0h-53l581 680h53zM786 197c42 -15 61 -43 61 -77
c0 -74 -75 -128 -177 -128c-86 0 -138 41 -138 98c0 46 27 85 95 107c-32 13 -48 37 -48 68c0 75 72 124 161 124c74 0 123 -36 123 -92c0 -38 -15 -76 -77 -100zM653 270c0 -32 22 -47 56 -47c49 0 80 28 80 64c0 29 -24 46 -60 46c-44 0 -76 -26 -76 -63zM680 50
c52 0 91 28 91 67c0 30 -27 52 -69 52c-50 0 -92 -28 -92 -67c0 -33 29 -52 70 -52z" />
    <glyph glyph-name="fiveeighths" unicode="&#x215d;" horiz-adv-x="927" 
d="M197 539l60 -2c81 -4 121 -38 121 -103c0 -79 -58 -143 -166 -143c-45 0 -110 9 -153 33l34 60c39 -17 81 -29 122 -29c59 0 95 28 95 67c0 32 -30 47 -72 49l-122 6l53 203h239l-12 -64h-178zM216 0h-53l581 680h53zM791 197c42 -15 60 -43 60 -77
c0 -74 -75 -128 -176 -128c-86 0 -138 41 -138 98c0 46 27 85 95 107c-33 13 -48 37 -48 68c0 75 71 124 161 124c74 0 122 -36 122 -92c0 -38 -14 -76 -76 -100zM657 270c0 -32 22 -47 57 -47c49 0 79 28 79 64c0 29 -24 46 -59 46c-44 0 -77 -26 -77 -63zM685 50
c52 0 90 28 90 67c0 30 -26 52 -68 52c-51 0 -92 -28 -92 -67c0 -33 29 -52 70 -52z" />
    <glyph glyph-name="seveneighths" unicode="&#x215e;" horiz-adv-x="860" 
d="M141 0h-53l581 680h53zM415 636l-215 -336h-80l204 312h-201l12 68h288zM731 197c43 -15 61 -43 61 -77c0 -74 -75 -128 -176 -128c-86 0 -138 41 -138 98c0 46 26 85 95 107c-33 13 -48 37 -48 68c0 75 71 124 161 124c74 0 122 -36 122 -92c0 -38 -14 -76 -77 -100z
M598 270c0 -32 22 -47 57 -47c49 0 79 28 79 64c0 29 -24 46 -59 46c-44 0 -77 -26 -77 -63zM626 50c52 0 90 28 90 67c0 30 -26 52 -68 52c-51 0 -92 -28 -92 -67c0 -33 29 -52 70 -52z" />
    <glyph glyph-name="zero.dnom" horiz-adv-x="441" 
d="M248 389c101 0 162 -66 162 -162c0 -137 -99 -235 -232 -235c-101 0 -163 66 -163 163c0 136 101 234 233 234zM189 57c82 0 148 67 148 159c0 64 -39 108 -101 108c-82 0 -147 -67 -147 -158c0 -65 38 -109 100 -109z" />
    <glyph glyph-name="one.dnom" horiz-adv-x="288" 
d="M250 63l-12 -63h-247l12 63h82l41 230l-88 -24l-4 64l158 47h20l-56 -317h94z" />
    <glyph glyph-name="two.dnom" horiz-adv-x="338" 
d="M272 0h-282l8 48l163 125c44 32 73 55 73 97c0 36 -25 51 -67 51c-25 0 -61 -5 -110 -21l-5 62c40 16 93 26 137 26c86 0 123 -47 123 -100c0 -69 -54 -117 -127 -174l-69 -52h167z" />
    <glyph glyph-name="three.dnom" horiz-adv-x="348" 
d="M317 337l-133 -117l8 -1c67 -4 105 -40 105 -89c0 -77 -59 -138 -174 -138c-52 0 -102 8 -142 32l36 56c35 -16 74 -26 112 -26c55 0 97 26 97 64c0 27 -22 42 -65 42h-85l6 34l132 122h-166l11 64h266z" />
    <glyph glyph-name="four.dnom" horiz-adv-x="396" 
d="M298 144h58l-11 -61h-58l-15 -83h-70l14 83h-229l9 50l269 247h74zM89 144h138l28 155z" />
    <glyph glyph-name="five.dnom" horiz-adv-x="364" 
d="M128 239l60 -2c81 -4 121 -38 121 -103c0 -79 -58 -143 -166 -143c-45 0 -110 9 -153 33l34 60c39 -17 81 -29 122 -29c59 0 95 28 95 67c0 32 -30 47 -72 49l-122 6l53 203h239l-12 -64h-178z" />
    <glyph glyph-name="six.dnom" horiz-adv-x="373" 
d="M189 282h5c86 0 141 -51 137 -129c-6 -97 -87 -165 -188 -165c-86 0 -140 54 -135 134c2 44 23 76 48 105l134 153h85zM259 145c4 46 -25 76 -74 76c-59 0 -101 -36 -105 -92c-5 -47 24 -79 74 -79c55 0 101 40 105 95z" />
    <glyph glyph-name="seven.dnom" horiz-adv-x="316" 
d="M319 336l-215 -336h-80l204 312h-201l12 68h288z" />
    <glyph glyph-name="eight.dnom" horiz-adv-x="360" 
d="M253 197c43 -15 61 -43 61 -77c0 -74 -75 -128 -176 -128c-87 0 -138 41 -138 98c0 46 26 85 95 107c-33 13 -48 37 -48 68c0 75 71 124 160 124c75 0 123 -36 123 -92c0 -38 -14 -76 -77 -100zM120 270c0 -32 22 -47 57 -47c48 0 79 28 79 64c0 29 -24 46 -59 46
c-45 0 -77 -26 -77 -63zM147 50c53 0 91 28 91 67c0 30 -27 52 -68 52c-51 0 -92 -28 -92 -67c0 -33 28 -52 69 -52z" />
    <glyph glyph-name="nine.dnom" horiz-adv-x="372" 
d="M214 393c86 0 140 -54 135 -134c-2 -38 -19 -70 -40 -97l-139 -161h-84l84 98h-7c-86 0 -141 50 -136 129c5 97 87 165 187 165zM99 236c-4 -46 25 -76 74 -76c58 0 101 39 105 92c4 47 -25 79 -74 79c-56 0 -101 -40 -105 -95z" />
    <glyph glyph-name="zero.numr" horiz-adv-x="441" 
d="M302 689c101 0 162 -66 162 -162c0 -137 -99 -235 -232 -235c-101 0 -163 66 -163 163c0 136 101 234 233 234zM243 357c82 0 148 67 148 159c0 64 -39 108 -101 108c-82 0 -147 -67 -147 -158c0 -65 38 -109 100 -109z" />
    <glyph glyph-name="one.numr" horiz-adv-x="288" 
d="M297 363l-12 -63h-247l12 63h82l41 230l-88 -24l-4 64l158 47h20l-56 -317h94z" />
    <glyph glyph-name="two.numr" horiz-adv-x="338" 
d="M322 300h-282l8 48l163 125c44 32 73 55 73 97c0 36 -25 51 -67 51c-25 0 -61 -5 -110 -21l-5 62c40 16 93 26 137 26c86 0 123 -47 123 -100c0 -69 -54 -117 -127 -174l-69 -52h167z" />
    <glyph glyph-name="three.numr" horiz-adv-x="348" 
d="M371 637l-133 -117l8 -1c67 -4 105 -40 105 -89c0 -77 -59 -138 -174 -138c-52 0 -102 8 -142 32l36 56c35 -16 74 -26 112 -26c55 0 97 26 97 64c0 27 -22 42 -65 42h-85l6 34l132 122h-166l11 64h266z" />
    <glyph glyph-name="four.numr" horiz-adv-x="396" 
d="M350 444h58l-11 -61h-58l-15 -83h-70l14 83h-229l9 50l269 247h74zM141 444h138l28 155z" />
    <glyph glyph-name="five.numr" horiz-adv-x="364" 
d="M179 539l60 -2c81 -4 121 -38 121 -103c0 -79 -58 -143 -166 -143c-45 0 -110 9 -153 33l34 60c39 -17 81 -29 122 -29c59 0 95 28 95 67c0 32 -30 47 -72 49l-122 6l53 203h239l-12 -64h-178z" />
    <glyph glyph-name="six.numr" horiz-adv-x="373" 
d="M243 582h5c86 0 141 -51 137 -129c-6 -97 -87 -165 -188 -165c-86 0 -140 54 -135 134c2 44 23 76 48 105l134 153h85zM313 445c4 46 -25 76 -74 76c-59 0 -101 -36 -105 -92c-5 -47 24 -79 74 -79c55 0 101 40 105 95z" />
    <glyph glyph-name="seven.numr" horiz-adv-x="316" 
d="M373 636l-215 -336h-80l204 312h-201l12 68h288z" />
    <glyph glyph-name="eight.numr" horiz-adv-x="360" 
d="M307 497c43 -15 61 -43 61 -77c0 -74 -75 -128 -176 -128c-87 0 -138 41 -138 98c0 46 26 85 95 107c-33 13 -48 37 -48 68c0 75 71 124 160 124c75 0 123 -36 123 -92c0 -38 -14 -76 -77 -100zM174 570c0 -32 22 -47 57 -47c48 0 79 28 79 64c0 29 -24 46 -59 46
c-45 0 -77 -26 -77 -63zM201 350c53 0 91 28 91 67c0 30 -27 52 -68 52c-51 0 -92 -28 -92 -67c0 -33 28 -52 69 -52z" />
    <glyph glyph-name="nine.numr" horiz-adv-x="372" 
d="M264 693c86 0 140 -54 135 -134c-2 -38 -19 -70 -40 -97l-139 -161h-84l84 98h-7c-86 0 -141 50 -136 129c5 97 87 165 187 165zM149 536c-4 -46 25 -76 74 -76c58 0 101 39 105 92c4 47 -25 79 -74 79c-56 0 -101 -40 -105 -95z" />
    <glyph glyph-name="zerosuperior" unicode="&#x2070;" horiz-adv-x="441" 
d="M302 689c101 0 162 -66 162 -162c0 -137 -99 -235 -232 -235c-101 0 -163 66 -163 163c0 136 101 234 233 234zM243 357c82 0 148 67 148 159c0 64 -39 108 -101 108c-82 0 -147 -67 -147 -158c0 -65 38 -109 100 -109z" />
    <glyph glyph-name="onesuperior" unicode="&#xb9;" horiz-adv-x="288" 
d="M297 363l-12 -63h-247l12 63h82l41 230l-88 -24l-4 64l158 47h20l-56 -317h94z" />
    <glyph glyph-name="twosuperior" unicode="&#xb2;" horiz-adv-x="338" 
d="M322 300h-282l8 48l163 125c44 32 73 55 73 97c0 36 -25 51 -67 51c-25 0 -61 -5 -110 -21l-5 62c40 16 93 26 137 26c86 0 123 -47 123 -100c0 -69 -54 -117 -127 -174l-69 -52h167z" />
    <glyph glyph-name="threesuperior" unicode="&#xb3;" horiz-adv-x="348" 
d="M371 637l-133 -117l8 -1c67 -4 105 -40 105 -89c0 -77 -59 -138 -174 -138c-52 0 -102 8 -142 32l36 56c35 -16 74 -26 112 -26c55 0 97 26 97 64c0 27 -22 42 -65 42h-85l6 34l132 122h-166l11 64h266z" />
    <glyph glyph-name="foursuperior" unicode="&#x2074;" horiz-adv-x="396" 
d="M357 444h58l-11 -61h-58l-15 -83h-70l14 83h-229l9 50l269 247h74zM148 444h138l28 155z" />
    <glyph glyph-name="fivesuperior" unicode="&#x2075;" horiz-adv-x="364" 
d="M180 539l60 -2c81 -4 121 -38 121 -103c0 -79 -58 -143 -166 -143c-45 0 -110 9 -153 33l34 60c39 -17 81 -29 122 -29c59 0 95 28 95 67c0 32 -30 47 -72 49l-122 6l53 203h239l-12 -64h-178z" />
    <glyph glyph-name="sixsuperior" unicode="&#x2076;" horiz-adv-x="373" 
d="M239 582h5c86 0 141 -51 137 -129c-6 -97 -87 -165 -188 -165c-86 0 -140 54 -135 134c2 44 23 76 48 105l134 153h85zM309 445c4 46 -25 76 -74 76c-59 0 -101 -36 -105 -92c-5 -47 24 -79 74 -79c55 0 101 40 105 95z" />
    <glyph glyph-name="sevensuperior" unicode="&#x2077;" horiz-adv-x="316" 
d="M373 636l-215 -336h-80l204 312h-201l12 68h288z" />
    <glyph glyph-name="eightsuperior" unicode="&#x2078;" horiz-adv-x="360" 
d="M305 497c43 -15 61 -43 61 -77c0 -74 -75 -128 -176 -128c-87 0 -138 41 -138 98c0 46 26 85 95 107c-33 13 -48 37 -48 68c0 75 71 124 160 124c75 0 123 -36 123 -92c0 -38 -14 -76 -77 -100zM172 570c0 -32 22 -47 57 -47c48 0 79 28 79 64c0 29 -24 46 -59 46
c-45 0 -77 -26 -77 -63zM199 350c53 0 91 28 91 67c0 30 -27 52 -68 52c-51 0 -92 -28 -92 -67c0 -33 28 -52 69 -52z" />
    <glyph glyph-name="ninesuperior" unicode="&#x2079;" horiz-adv-x="372" 
d="M268 695c86 0 140 -54 135 -134c-2 -38 -19 -70 -40 -97l-139 -161h-84l84 98h-7c-86 0 -141 50 -136 129c5 97 87 165 187 165zM153 538c-4 -46 25 -76 74 -76c58 0 101 39 105 92c4 47 -25 79 -74 79c-56 0 -101 -40 -105 -95z" />
    <glyph glyph-name="zeroinferior" unicode="&#x2080;" horiz-adv-x="441" 
d="M218 209c101 0 162 -66 162 -162c0 -137 -99 -235 -232 -235c-101 0 -163 65 -163 163c0 136 101 234 233 234zM159 -123c82 0 148 67 148 159c0 64 -39 108 -101 108c-82 0 -147 -67 -147 -158c0 -65 38 -109 100 -109z" />
    <glyph glyph-name="oneinferior" unicode="&#x2081;" horiz-adv-x="288" 
d="M220 -117l-12 -63h-247l12 63h82l41 230l-88 -24l-4 64l158 47h20l-56 -317h94z" />
    <glyph glyph-name="twoinferior" unicode="&#x2082;" horiz-adv-x="338" 
d="M242 -180h-282l8 48l163 125c44 32 73 55 73 97c0 36 -25 51 -67 51c-25 0 -61 -5 -110 -21l-5 62c40 16 93 26 137 26c86 0 123 -47 123 -100c0 -69 -54 -118 -127 -174l-69 -52h167z" />
    <glyph glyph-name="threeinferior" unicode="&#x2083;" horiz-adv-x="348" 
d="M287 157l-133 -117l8 -1c67 -4 105 -40 105 -89c0 -77 -59 -138 -174 -138c-52 0 -102 8 -142 32l36 56c35 -16 74 -26 112 -26c55 0 97 26 97 64c0 27 -22 42 -65 42h-85l6 34l132 122h-166l11 64h266z" />
    <glyph glyph-name="fourinferior" unicode="&#x2084;" horiz-adv-x="396" 
d="M275 -36h58l-11 -61h-58l-15 -83h-70l14 83h-229l9 50l269 247h74zM66 -36h138l28 155z" />
    <glyph glyph-name="fiveinferior" unicode="&#x2085;" horiz-adv-x="364" 
d="M100 59l60 -2c81 -4 121 -38 121 -103c0 -79 -58 -143 -166 -143c-45 0 -110 9 -153 33l34 60c39 -17 81 -29 122 -29c59 0 95 28 95 67c0 32 -30 47 -72 49l-122 6l53 203h239l-12 -64h-178z" />
    <glyph glyph-name="sixinferior" unicode="&#x2086;" horiz-adv-x="373" 
d="M159 102h5c86 0 141 -51 137 -129c-6 -97 -87 -165 -188 -165c-86 0 -140 54 -135 134c2 44 23 76 48 105l134 153h85zM229 -35c4 46 -25 76 -74 76c-59 0 -101 -36 -105 -92c-5 -47 24 -79 74 -79c55 0 101 40 105 95z" />
    <glyph glyph-name="seveninferior" unicode="&#x2087;" horiz-adv-x="316" 
d="M289 156l-215 -336h-80l204 312h-201l12 68h288z" />
    <glyph glyph-name="eightinferior" unicode="&#x2088;" horiz-adv-x="360" 
d="M223 17c43 -15 61 -43 61 -77c0 -74 -75 -128 -176 -128c-87 0 -138 41 -138 98c0 46 26 85 95 107c-33 13 -48 37 -48 68c0 75 71 124 160 124c75 0 123 -36 123 -92c0 -38 -14 -76 -77 -100zM90 90c0 -32 22 -47 57 -47c48 0 79 28 79 64c0 29 -24 46 -59 46
c-45 0 -77 -26 -77 -63zM117 -130c53 0 91 28 91 67c0 30 -27 52 -68 52c-51 0 -92 -28 -92 -67c0 -33 28 -52 69 -52z" />
    <glyph glyph-name="nineinferior" unicode="&#x2089;" horiz-adv-x="372" 
d="M184 213c86 0 140 -54 135 -134c-2 -38 -19 -70 -40 -97l-139 -161h-84l84 98h-7c-86 0 -141 50 -136 129c5 97 87 165 187 165zM69 56c-4 -46 25 -76 74 -76c58 0 101 39 105 92c4 47 -25 79 -74 79c-56 0 -101 -40 -105 -95z" />
    <glyph glyph-name="braceleft" unicode="{" horiz-adv-x="364" 
d="M291 577l-35 -197c-12 -70 -30 -104 -96 -125c54 -17 64 -57 51 -127l-34 -197c-13 -73 7 -91 82 -91l-16 -83c-128 0 -177 64 -156 185l34 190c12 73 -8 85 -83 85l16 81c67 0 99 19 112 92l34 190c21 121 86 178 221 178l-17 -83c-67 0 -100 -25 -113 -98z" />
    <glyph glyph-name="braceright" unicode="}" horiz-adv-x="364" 
d="M82 -62l35 197c12 70 30 104 95 125c-53 17 -63 57 -51 128l35 196c13 73 -7 91 -82 91l16 83c128 0 177 -64 155 -185l-33 -190c-13 -73 8 -85 83 -85l-16 -81c-67 0 -100 -19 -113 -92l-33 -190c-22 -121 -86 -178 -221 -178l16 83c68 0 101 26 114 98z" />
    <glyph glyph-name="bracketleft" unicode="[" horiz-adv-x="343" 
d="M96 -141h141l-16 -88h-233l173 982h233l-15 -88h-141z" />
    <glyph glyph-name="bracketright" unicode="]" horiz-adv-x="350" 
d="M257 665h-141l15 88h233l-173 -982h-233l16 88h141z" />
    <glyph glyph-name="parenleft" unicode="(" horiz-adv-x="335" 
d="M321 764l57 -37c-107 -138 -190 -254 -226 -458c-35 -195 0 -340 57 -466l-70 -36c-76 140 -104 323 -70 514c34 189 121 342 252 483z" />
    <glyph glyph-name="parenright" unicode=")" horiz-adv-x="330" 
d="M25 -234l-57 37c107 138 190 254 226 458c35 195 0 340 -57 466l70 36c77 -140 104 -323 70 -514c-34 -189 -121 -342 -252 -483z" />
    <glyph glyph-name="braceleft.case" horiz-adv-x="377" 
d="M291 577l-20 -114c-14 -76 -31 -111 -97 -131c53 -18 63 -58 50 -134l-20 -114c-13 -73 7 -91 81 -91l-15 -83c-128 0 -177 64 -156 185l20 114c13 72 -8 84 -83 84l16 82c67 0 100 19 113 92l20 113c21 121 86 178 220 178l-16 -83c-67 0 -100 -25 -113 -98z" />
    <glyph glyph-name="braceright.case" horiz-adv-x="376" 
d="M121 91l20 114c14 77 31 111 97 131c-53 18 -63 58 -50 134l20 114c13 73 -7 91 -81 91l15 83c128 0 177 -64 156 -185l-20 -114c-12 -72 8 -84 83 -84l-16 -82c-67 0 -99 -19 -113 -92l-19 -113c-22 -121 -86 -178 -221 -178l16 83c67 0 101 25 113 98z" />
    <glyph glyph-name="bracketleft.case" horiz-adv-x="343" 
d="M122 12h141l-15 -88h-233l146 829h233l-15 -88h-141z" />
    <glyph glyph-name="bracketright.case" horiz-adv-x="350" 
d="M257 665h-141l15 88h233l-145 -829h-234l16 88h141z" />
    <glyph glyph-name="parenleft.case" horiz-adv-x="327" 
d="M301 764l57 -37c-90 -109 -168 -231 -198 -394c-23 -126 -2 -262 56 -377l-73 -36c-76 147 -94 273 -67 425c27 149 88 279 225 419z" />
    <glyph glyph-name="parenright.case" horiz-adv-x="318" 
d="M55 -80l-57 37c90 109 168 231 198 394c23 125 3 262 -55 377l72 36c76 -147 94 -273 67 -425c-26 -149 -88 -279 -225 -419z" />
    <glyph glyph-name="emdash" unicode="&#x2014;" horiz-adv-x="961" 
d="M879 222l16 92h-801l-16 -92h801z" />
    <glyph glyph-name="endash" unicode="&#x2013;" horiz-adv-x="657" 
d="M575 222l16 92h-497l-16 -92h497z" />
    <glyph glyph-name="hyphen" unicode="-" horiz-adv-x="528" 
d="M415 221l16 92h-306l-17 -92h307z" />
    <glyph glyph-name="emdash.case" horiz-adv-x="961" 
d="M879 298l16 92h-801l-16 -92h801z" />
    <glyph glyph-name="endash.case" horiz-adv-x="657" 
d="M575 298l16 92h-497l-16 -92h497z" />
    <glyph glyph-name="hyphen.case" horiz-adv-x="467" 
d="M383 298l16 91h-306l-16 -91h306z" />
    <glyph glyph-name="guillemotleft" unicode="&#xab;" horiz-adv-x="564" 
d="M259 93l-57 -48l-153 202l219 199l45 -48l-171 -154zM468 93l-58 -48l-152 202l219 199l45 -48l-171 -154z" />
    <glyph glyph-name="guillemotright" unicode="&#xbb;" horiz-adv-x="564" 
d="M93 399l57 47l153 -202l-219 -199l-46 48l171 154zM302 399l57 47l153 -202l-220 -199l-45 48l171 154z" />
    <glyph glyph-name="guilsinglleft" unicode="&#x2039;" horiz-adv-x="356" 
d="M259 93l-57 -48l-153 202l220 199l45 -48l-171 -154z" />
    <glyph glyph-name="guilsinglright" unicode="&#x203a;" horiz-adv-x="355" 
d="M96 399l58 47l152 -202l-219 -199l-45 48l171 154z" />
    <glyph glyph-name="quotedblbase" unicode="&#x201e;" horiz-adv-x="475" 
d="M28 -139l55 135c-29 11 -43 31 -43 57c0 37 31 67 69 67c39 0 70 -30 70 -67c0 -29 -6 -37 -83 -192h-68zM216 -139l55 135c-29 11 -43 31 -43 57c0 37 31 67 69 67c39 0 70 -30 70 -67c0 -29 -6 -37 -83 -192h-68z" />
    <glyph glyph-name="quotedblleft" unicode="&#x201c;" horiz-adv-x="474" 
d="M283 766l-55 -135c29 -11 43 -31 43 -57c0 -38 -31 -67 -69 -67c-39 0 -70 29 -70 67c0 29 7 37 84 192h67zM470 766l-55 -135c29 -11 43 -31 43 -57c0 -38 -31 -67 -69 -67c-39 0 -70 29 -70 67c0 29 6 37 83 192h68z" />
    <glyph glyph-name="quotedblright" unicode="&#x201d;" horiz-adv-x="473" 
d="M224 773c39 0 70 -29 70 -66c0 -29 -6 -37 -84 -193h-67l55 135c-29 11 -43 32 -43 58c0 37 31 66 69 66zM411 773c38 0 70 -29 70 -66c0 -29 -7 -37 -84 -193h-68l56 135c-29 11 -44 32 -44 58c0 37 32 66 70 66z" />
    <glyph glyph-name="quoteleft" unicode="&#x2018;" horiz-adv-x="287" 
d="M283 766l-55 -135c29 -11 43 -31 43 -57c0 -37 -31 -67 -69 -67c-39 0 -70 30 -70 67c0 29 7 37 84 192h67z" />
    <glyph glyph-name="quoteright" unicode="&#x2019;" horiz-adv-x="287" 
d="M142 509l55 136c-29 11 -43 31 -43 57c0 37 32 67 70 67s70 -30 70 -67c0 -29 -7 -37 -84 -193h-68z" />
    <glyph glyph-name="quotesinglbase" unicode="&#x201a;" horiz-adv-x="287" 
d="M28 -139l55 135c-29 11 -43 31 -43 57c0 37 31 67 69 67c39 0 70 -30 70 -67c0 -29 -6 -37 -83 -192h-68z" />
    <glyph glyph-name="guillemotleft.case" horiz-adv-x="564" 
d="M259 176l-57 -47l-153 202l220 199l45 -48l-171 -154zM468 176l-58 -47l-152 202l219 199l45 -48l-171 -154z" />
    <glyph glyph-name="guillemotright.case" horiz-adv-x="564" 
d="M93 482l57 48l153 -202l-219 -199l-46 48l171 154zM302 482l57 48l153 -202l-220 -199l-45 48l171 154z" />
    <glyph glyph-name="guilsinglleft.case" horiz-adv-x="355" 
d="M259 176l-57 -47l-153 202l220 199l45 -48l-171 -154z" />
    <glyph glyph-name="guilsinglright.case" horiz-adv-x="355" 
d="M96 482l58 48l152 -202l-219 -199l-45 48l171 154z" />
    <glyph glyph-name="asterisk" unicode="*" horiz-adv-x="394" 
d="M388 441l-33 -40l-89 77l-19 -106l-54 9l19 107l-110 -42l-19 49l113 44l-91 79l34 42l89 -78l19 105l54 -10l-19 -104l110 42l18 -51l-112 -43z" />
    <glyph glyph-name="backslash" unicode="\" horiz-adv-x="495" 
d="M202 768l209 -1040h-94l-209 1040h94z" />
    <glyph glyph-name="bullet" unicode="&#x2022;" horiz-adv-x="332" 
d="M177 175c-70 0 -123 53 -123 122s53 122 123 122s123 -53 123 -122s-53 -122 -123 -122z" />
    <glyph glyph-name="colon" unicode=":" horiz-adv-x="293" 
d="M180 347c-39 0 -70 29 -70 67s31 67 70 67c38 0 69 -29 69 -67s-31 -67 -69 -67zM112 -15c-38 0 -69 29 -69 67s31 68 69 68c39 0 70 -30 70 -68s-31 -67 -70 -67z" />
    <glyph glyph-name="comma" unicode="," horiz-adv-x="287" 
d="M28 -139l55 135c-29 11 -43 31 -43 57c0 37 31 67 69 67c39 0 70 -30 70 -67c0 -29 -6 -37 -84 -192h-67z" />
    <glyph glyph-name="ellipsis" unicode="&#x2026;" horiz-adv-x="748" 
d="M112 -15c-38 0 -69 29 -69 67s31 68 69 68c39 0 70 -30 70 -68s-31 -67 -70 -67zM339 -15c-38 0 -69 29 -69 67s31 68 69 68c39 0 70 -30 70 -68s-31 -67 -70 -67zM571 -15c-38 0 -69 29 -69 67s31 68 69 68c39 0 70 -30 70 -68s-31 -67 -70 -67z" />
    <glyph glyph-name="exclam" unicode="!" horiz-adv-x="244" 
d="M251 680l-92 -496h-92l82 496h102zM92 -15c-35 0 -63 27 -63 62s28 62 63 62c36 0 64 -27 64 -62s-28 -62 -64 -62z" />
    <glyph glyph-name="exclamdown" unicode="&#xa1;" horiz-adv-x="271" 
d="M163 486c35 0 63 -27 63 -63c0 -34 -28 -61 -63 -61c-36 0 -64 27 -64 61c0 36 28 63 64 63zM4 -210l92 496h92l-82 -496h-102z" />
    <glyph glyph-name="numbersign" unicode="#" horiz-adv-x="749" 
d="M543 268h120l-15 -82h-145l-92 -186h-96l91 186h-178l-92 -186h-96l91 186h-102l14 82h128l66 134h-115l14 82h141l96 197h96l-96 -197h179l96 197h96l-96 -197h108l-15 -82h-133zM333 402l-65 -134h178l65 134h-178z" />
    <glyph glyph-name="period" unicode="." horiz-adv-x="290" 
d="M112 -15c-38 0 -69 29 -69 67s31 68 69 68c39 0 70 -30 70 -68s-31 -67 -70 -67z" />
    <glyph glyph-name="periodcentered" unicode="&#xb7;" horiz-adv-x="289" 
d="M149 193c-38 0 -69 29 -69 67s31 67 69 67c39 0 70 -29 70 -67s-31 -67 -70 -67z" />
    <glyph glyph-name="question" unicode="?" horiz-adv-x="497" 
d="M298 695c126 0 206 -69 206 -178c0 -136 -115 -244 -260 -244h-19l-19 -89h-86l27 167h92c101 0 174 69 174 156c0 65 -48 106 -128 106c-52 0 -110 -7 -169 -17l-1 77c59 13 121 22 183 22zM146 109c35 0 64 -27 64 -62s-29 -62 -64 -62s-64 27 -64 62s29 62 64 62z" />
    <glyph glyph-name="questiondown" unicode="&#xbf;" horiz-adv-x="508" 
d="M366 393c-36 0 -64 26 -64 61c0 36 28 62 64 62c35 0 63 -26 63 -62c0 -35 -28 -61 -63 -61zM214 -194c-126 0 -206 69 -206 178c0 136 115 244 260 244h19l19 89h86l-27 -167h-92c-101 0 -174 -68 -174 -156c0 -65 48 -106 127 -106c53 0 110 7 170 18l1 -78
c-59 -13 -122 -22 -183 -22z" />
    <glyph glyph-name="quotedbl" unicode="&#x22;" horiz-adv-x="376" 
d="M261 764l-62 -241h-83l43 241h102zM413 764l-62 -241h-83l43 241h102z" />
    <glyph glyph-name="quotesingle" unicode="'" horiz-adv-x="224" 
d="M261 764l-62 -241h-83l43 241h102z" />
    <glyph glyph-name="semicolon" unicode=";" horiz-adv-x="300" 
d="M186 347c-38 0 -69 29 -69 67s31 67 69 67c39 0 70 -29 70 -67s-31 -67 -70 -67zM28 -139l55 135c-29 11 -43 31 -43 57c0 37 31 67 69 67c39 0 70 -30 70 -67c0 -29 -6 -37 -83 -192h-68z" />
    <glyph glyph-name="slash" unicode="/" horiz-adv-x="495" 
d="M30 -272h-96l515 1040h97z" />
    <glyph glyph-name="underscore" unicode="_" horiz-adv-x="642" 
d="M-24 -114h568l-14 -81h-568z" />
    <glyph glyph-name="backslash.case" horiz-adv-x="461" 
d="M202 768l186 -868h-94l-186 868h94z" />
    <glyph glyph-name="bullet.case" horiz-adv-x="332" 
d="M185 219c-70 0 -123 52 -123 122c0 69 53 122 123 122s123 -53 123 -122c0 -70 -53 -122 -123 -122z" />
    <glyph glyph-name="exclamdown.case" horiz-adv-x="271" 
d="M197 695c35 0 63 -27 63 -62s-28 -62 -63 -62c-36 0 -64 27 -64 62s28 62 64 62zM38 0l92 496h92l-82 -496h-102z" />
    <glyph glyph-name="periodcentered.case" horiz-adv-x="289" 
d="M164 276c-38 0 -70 29 -70 67c0 39 32 68 70 68s70 -29 70 -68c0 -38 -32 -67 -70 -67z" />
    <glyph glyph-name="questiondown.case" horiz-adv-x="508" 
d="M399 571c-35 0 -64 27 -64 62s29 62 64 62s64 -27 64 -62s-29 -62 -64 -62zM247 -15c-126 0 -206 69 -206 178c0 136 115 244 260 244h19l19 89h86l-27 -167h-92c-101 0 -174 -69 -174 -156c0 -65 48 -106 128 -106c52 0 110 7 169 18l1 -78c-59 -13 -121 -22 -183 -22z
" />
    <glyph glyph-name="slash.case" horiz-adv-x="459" 
d="M81 -97h-96l429 865h96z" />
    <glyph glyph-name="space" unicode=" " horiz-adv-x="224" 
 />
    <glyph glyph-name="uni2009" unicode="&#x2009;" horiz-adv-x="161" 
 />
    <glyph glyph-name="florin" unicode="&#x192;" horiz-adv-x="548" 
d="M510 695c34 0 62 -7 91 -15l-28 -75c-27 4 -47 7 -74 7c-59 0 -87 -34 -112 -114l-27 -87h179l-14 -83h-191l-46 -149c-41 -129 -101 -194 -214 -194c-34 0 -62 7 -91 15l28 75c27 -4 47 -7 74 -7c59 0 87 34 111 114l46 146h-123l14 83h135l28 90
c41 129 101 194 214 194z" />
    <glyph glyph-name="florin.tf" horiz-adv-x="619" 
d="M540 612c-59 0 -87 -34 -111 -114l-27 -87h178l-14 -83h-190l-47 -149c-41 -129 -101 -194 -214 -194c-33 0 -62 7 -91 15l28 75c27 -4 47 -7 75 -7c58 0 86 34 111 114l46 146h-124l15 83h135l28 90c40 129 100 194 214 194c33 0 61 -7 90 -15l-28 -75
c-26 4 -47 7 -74 7z" />
    <glyph glyph-name="cent" unicode="&#xa2;" horiz-adv-x="502" 
d="M434 101v-76c-43 -14 -93 -24 -137 -27l-21 -120h-83l21 121c-109 14 -177 92 -177 204c0 155 112 268 264 287l22 122h83l-21 -120c41 -3 86 -13 122 -26l-27 -75c-51 13 -106 21 -143 21c-115 0 -205 -80 -205 -196c0 -83 56 -139 144 -139c38 0 100 10 158 24z" />
    <glyph glyph-name="dollar" unicode="$" horiz-adv-x="670" 
d="M394 604c-98 0 -164 -45 -164 -119c0 -57 51 -71 154 -94c129 -30 217 -58 217 -173c0 -144 -110 -224 -272 -232l-23 -125h-83l23 126c-72 6 -151 25 -220 55l39 89c88 -39 179 -57 255 -57c105 0 181 44 181 122c0 82 -100 93 -194 114c-124 28 -180 65 -180 154
c0 124 98 210 243 225l21 121h83l-22 -120c76 -5 155 -22 205 -42l-39 -84c-75 24 -160 40 -224 40z" />
    <glyph glyph-name="Euro" unicode="&#x20ac;" horiz-adv-x="754" 
d="M559 695c70 0 156 -15 224 -40l-33 -84c-71 18 -146 29 -195 29c-123 0 -220 -62 -271 -161h288l-29 -67h-287c-3 -11 -6 -23 -8 -35c-2 -14 -4 -32 -4 -48h264l-28 -67h-227c19 -90 90 -145 199 -145c51 0 135 12 225 34l4 -83c-88 -27 -182 -43 -250 -43
c-169 0 -274 91 -290 237h-84l12 67h70c1 16 3 33 6 47c2 12 5 25 8 36h-70l12 67h79c64 157 206 256 385 256z" />
    <glyph glyph-name="sterling" unicode="&#xa3;" horiz-adv-x="610" 
d="M532 0h-531l15 80h69l34 200h-69l15 80h69l22 126c22 126 132 209 276 209c62 0 121 -9 175 -22l-28 -77c-55 10 -111 17 -164 17c-88 0 -152 -56 -167 -132l-22 -121h222l-15 -80h-221l-35 -200h369z" />
    <glyph glyph-name="yen" unicode="&#xa5;" horiz-adv-x="691" 
d="M617 290l-12 -68h-213l-13 -72h213l-12 -69h-213l-15 -81h-96l14 81h-208l12 69h208l13 72h-208l11 68h175l-181 390h108l162 -344l285 344h108l-317 -390h179z" />
    <glyph glyph-name="cent.tf" horiz-adv-x="619" 
d="M480 101v-76c-44 -14 -94 -24 -137 -27l-21 -120h-83l21 121c-110 14 -178 92 -178 204c0 155 113 268 264 287l22 122h84l-22 -120c41 -3 87 -13 122 -26l-26 -75c-51 13 -106 21 -143 21c-115 0 -206 -80 -206 -196c0 -83 57 -139 145 -139c38 0 99 10 158 24z" />
    <glyph glyph-name="dollar.tf" horiz-adv-x="619" 
d="M370 604c-98 0 -164 -45 -164 -119c0 -57 51 -71 154 -94c129 -30 217 -58 217 -173c0 -144 -110 -224 -272 -232l-23 -125h-83l23 126c-72 6 -151 25 -220 55l39 89c88 -39 179 -57 255 -57c105 0 181 44 181 122c0 82 -100 93 -194 114c-124 28 -180 65 -180 154
c0 124 98 210 243 225l21 121h83l-22 -120c76 -5 155 -22 205 -42l-39 -84c-75 24 -160 40 -224 40z" />
    <glyph glyph-name="Euro.tf" horiz-adv-x="619" 
d="M460 592c-116 0 -201 -63 -242 -160h287l-28 -66h-280c-6 -26 -9 -53 -9 -81h258l-28 -67h-224c18 -87 76 -140 173 -140c43 0 102 6 188 27l-3 -87c-70 -23 -143 -33 -201 -33c-154 0 -245 92 -262 233h-69l12 67h54c1 28 4 55 10 81h-50l12 66h56
c55 151 186 252 362 252c57 0 127 -8 184 -29l-26 -87c-76 18 -131 24 -174 24z" />
    <glyph glyph-name="sterling.tf" horiz-adv-x="619" 
d="M538 0h-531l15 80h69l34 200h-69l15 80h69l22 126c22 126 132 209 276 209c62 0 121 -9 175 -22l-28 -77c-55 10 -111 17 -164 17c-88 0 -152 -56 -167 -132l-22 -121h222l-15 -80h-221l-35 -200h369z" />
    <glyph glyph-name="yen.tf" horiz-adv-x="619" 
d="M575 288l-12 -69h-207l-12 -69h207l-12 -69h-208l-14 -81h-97l15 81h-202l12 69h202l12 69h-202l12 69h175l-145 392h108l123 -332l239 332h108l-283 -392h181z" />
    <glyph glyph-name="asciitilde" unicode="~" horiz-adv-x="452" 
d="M359 400h81c-21 -123 -132 -147 -188 -109l-53 39c-32 23 -67 1 -73 -35h-81c21 122 133 146 189 109l53 -39c33 -23 66 -2 72 35z" />
    <glyph glyph-name="divide" unicode="&#xf7;" horiz-adv-x="689" 
d="M401 460c-32 0 -57 24 -57 55c0 32 25 56 57 56s58 -24 58 -56c0 -31 -26 -55 -58 -55zM135 369h467l-15 -85h-467zM301 85c-32 0 -57 24 -57 55c0 32 25 56 57 56s58 -24 58 -56c0 -31 -26 -55 -58 -55z" />
    <glyph glyph-name="equal" unicode="=" horiz-adv-x="703" 
d="M619 380h-482l15 86h482zM584 184h-482l15 85h482z" />
    <glyph glyph-name="greater" unicode="&#x3e;" horiz-adv-x="549" 
d="M515 350l-17 -93l-454 -197l15 94l346 150l-292 150l15 93z" />
    <glyph glyph-name="less" unicode="&#x3c;" horiz-adv-x="548" 
d="M58 257l17 93l455 197l-15 -94l-347 -150l292 -151l-15 -92z" />
    <glyph glyph-name="minus" unicode="&#x2212;" horiz-adv-x="689" 
d="M135 369h467l-15 -85h-467z" />
    <glyph glyph-name="multiply" unicode="&#xd7;" horiz-adv-x="671" 
d="M536 168l-70 -60l-124 152l-179 -152l-52 61l179 152l-125 151l69 60l125 -150l178 151l52 -61l-178 -152z" />
    <glyph glyph-name="percent" unicode="%" horiz-adv-x="1086" 
d="M360 695c95 0 160 -64 160 -159c0 -132 -105 -224 -227 -224c-95 0 -160 63 -160 159c0 131 105 224 227 224zM293 0h-53l580 680h53zM305 379c75 0 143 61 143 146c0 62 -40 103 -99 103c-76 0 -144 -60 -144 -146c0 -62 41 -103 100 -103zM831 368
c96 0 160 -63 160 -159c0 -132 -105 -224 -228 -224c-94 0 -159 63 -159 160c0 131 105 223 227 223zM775 53c76 0 144 60 144 145c0 62 -41 103 -100 103c-75 0 -143 -60 -143 -145c0 -62 40 -103 99 -103z" />
    <glyph glyph-name="perthousand" unicode="&#x2030;" horiz-adv-x="1516" 
d="M360 695c96 0 161 -64 161 -159c0 -132 -106 -224 -229 -224c-95 0 -159 63 -159 159c0 131 105 224 227 224zM293 0h-53l581 680h53zM347 628c-75 0 -143 -60 -143 -146c0 -62 41 -103 100 -103c76 0 143 61 143 146c0 62 -40 103 -100 103zM825 368
c95 0 160 -63 160 -159c0 -132 -105 -224 -228 -224c-94 0 -159 63 -159 160c0 131 105 223 227 223zM1261 368c95 0 160 -63 160 -159c0 -132 -106 -224 -228 -224c-95 0 -160 63 -160 160c0 131 105 223 228 223zM813 301c-75 0 -143 -60 -143 -145c0 -62 40 -103 99 -103
c75 0 144 60 144 145c0 62 -41 103 -100 103zM1250 301c-76 0 -144 -60 -144 -145c0 -62 41 -103 100 -103c75 0 143 60 143 145c0 62 -40 103 -99 103z" />
    <glyph glyph-name="plus" unicode="+" horiz-adv-x="689" 
d="M398 284l-34 -191h-88l34 191h-190l15 85h190l33 192h89l-34 -192h189l-15 -85h-189z" />
    <glyph glyph-name="plusminus" unicode="&#xb1;" horiz-adv-x="689" 
d="M594 323h-191l-26 -148h-88l26 148h-189l15 85h189l26 149h88l-26 -149h191zM559 126l-14 -86h-468l14 86h468z" />
    <glyph glyph-name="arrowdown" unicode="&#x2193;" horiz-adv-x="776" 
d="M428 150l251 241l57 -63l-351 -332l-345 327l57 63l245 -236v530h86v-530z" />
    <glyph glyph-name="arrowdownleft" unicode="&#x2199;" horiz-adv-x="800" 
d="M219 84h341v-84h-485v475h85v-330l540 537l56 -56z" />
    <glyph glyph-name="arrowdownright" unicode="&#x2198;" horiz-adv-x="800" 
d="M100 682l540 -537v330h85v-475h-485v84h341l-537 542z" />
    <glyph glyph-name="arrowleft" unicode="&#x2190;" horiz-adv-x="756" 
d="M198 299l242 -251l-63 -57l-332 351l327 345l63 -57l-236 -245h530v-86h-531z" />
    <glyph glyph-name="arrowright" unicode="&#x2192;" horiz-adv-x="756" 
d="M40 385h530l-236 245l64 57l326 -345l-332 -351l-63 57l242 251h-531v86z" />
    <glyph glyph-name="arrowup" unicode="&#x2191;" horiz-adv-x="776" 
d="M342 -1v530l-245 -236l-57 63l345 327l351 -332l-57 -63l-251 242v-531h-86z" />
    <glyph glyph-name="arrowupleft" unicode="&#x2196;" horiz-adv-x="800" 
d="M700 -2l-540 537v-330h-85v475h485v-84h-341l537 -542z" />
    <glyph glyph-name="arrowupright" unicode="&#x2197;" horiz-adv-x="800" 
d="M581 596h-341v84h485v-475h-85v330l-540 -537l-56 56z" />
    <glyph glyph-name="arrowdown.ss06" horiz-adv-x="699" 
d="M350 54c-157 0 -283 126 -283 283c0 156 126 282 283 282c156 0 282 -126 282 -282c0 -157 -126 -283 -282 -283zM350 106c127 0 230 103 230 231c0 127 -103 230 -230 230c-128 0 -231 -103 -231 -230c0 -128 103 -231 231 -231zM349 191l-129 128l33 33l73 -73v192h46
v-191l72 72l33 -33z" />
    <glyph glyph-name="arrowdownleft.ss06" horiz-adv-x="700" 
d="M150 136c-110 111 -110 290 0 401c110 110 290 110 400 -1c110 -110 110 -289 0 -399c-110 -111 -290 -111 -400 -1zM187 173c90 -89 236 -89 327 1c89 90 89 236 0 326c-91 90 -237 90 -327 0s-90 -236 0 -327zM247 234v182h46v-103l135 136l33 -33l-135 -135h102v-46z
" />
    <glyph glyph-name="arrowdownright.ss06" horiz-adv-x="699" 
d="M550 136c-110 -110 -290 -110 -400 1c-110 110 -110 289 0 399c110 111 290 111 400 1c110 -111 110 -290 0 -401zM513 173c90 91 90 237 0 327s-236 90 -327 0c-89 -90 -89 -236 0 -326c91 -90 237 -90 327 -1zM272 281h102l-135 135l33 33l135 -136v103h46v-182l-181 1
v46z" />
    <glyph glyph-name="arrowleft.ss06" horiz-adv-x="699" 
d="M67 336c0 157 126 283 283 283c156 0 282 -126 282 -283c0 -156 -126 -282 -282 -282c-157 0 -283 126 -283 282zM119 336c0 -127 103 -230 231 -230c127 0 230 103 230 230c0 128 -103 231 -230 231c-128 0 -231 -103 -231 -231zM204 337l128 129l33 -33l-73 -73h192
v-46h-191l72 -72l-33 -32z" />
    <glyph glyph-name="arrowright.ss06" horiz-adv-x="699" 
d="M632 336c0 -156 -126 -282 -283 -282c-156 0 -282 126 -282 282c0 157 126 283 282 283c157 0 283 -126 283 -283zM580 336c0 128 -103 231 -231 231c-127 0 -230 -103 -230 -231c0 -127 103 -230 230 -230c128 0 231 103 231 230zM334 242l72 72h-191v46h192l-73 73
l33 33l128 -129l-128 -127z" />
    <glyph glyph-name="arrowup.ss06" horiz-adv-x="699" 
d="M350 619c156 0 282 -126 282 -283c0 -156 -126 -282 -282 -282c-157 0 -283 126 -283 282c0 157 126 283 283 283zM350 567c-128 0 -231 -103 -231 -231c0 -127 103 -230 231 -230c127 0 230 103 230 230c0 128 -103 231 -230 231zM444 321l-72 72v-191h-46v192l-73 -73
l-33 33l129 128l128 -128z" />
    <glyph glyph-name="arrowupleft.ss06" horiz-adv-x="700" 
d="M150 538c110 110 290 110 400 -1c110 -110 110 -289 0 -399c-110 -111 -290 -111 -400 -1c-110 111 -110 290 0 401zM187 501c-90 -91 -90 -237 0 -327s236 -90 327 0c89 90 89 236 0 326c-91 90 -237 90 -327 1zM428 393h-102l135 -135l-33 -33l-135 136v-103h-46v182
l181 -1v-46z" />
    <glyph glyph-name="arrowupright.ss06" horiz-adv-x="699" 
d="M550 538c110 -111 110 -290 0 -401c-110 -110 -290 -110 -400 1c-110 110 -110 289 0 399c110 111 290 111 400 1zM513 501c-90 89 -236 89 -327 -1c-89 -90 -89 -236 0 -326c91 -90 237 -90 327 0s90 236 0 327zM453 440v-182h-46v103l-135 -136l-33 33l135 135h-102v46
z" />
    <glyph glyph-name="arrowdown.ss08" horiz-adv-x="699" 
d="M350 54c-157 0 -283 126 -283 283c0 156 126 282 283 282c156 0 282 -126 282 -282c0 -157 -126 -283 -282 -283zM444 352l-72 -72v191h-46v-192l-73 73l-33 -33l129 -128l128 128z" />
    <glyph glyph-name="arrowdownleft.ss08" horiz-adv-x="700" 
d="M150 136c-110 111 -110 290 0 401c110 110 290 110 400 -1c110 -110 110 -289 0 -399c-110 -111 -290 -111 -400 -1zM428 281h-102l135 135l-33 33l-135 -136v103h-46v-182l181 1v46z" />
    <glyph glyph-name="arrowdownright.ss08" horiz-adv-x="699" 
d="M550 136c-110 -110 -290 -110 -400 1c-110 110 -110 289 0 399c110 111 290 111 400 1c110 -111 110 -290 0 -401zM453 234v182h-46v-103l-135 136l-33 -33l135 -135h-102v-46z" />
    <glyph glyph-name="arrowleft.ss08" horiz-adv-x="699" 
d="M67 336c0 157 126 283 283 283c156 0 282 -126 282 -283c0 -156 -126 -282 -282 -282c-157 0 -283 126 -283 282zM365 242l-72 72h191v46h-192l73 73l-33 33l-128 -129l128 -127z" />
    <glyph glyph-name="arrowright.ss08" horiz-adv-x="699" 
d="M632 336c0 -156 -126 -282 -283 -282c-156 0 -282 126 -282 282c0 157 126 283 282 283c157 0 283 -126 283 -283zM495 337l-128 129l-33 -33l73 -73h-192v-46h191l-72 -72l33 -32z" />
    <glyph glyph-name="arrowup.ss08" horiz-adv-x="699" 
d="M350 619c156 0 282 -126 282 -283c0 -156 -126 -282 -282 -282c-157 0 -283 126 -283 282c0 157 126 283 283 283zM349 482l-129 -128l33 -33l73 73v-192h46v191l72 -72l33 33z" />
    <glyph glyph-name="arrowupleft.ss08" horiz-adv-x="700" 
d="M150 538c110 110 290 110 400 -1c110 -110 110 -289 0 -399c-110 -111 -290 -111 -400 -1c-110 111 -110 290 0 401zM247 440v-182h46v103l135 -136l33 33l-135 135h102v46z" />
    <glyph glyph-name="arrowupright.ss08" horiz-adv-x="699" 
d="M550 538c110 -111 110 -290 0 -401c-110 -110 -290 -110 -400 1c-110 110 -110 289 0 399c110 111 290 111 400 1zM272 393h102l-135 -135l33 -33l135 136v-103h46v182l-181 -1v-46z" />
    <glyph glyph-name="arrowdown.ss09" horiz-adv-x="633" 
d="M403 206l-56 -56l-57 57l-197 197l57 57l197 -198l196 197l56 -57z" />
    <glyph glyph-name="arrowup.ss09" horiz-adv-x="633" 
d="M513 175l-197 197l-197 -198l-56 57l197 198l56 56l57 -57l196 -196z" />
    <glyph glyph-name="arrowleft.ss09" horiz-adv-x="599" 
d="M244 340l196 -196l-56 -56l-254 252l57 57l198 197l57 -57z" />
    <glyph glyph-name="arrowright.ss09" 
d="M476 340l-253 -252l-57 56l196 196l-197 197l56 57l198 -197z" />
    <glyph glyph-name="triagdn" unicode="&#x25bc;" horiz-adv-x="1054" 
d="M1002 680l-418 -691l-415 691h833z" />
    <glyph glyph-name="triagup" unicode="&#x25b2;" horiz-adv-x="1055" 
d="M505 691l418 -691h-833z" />
    <glyph glyph-name="blackuppointingsmalltriangle" unicode="&#x25b4;" horiz-adv-x="522" 
d="M261 513l174 -287h-347z" />
    <glyph glyph-name="uni25B8" unicode="&#x25b8;" horiz-adv-x="499" 
d="M425 340l-286 -175v348z" />
    <glyph glyph-name="uni25C2" unicode="&#x25c2;" horiz-adv-x="499" 
d="M387 165l-286 175l286 173v-348z" />
    <glyph glyph-name="uni25BE" unicode="&#x25be;" horiz-adv-x="522" 
d="M477 461l-175 -287l-173 287h348z" />
    <glyph glyph-name="ampersand" unicode="&#x26;" horiz-adv-x="643" 
d="M552 310l-19 -111c-22 -128 -135 -214 -289 -214c-138 0 -219 70 -219 177c0 93 57 158 157 190c-48 20 -72 62 -72 114c0 131 113 224 274 224c45 0 91 -6 133 -19l-32 -80c-40 12 -80 17 -119 17c-97 0 -165 -52 -165 -133c0 -53 34 -86 116 -86h322l-14 -79h-73z
M463 310h-160c-121 0 -187 -55 -187 -133c0 -66 52 -110 142 -110c100 0 172 53 186 132z" />
    <glyph glyph-name="asciicircum" unicode="^" horiz-adv-x="419" 
d="M275 598l-124 -148h-93l191 230h77l111 -230h-91z" />
    <glyph glyph-name="at" unicode="@" horiz-adv-x="1007" 
d="M581 690c239 0 384 -152 384 -365c0 -215 -112 -319 -247 -319c-62 0 -98 19 -111 63c-65 -43 -120 -64 -187 -64c-128 0 -199 91 -182 228c17 145 122 247 272 247c121 0 179 -13 236 -23l-52 -291c-11 -65 -2 -97 49 -97c89 0 170 63 170 248c0 203 -125 325 -340 325
c-254 0 -478 -207 -478 -463c0 -181 124 -322 324 -322c85 0 164 13 264 35v-46c-97 -23 -180 -38 -272 -38c-228 0 -368 156 -368 369c0 290 250 513 538 513zM509 405c-129 0 -186 -95 -186 -192c0 -79 44 -134 121 -134c49 0 97 15 160 55c1 14 3 30 5 47l38 214
c-46 8 -88 10 -138 10z" />
    <glyph glyph-name="bar" unicode="|" horiz-adv-x="315" 
d="M294 762l-162 -918h-86l162 918h86z" />
    <glyph glyph-name="brokenbar" unicode="&#xa6;" horiz-adv-x="315" 
d="M221 353h-86l72 408h86zM132 -157h-86l71 408h86z" />
    <glyph glyph-name="copyright" unicode="&#xa9;" horiz-adv-x="835" 
d="M436 695c208 0 365 -152 365 -355s-157 -355 -365 -355s-364 152 -364 355s156 355 364 355zM436 650c-180 0 -317 -134 -317 -310s137 -310 317 -310s318 134 318 310s-138 310 -318 310zM606 519l-21 -59c-40 10 -81 18 -113 18c-97 0 -162 -65 -162 -156
c0 -68 48 -106 125 -106c36 0 78 7 123 17l1 -58c-38 -12 -89 -24 -137 -24c-113 0 -186 61 -186 162c0 135 98 230 244 230c42 0 89 -11 126 -24z" />
    <glyph glyph-name="uni2117" unicode="&#x2117;" horiz-adv-x="856" 
d="M449 695c208 0 365 -152 365 -355s-157 -355 -365 -355s-364 152 -364 355s156 355 364 355zM449 650c-180 0 -317 -134 -317 -310s137 -310 317 -310s318 134 318 310s-138 310 -318 310zM500 546c93 0 148 -46 133 -130c-16 -94 -108 -133 -184 -133h-71l-21 -124h-68
l68 384c30 1 93 3 143 3zM491 486c-27 0 -50 -1 -77 -2l-26 -142h83c47 0 88 30 96 75c9 47 -24 69 -76 69z" />
    <glyph glyph-name="dagger" unicode="&#x2020;" horiz-adv-x="407" 
d="M288 538l-38 -218h-63l38 218h-121l11 63h121l22 121h63l-22 -121h122l-11 -63h-122z" />
    <glyph glyph-name="daggerdbl" unicode="&#x2021;" horiz-adv-x="407" 
d="M279 489h122l-11 -62h-122l-18 -107h-63l18 107h-121l11 62h122l12 70h-121l11 63h121l18 100h63l-18 -100h122l-11 -63h-122z" />
    <glyph glyph-name="degree" unicode="&#xb0;" horiz-adv-x="479" 
d="M315 695c89 0 144 -55 144 -137c0 -114 -88 -195 -203 -195c-89 0 -143 55 -143 138c0 113 86 194 202 194zM269 433c65 0 116 47 116 113c0 48 -31 80 -82 80c-66 0 -117 -47 -117 -113c0 -48 32 -80 83 -80z" />
    <glyph glyph-name="uni2116" unicode="&#x2116;" horiz-adv-x="1389" 
d="M766 680l-120 -680h-85l-322 520l-93 -520h-95l120 680h85l322 -523l93 523h95zM1131 664c136 0 220 -82 220 -210c0 -170 -134 -294 -307 -294c-136 0 -220 83 -220 211c0 170 135 293 307 293zM1059 243c111 0 198 84 198 199c0 84 -53 138 -140 138
c-111 0 -198 -82 -198 -196c0 -85 52 -141 140 -141zM786 82h472l-14 -82h-472z" />
    <glyph glyph-name="paragraph" unicode="&#xb6;" horiz-adv-x="752" 
d="M366 688c83 0 320 -4 390 -8l-139 -786h-95l124 700c-36 2 -78 3 -117 3l-125 -703h-95l58 328h-84c-141 0 -217 77 -217 192c0 166 113 274 300 274zM434 599l-93 1c-119 0 -180 -67 -180 -174c0 -72 42 -118 128 -118h94z" />
    <glyph glyph-name="registered" unicode="&#xae;" horiz-adv-x="836" 
d="M440 695c208 0 364 -152 364 -355s-156 -355 -364 -355s-365 152 -365 355s157 355 365 355zM440 650c-180 0 -318 -134 -318 -310s138 -310 318 -310c179 0 317 134 317 310s-138 310 -317 310zM480 546c93 0 149 -46 134 -130c-10 -54 -48 -94 -101 -115l80 -142h-82
l-67 125c-5 0 -10 -1 -14 -1h-71l-22 -124h-68l68 384c31 1 94 3 143 3zM472 486c-27 0 -51 -1 -78 -2l-25 -142h82c45 0 89 30 96 75c9 47 -23 69 -75 69z" />
    <glyph glyph-name="registered.ss07" horiz-adv-x="587" 
d="M337 695c132 0 232 -97 232 -226c0 -131 -100 -227 -232 -227c-133 0 -232 96 -232 226s99 227 232 227zM337 657c-109 0 -190 -82 -190 -189s81 -188 190 -188c111 0 191 81 191 189c0 106 -80 188 -191 188zM357 585c49 0 82 -27 82 -66c0 -35 -23 -63 -57 -76l40 -80
h-48l-34 68h-45l-12 -68h-44l39 219c30 2 55 3 79 3zM315 542l-12 -69h44c26 0 45 19 45 40c0 19 -14 30 -37 30z" />
    <glyph glyph-name="section" unicode="&#xa7;" horiz-adv-x="543" 
d="M358 695c64 0 134 -15 181 -39l-40 -70c-54 23 -105 35 -153 35c-77 0 -128 -30 -128 -87c0 -43 45 -56 123 -87c103 -41 164 -78 164 -160c0 -92 -57 -139 -118 -174c23 -22 36 -47 36 -80c0 -104 -88 -175 -230 -175c-63 0 -133 16 -180 39l39 71
c54 -24 105 -36 153 -36c78 0 129 30 129 87c0 43 -46 56 -124 88c-102 40 -164 77 -164 159c0 92 58 140 119 175c-24 21 -36 47 -36 80c0 103 87 174 229 174zM216 408c-50 -33 -86 -65 -86 -117c0 -54 53 -79 133 -112c28 -12 52 -22 73 -33c50 32 85 65 85 117
c0 54 -53 78 -133 112c-27 11 -52 22 -72 33z" />
    <glyph glyph-name="trademark" unicode="&#x2122;" horiz-adv-x="731" 
d="M372 623h-110l-44 -251h-61l45 251h-110l10 57h280zM672 558l-115 -186h-53l-50 186l-44 -186h-58l70 308h57l64 -233l144 233h57l-36 -308h-59z" />
    <glyph glyph-name="at.case" horiz-adv-x="1007" 
d="M591 773c239 0 384 -152 384 -365c0 -215 -112 -319 -247 -319c-62 0 -98 19 -111 63c-65 -43 -120 -65 -187 -65c-128 0 -199 92 -182 229c17 145 122 247 272 247c121 0 179 -13 236 -23l-52 -291c-11 -65 -2 -97 49 -97c89 0 170 63 170 248c0 203 -125 325 -340 325
c-254 0 -478 -207 -478 -463c0 -181 124 -322 324 -322c85 0 164 13 264 34v-45c-97 -23 -180 -38 -272 -38c-228 0 -368 156 -368 369c0 290 250 513 538 513zM519 488c-129 0 -186 -95 -186 -192c0 -79 44 -134 121 -134c49 0 97 15 160 55c1 14 3 30 5 47l38 214
c-46 8 -88 10 -138 10z" />
    <glyph glyph-name="bar.case" horiz-adv-x="315" 
d="M299 792l-162 -918h-86l162 918h86z" />
    <glyph glyph-name="brokenbar.case" horiz-adv-x="315" 
d="M227 383h-86l72 408h86zM137 -127h-86l72 408h86z" />
    <glyph glyph-name="acute" unicode="&#xb4;" 
d="M491 714l-132 -147h-92l100 147h124z" />
    <glyph glyph-name="breve" unicode="&#x2d8;" 
d="M434 698h72c-15 -86 -80 -138 -166 -138c-85 0 -132 52 -117 138h72c-8 -47 16 -71 58 -71c41 0 73 24 81 71z" />
    <glyph glyph-name="caron" unicode="&#x2c7;" 
d="M394 564h-83l-97 153h91l55 -90l90 90h94z" />
    <glyph glyph-name="cedilla" unicode="&#xb8;" 
d="M220 -206h-77l75 156h89z" />
    <glyph glyph-name="circumflex" unicode="&#x2c6;" 
d="M376 649l-90 -82h-92l148 144h83l98 -144h-90z" />
    <glyph glyph-name="dieresis" unicode="&#xa8;" 
d="M249 686c33 0 60 -25 60 -58s-27 -59 -60 -59c-34 0 -61 26 -61 59s27 58 61 58zM461 686c33 0 60 -25 60 -58s-27 -59 -60 -59c-34 0 -61 26 -61 59s27 58 61 58z" />
    <glyph glyph-name="dotaccent" unicode="&#x2d9;" 
d="M360 569c-34 0 -60 26 -60 59s26 58 60 58s60 -25 60 -58s-26 -59 -60 -59z" />
    <glyph glyph-name="grave" unicode="`" 
d="M444 567h-82l-88 147h122z" />
    <glyph glyph-name="hungarumlaut" unicode="&#x2dd;" 
d="M330 564h-84l84 147h94zM476 564h-85l85 147h94z" />
    <glyph glyph-name="macron" unicode="&#xaf;" 
d="M515 676l-13 -75h-275l14 75h274z" />
    <glyph glyph-name="ogonek" unicode="&#x2db;" 
d="M297 32l31 -19c-57 -20 -92 -47 -96 -87c-3 -26 13 -46 57 -46c16 0 27 2 41 5l6 -69c-15 -5 -40 -9 -73 -9c-68 0 -112 37 -109 91c5 65 61 108 143 134z" />
    <glyph glyph-name="ring" unicode="&#x2da;" 
d="M384 746c57 0 95 -37 95 -92c0 -62 -48 -107 -113 -107c-58 0 -96 38 -96 93c0 63 48 106 114 106zM370 597c31 0 56 22 56 54c0 28 -20 46 -48 46c-31 0 -55 -23 -55 -54c0 -28 20 -46 47 -46z" />
    <glyph glyph-name="tilde" unicode="&#x2dc;" 
d="M461 680h75c-19 -109 -119 -130 -168 -97l-47 34c-27 19 -56 1 -61 -30h-75c19 109 119 130 168 97l47 -33c28 -20 55 -2 61 29z" />
    <glyph glyph-name="caron.alt" 
d="M429 680l-67 -199h-71l43 199h95z" />
    <glyph glyph-name="acute.case" 
d="M579 894l-139 -148h-98l113 148h124z" />
    <glyph glyph-name="breve.case" 
d="M463 886h73c-16 -85 -81 -138 -167 -138c-85 0 -132 53 -116 138h71c-8 -47 16 -71 58 -71c41 0 73 24 81 71z" />
    <glyph glyph-name="caron.case" 
d="M431 738h-83l-96 154h90l56 -91l90 91h93z" />
    <glyph glyph-name="circumflex.case" 
d="M408 835l-90 -89h-93l150 148h82l98 -148h-90z" />
    <glyph glyph-name="dieresis.case" 
d="M287 760c-33 0 -60 25 -60 58s27 58 60 58c34 0 61 -25 61 -58s-27 -58 -61 -58zM499 760c-33 0 -60 25 -60 58s27 58 60 58c34 0 60 -25 60 -58s-26 -58 -60 -58z" />
    <glyph glyph-name="dotaccent.case" 
d="M377 767c-33 0 -60 25 -60 58s27 59 60 59c34 0 61 -26 61 -59s-27 -58 -61 -58z" />
    <glyph glyph-name="grave.case" 
d="M429 746h-83l-93 148h121z" />
    <glyph glyph-name="hungarumlaut.case" 
d="M465 898l-100 -156h-92l90 156h102zM621 898l-100 -156h-92l90 156h102z" />
    <glyph glyph-name="macron.case" 
d="M558 850l-12 -73h-300l12 73h300z" />
    <glyph glyph-name="ring.case" 
d="M387 929c57 0 96 -37 96 -92c0 -62 -48 -107 -114 -107c-58 0 -96 38 -96 93c0 62 49 106 114 106zM374 780c31 0 55 22 55 54c0 28 -19 46 -47 46c-31 0 -55 -23 -55 -54c0 -29 20 -46 47 -46z" />
    <glyph glyph-name="tilde.case" 
d="M494 860h75c-19 -109 -119 -131 -168 -98l-47 34c-27 19 -56 2 -61 -30h-75c19 109 119 130 168 98l47 -34c28 -20 55 -2 61 30z" />
    <glyph glyph-name="uni0326" unicode="&#x326;" horiz-adv-x="0" 
d="M208 -259l38 89c-25 9 -38 28 -38 51c0 31 27 57 61 57c33 0 61 -26 61 -57c0 -26 -6 -33 -64 -140h-58z" />
    </font>
</defs>
</svg>
