<?xml version="1.0" standalone="no"?>
<!DOCTYPE svg PUBLIC "-//W3C//DTD SVG 1.1//EN" "http://www.w3.org/Graphics/SVG/1.1/DTD/svg11.dtd" >
<svg xmlns="http://www.w3.org/2000/svg" xmlns:xlink="http://www.w3.org/1999/xlink" version="1.1">
<metadata>
Created by FontForge 20190801 at Mon Nov 25 01:53:32 2013
 By Jimmy Wärting
Copyright (c) 2013 by Rene' Bieder. All rights reserved.
</metadata>
<defs>
<font id="Canaro-ExtraBold" horiz-adv-x="600" >
  <font-face 
    font-family="Canaro ExtraBold"
    font-weight="800"
    font-stretch="normal"
    units-per-em="1000"
    panose-1="0 0 9 0 0 0 0 0 0 0"
    ascent="800"
    descent="-200"
    x-height="492"
    cap-height="680"
    bbox="-86 -292 1503 980"
    underline-thickness="50"
    underline-position="-100"
    stemh="160"
    stemv="194"
    unicode-range="U+0020-FB02"
  />
<missing-glyph horiz-adv-x="870" 
d="M770 680v-680h-670v680h670zM700 610h-481l481 -481v481zM170 70h477l-477 477v-477z" />
    <glyph glyph-name="f_f" unicode="ff" horiz-adv-x="855" 
d="M852 321h-148v-321h-193v321h-220v-321h-193v321h-95v171h95v30c0 157 124 255 277 255c67 0 133 -16 194 -56c37 37 89 56 149 56c51 0 85 -4 128 -12l-17 -151c-22 2 -39 3 -56 3c-49 0 -69 -24 -69 -76v-49h148v-171zM511 492v63v15c-34 24 -71 41 -116 41
c-59 0 -104 -29 -104 -96v-23h220z" />
    <glyph glyph-name="f_f_i" unicode="ffi" horiz-adv-x="1133" 
d="M1094 492v-492h-193v321h-201v-321h-193v321h-216v-321h-193v321h-95v171h95v30c0 157 121 255 277 255c75 0 146 -19 212 -69c50 44 119 69 197 69c88 0 171 -26 246 -98l-98 -118c-38 29 -78 50 -128 50c-62 0 -104 -29 -104 -96v-23h394zM507 492v30c0 17 1 33 4 48
c-35 24 -71 41 -116 41c-62 0 -104 -29 -104 -96v-23h216z" />
    <glyph glyph-name="f_f_l" unicode="ffl" horiz-adv-x="1141" 
d="M1093 737v-737h-194v592c-46 16 -77 19 -102 19c-62 0 -97 -29 -97 -90v-29h148v-171h-148v-321h-193v321h-216v-321h-193v321h-95v171h95v30c0 157 121 255 277 255c71 0 139 -17 202 -61c45 41 108 61 178 61c60 0 88 -8 159 -32zM507 492v50c0 10 0 20 1 30
c-33 23 -69 39 -113 39c-62 0 -104 -29 -104 -96v-23h216z" />
    <glyph glyph-name="fi" unicode="fi" horiz-adv-x="724" 
d="M685 492v-492h-193v321h-201v-321h-193v321h-95v171h95v30c0 157 121 255 277 255c88 0 171 -26 246 -98l-98 -118c-38 29 -78 50 -128 50c-62 0 -104 -29 -104 -96v-23h394z" />
    <glyph glyph-name="fl" unicode="fl" horiz-adv-x="736" 
d="M691 0h-194v589c-50 18 -82 22 -109 22c-62 0 -97 -29 -97 -90v-29h148v-171h-148v-321h-193v321h-95v171h95v50c0 157 112 235 248 235c59 0 85 -7 159 -31l186 -9v-737z" />
    <glyph glyph-name=".notdef" horiz-adv-x="870" 
d="M770 680v-680h-670v680h670zM700 610h-481l481 -481v481zM170 70h477l-477 477v-477z" />
    <glyph glyph-name="A" unicode="A" horiz-adv-x="791" 
d="M256 93l-36 -93h-213l295 684h187l295 -684h-213l-36 93h-279zM396 459l-78 -201h154z" />
    <glyph glyph-name="Aacute" unicode="&#xc1;" horiz-adv-x="791" 
d="M627 890l-140 -153h-184l96 153h228zM256 93l-36 -93h-213l295 684h187l295 -684h-213l-36 93h-279zM395 459l-77 -201h154z" />
    <glyph glyph-name="Abreve" unicode="&#x102;" horiz-adv-x="791" 
d="M445 908h140c0 -112 -78 -178 -190 -178s-190 66 -190 178h139c0 -29 21 -51 51 -51s50 22 50 51zM256 93l-36 -93h-213l295 684h187l295 -684h-213l-36 93h-279zM395 459l-77 -201h154z" />
    <glyph glyph-name="Acaron" unicode="&#x1cd;" horiz-adv-x="791" 
d="M478 732h-167l-128 157h168l44 -57l43 57h168zM256 93l-36 -93h-213l295 684h187l295 -684h-213l-36 93h-279zM395 459l-77 -201h154z" />
    <glyph glyph-name="Acircumflex" unicode="&#xc2;" horiz-adv-x="791" 
d="M395 793l-44 -56h-168l128 153h167l128 -153h-168zM256 93l-36 -93h-213l295 684h187l295 -684h-213l-36 93h-279zM395 459l-77 -201h154z" />
    <glyph glyph-name="Adieresis" unicode="&#xc4;" horiz-adv-x="791" 
d="M273 728c-57 0 -102 41 -102 97s45 98 102 98c56 0 102 -42 102 -98s-46 -97 -102 -97zM517 728c-57 0 -103 41 -103 97s46 98 103 98c55 0 101 -42 101 -98s-46 -97 -101 -97zM256 93l-36 -93h-213l295 684h187l295 -684h-213l-36 93h-279zM395 459l-77 -201h154z" />
    <glyph glyph-name="Agrave" unicode="&#xc0;" horiz-adv-x="791" 
d="M490 737h-182l-140 153h229zM256 93l-36 -93h-213l295 684h187l295 -684h-213l-36 93h-279zM395 459l-77 -201h154z" />
    <glyph glyph-name="Amacron" unicode="&#x100;" horiz-adv-x="791" 
d="M568 887v-140h-346v140h346zM256 93l-36 -93h-213l295 684h187l295 -684h-213l-36 93h-279zM395 459l-77 -201h154z" />
    <glyph glyph-name="Aogonek" unicode="&#x104;" horiz-adv-x="791" 
d="M683 -61c17 0 31 2 52 8l18 -144c-15 -8 -54 -17 -91 -17c-97 0 -167 53 -167 131c0 37 20 72 70 98l-30 78h-279l-36 -93h-213l295 684h187l295 -684h-123c-16 -9 -21 -19 -21 -31c0 -19 15 -30 43 -30zM472 258l-77 201l-77 -201h154z" />
    <glyph glyph-name="Aring" unicode="&#xc5;" horiz-adv-x="791" 
d="M394 980c82 0 141 -52 141 -131c0 -78 -59 -131 -141 -131s-141 53 -141 131c0 79 59 131 141 131zM394 802c29 0 48 19 48 47s-19 47 -48 47s-48 -19 -48 -47s19 -47 48 -47zM256 93l-36 -93h-213l295 684h187l295 -684h-213l-36 93h-279zM395 459l-77 -201h154z" />
    <glyph glyph-name="Atilde" unicode="&#xc3;" horiz-adv-x="791" 
d="M476 903h139c0 -168 -136 -195 -213 -150l-28 17c-27 16 -38 1 -38 -24h-139c0 167 135 192 213 149l28 -17c28 -16 38 -1 38 25zM256 93l-36 -93h-213l295 684h187l295 -684h-213l-36 93h-279zM395 459l-77 -201h154z" />
    <glyph glyph-name="AE" unicode="&#xc6;" horiz-adv-x="1110" 
d="M749 422h280v-162h-280v-91h327v-169h-528v94h-253l-61 -94h-227l454 680h615v-169h-327v-89zM548 487l-148 -230h148v230z" />
    <glyph glyph-name="B" unicode="B" horiz-adv-x="658" 
d="M497 341c84 -20 136 -84 136 -156c0 -120 -101 -193 -259 -193c-81 0 -215 4 -321 8v680c104 3 229 6 310 6c151 0 247 -69 247 -181c0 -76 -43 -142 -113 -164zM338 532c-27 0 -55 -1 -83 -1v-130h89c47 0 78 28 78 70c0 40 -30 61 -84 61zM349 150c55 0 87 25 87 70
c0 37 -31 60 -79 60h-102v-128c40 -2 75 -2 94 -2z" />
    <glyph glyph-name="C" unicode="C" horiz-adv-x="706" 
d="M679 660l-31 -178c-96 18 -162 26 -208 26c-118 0 -188 -69 -188 -167c0 -102 73 -170 183 -170c55 0 148 15 213 26l30 -174c-79 -21 -174 -37 -259 -37c-231 0 -385 142 -385 354s154 354 384 354c88 0 181 -15 261 -34z" />
    <glyph glyph-name="Cacute" unicode="&#x106;" horiz-adv-x="706" 
d="M646 890l-140 -153h-184l96 153h228zM678 660l-31 -178c-96 18 -161 26 -207 26c-118 0 -189 -69 -189 -167c0 -102 74 -170 184 -170c54 0 148 15 212 26l31 -174c-80 -21 -174 -37 -260 -37c-230 0 -384 142 -384 354s154 354 384 354c88 0 181 -15 260 -34z" />
    <glyph glyph-name="Ccaron" unicode="&#x10c;" horiz-adv-x="706" 
d="M497 732h-167l-128 157h168l44 -57l43 57h168zM678 660l-31 -178c-96 18 -161 26 -207 26c-118 0 -189 -69 -189 -167c0 -102 74 -170 184 -170c54 0 148 15 212 26l31 -174c-80 -21 -174 -37 -260 -37c-230 0 -384 142 -384 354s154 354 384 354c88 0 181 -15 260 -34z
" />
    <glyph glyph-name="Ccedilla" unicode="&#xc7;" horiz-adv-x="706" 
d="M678 660l-31 -178c-96 18 -161 26 -207 26c-118 0 -189 -69 -189 -167c0 -102 74 -170 184 -170c54 0 148 15 212 26l31 -174c-80 -21 -174 -37 -260 -37c-230 0 -384 142 -384 354s154 354 384 354c88 0 181 -15 260 -34zM380 -213h-135l43 167h165z" />
    <glyph glyph-name="Cdotaccent" unicode="&#x10a;" horiz-adv-x="706" 
d="M412 728c-54 0 -98 40 -98 94c0 53 44 93 98 93s98 -40 98 -93c0 -54 -44 -94 -98 -94zM678 660l-31 -178c-96 18 -161 26 -207 26c-118 0 -189 -69 -189 -167c0 -102 74 -170 184 -170c54 0 148 15 212 26l31 -174c-80 -21 -174 -37 -260 -37c-230 0 -384 142 -384 354
s154 354 384 354c88 0 181 -15 260 -34z" />
    <glyph glyph-name="D" unicode="D" horiz-adv-x="730" 
d="M317 688c231 0 379 -129 379 -347c0 -219 -148 -349 -365 -349c-105 0 -175 3 -278 8v680c103 4 163 8 264 8zM337 168c88 0 152 66 152 173c0 105 -64 171 -158 171c-25 0 -51 -1 -76 -2v-341c27 0 55 -1 82 -1z" />
    <glyph glyph-name="Eth" unicode="&#xd0;" horiz-adv-x="730" 
d="M317 688c231 0 378 -129 378 -347c0 -219 -147 -349 -365 -349c-104 0 -175 3 -277 8v249h-39v166h39v265c102 4 163 8 264 8zM338 168c87 0 152 66 152 173c0 105 -65 171 -159 171c-25 0 -50 -1 -76 -2v-95h107v-166h-107v-80c27 0 56 -1 83 -1z" />
    <glyph glyph-name="Dcaron" unicode="&#x10e;" horiz-adv-x="730" 
d="M416 732h-167l-128 157h168l44 -57l43 57h168zM317 688c231 0 378 -129 378 -347c0 -219 -147 -349 -365 -349c-104 0 -175 3 -277 8v680c102 4 163 8 264 8zM338 168c87 0 152 66 152 173c0 105 -65 171 -159 171c-25 0 -50 -1 -76 -2v-341c27 0 56 -1 83 -1z" />
    <glyph glyph-name="Dcroat" unicode="&#x110;" horiz-adv-x="730" 
d="M317 688c231 0 378 -129 378 -347c0 -219 -147 -349 -365 -349c-104 0 -175 3 -277 8v249h-39v166h39v265c102 4 163 8 264 8zM338 168c87 0 152 66 152 173c0 105 -65 171 -159 171c-25 0 -50 -1 -76 -2v-95h107v-166h-107v-80c27 0 56 -1 83 -1z" />
    <glyph glyph-name="E" unicode="E" horiz-adv-x="622" 
d="M255 422h279v-162h-279v-91h326v-169h-528v680h528v-169h-326v-89z" />
    <glyph glyph-name="Eacute" unicode="&#xc9;" horiz-adv-x="622" 
d="M543 890l-140 -153h-184l96 153h228zM254 422h280v-162h-280v-91h327v-169h-528v680h528v-169h-327v-89z" />
    <glyph glyph-name="Ecaron" unicode="&#x11a;" horiz-adv-x="622" 
d="M394 732h-167l-128 157h168l44 -57l43 57h168zM254 422h280v-162h-280v-91h327v-169h-528v680h528v-169h-327v-89z" />
    <glyph glyph-name="Ecircumflex" unicode="&#xca;" horiz-adv-x="622" 
d="M311 793l-44 -56h-168l128 153h167l128 -153h-168zM254 422h280v-162h-280v-91h327v-169h-528v680h528v-169h-327v-89z" />
    <glyph glyph-name="Edieresis" unicode="&#xcb;" horiz-adv-x="622" 
d="M189 728c-57 0 -102 41 -102 97s45 98 102 98c56 0 102 -42 102 -98s-46 -97 -102 -97zM433 728c-57 0 -103 41 -103 97s46 98 103 98c55 0 101 -42 101 -98s-46 -97 -101 -97zM254 422h280v-162h-280v-91h327v-169h-528v680h528v-169h-327v-89z" />
    <glyph glyph-name="Edotaccent" unicode="&#x116;" horiz-adv-x="622" 
d="M309 728c-54 0 -98 40 -98 94c0 53 44 93 98 93s98 -40 98 -93c0 -54 -44 -94 -98 -94zM254 422h280v-162h-280v-91h327v-169h-528v680h528v-169h-327v-89z" />
    <glyph glyph-name="Egrave" unicode="&#xc8;" horiz-adv-x="622" 
d="M407 737h-182l-140 153h229zM254 422h280v-162h-280v-91h327v-169h-528v680h528v-169h-327v-89z" />
    <glyph glyph-name="Emacron" unicode="&#x112;" horiz-adv-x="622" 
d="M484 887v-140h-346v140h346zM254 422h280v-162h-280v-91h327v-169h-528v680h528v-169h-327v-89z" />
    <glyph glyph-name="Eogonek" unicode="&#x118;" horiz-adv-x="622" 
d="M254 511v-89h280v-162h-280v-91h327v-169h-69c-39 -14 -50 -27 -50 -44c0 -19 15 -30 43 -30c17 0 31 2 52 8l18 -144c-15 -8 -54 -17 -91 -17c-97 0 -167 53 -167 131c0 36 19 71 67 96h-331v680h528v-169h-327z" />
    <glyph glyph-name="F" unicode="F" horiz-adv-x="580" 
d="M255 393h265v-178h-265v-215h-202v680h514v-172h-312v-115z" />
    <glyph glyph-name="G" unicode="G" horiz-adv-x="776" 
d="M725 407v-352c-137 -49 -234 -70 -314 -70c-226 0 -377 142 -377 356c0 212 149 354 371 354c102 0 192 -15 275 -35l-31 -171c-107 16 -163 23 -222 23c-108 0 -180 -68 -180 -171c0 -104 68 -172 170 -172c52 0 105 8 150 19v67h-197v152h355z" />
    <glyph glyph-name="Gbreve" unicode="&#x11e;" horiz-adv-x="776" 
d="M453 908h140c0 -112 -78 -178 -190 -178s-190 66 -190 178h139c0 -29 21 -51 51 -51s50 22 50 51zM724 407v-352c-137 -49 -233 -70 -313 -70c-226 0 -377 142 -377 356c0 212 148 354 370 354c103 0 192 -15 275 -35l-31 -171c-106 16 -163 23 -222 23
c-107 0 -179 -68 -179 -171c0 -104 68 -172 169 -172c52 0 106 8 150 19v67h-196v152h354z" />
    <glyph glyph-name="Gcommaaccent" unicode="&#x122;" horiz-adv-x="776" 
d="M724 407v-352c-137 -49 -233 -70 -313 -70c-226 0 -377 142 -377 356c0 212 148 354 370 354c103 0 192 -15 275 -35l-31 -171c-106 16 -163 23 -222 23c-107 0 -179 -68 -179 -171c0 -104 68 -172 169 -172c52 0 106 8 150 19v67h-196v152h354zM325 -289l43 85
c-32 14 -49 41 -49 69c0 48 40 85 89 85s89 -37 89 -85c0 -34 -15 -59 -83 -154h-89z" />
    <glyph glyph-name="Gdotaccent" unicode="&#x120;" horiz-adv-x="776" 
d="M401 728c-54 0 -98 40 -98 94c0 53 44 93 98 93s98 -40 98 -93c0 -54 -44 -94 -98 -94zM724 407v-352c-137 -49 -233 -70 -313 -70c-226 0 -377 142 -377 356c0 212 148 354 370 354c103 0 192 -15 275 -35l-31 -171c-106 16 -163 23 -222 23c-107 0 -179 -68 -179 -171
c0 -104 68 -172 169 -172c52 0 106 8 150 19v67h-196v152h354z" />
    <glyph glyph-name="H" unicode="H" horiz-adv-x="748" 
d="M694 0h-201v242h-238v-242h-202v680h202v-262h238v262h201v-680z" />
    <glyph glyph-name="Hbar" unicode="&#x126;" horiz-adv-x="748" 
d="M729 491h-35v-491h-201v242h-239v-242h-201v491h-34v119h34v70h201v-70h239v70h201v-70h35v-119zM493 491h-239v-73h239v73z" />
    <glyph glyph-name="I" unicode="I" horiz-adv-x="301" 
d="M251 680v-680h-201v680h201z" />
    <glyph glyph-name="IJ" unicode="&#x132;" horiz-adv-x="859" 
d="M251 680v-680h-201v680h201zM815 680v-385c0 -197 -91 -310 -272 -310c-81 0 -156 16 -236 47l38 172c85 -21 128 -29 184 -29c55 0 81 43 81 113v392h205z" />
    <glyph glyph-name="Iacute" unicode="&#xcd;" horiz-adv-x="301" 
d="M383 890l-140 -153h-184l96 153h228zM251 680v-680h-201v680h201z" />
    <glyph glyph-name="Icircumflex" unicode="&#xce;" horiz-adv-x="301" 
d="M151 793l-44 -56h-168l128 153h167l128 -153h-168zM251 680v-680h-201v680h201z" />
    <glyph glyph-name="Idieresis" unicode="&#xcf;" horiz-adv-x="301" 
d="M29 728c-57 0 -102 41 -102 97s45 98 102 98c56 0 102 -42 102 -98s-46 -97 -102 -97zM273 728c-57 0 -103 41 -103 97s46 98 103 98c55 0 101 -42 101 -98s-46 -97 -101 -97zM251 680v-680h-201v680h201z" />
    <glyph glyph-name="Idotaccent" unicode="&#x130;" horiz-adv-x="301" 
d="M149 736c-64 0 -114 47 -114 110c0 62 50 109 114 109c62 0 114 -47 114 -109c0 -63 -52 -110 -114 -110zM251 680v-680h-201v680h201z" />
    <glyph glyph-name="Igrave" unicode="&#xcc;" horiz-adv-x="301" 
d="M246 737h-182l-140 153h229zM251 680v-680h-201v680h201z" />
    <glyph glyph-name="Imacron" unicode="&#x12a;" horiz-adv-x="301" 
d="M324 887v-140h-346v140h346zM251 680v-680h-201v680h201z" />
    <glyph glyph-name="Iogonek" unicode="&#x12e;" horiz-adv-x="301" 
d="M251 0h-92c-28 -12 -37 -24 -37 -39c0 -19 15 -30 43 -30c17 0 31 2 52 8l18 -144c-15 -8 -54 -17 -91 -17c-97 0 -167 53 -167 131c0 37 20 73 73 99v672h201v-680z" />
    <glyph glyph-name="J" unicode="J" horiz-adv-x="557" 
d="M514 680v-385c0 -197 -91 -310 -272 -310c-81 0 -156 16 -236 47l38 172c85 -21 128 -29 184 -29c55 0 81 43 81 113v392h205z" />
    <glyph glyph-name="K" unicode="K" horiz-adv-x="737" 
d="M255 213v-213h-202v680h202v-271h17l197 271h238l-234 -318l257 -362h-245l-145 213h-85z" />
    <glyph glyph-name="Kcommaaccent" unicode="&#x136;" horiz-adv-x="737" 
d="M254 213v-213h-201v680h201v-271h18l196 271h239l-235 -318l258 -362h-245l-145 213h-86zM261 -289l43 85c-32 14 -49 41 -49 69c0 48 40 85 89 85s89 -37 89 -85c0 -34 -15 -59 -83 -154h-89z" />
    <glyph glyph-name="L" unicode="L" horiz-adv-x="591" 
d="M570 0h-517v680h202v-506h315v-174z" />
    <glyph glyph-name="Lacute" unicode="&#x139;" horiz-adv-x="591" 
d="M391 890l-140 -153h-184l96 153h228zM570 0h-517v680h201v-506h316v-174z" />
    <glyph glyph-name="Lcaron" unicode="&#x13d;" horiz-adv-x="591" 
d="M570 0h-517v680h201v-506h316v-174zM501 680l-39 -203h-130l5 203h164z" />
    <glyph glyph-name="Lcommaaccent" unicode="&#x13b;" horiz-adv-x="591" 
d="M570 0h-517v680h201v-506h316v-174zM228 -289l43 85c-32 14 -49 41 -49 69c0 48 40 85 89 85s89 -37 89 -85c0 -34 -15 -59 -83 -154h-89z" />
    <glyph glyph-name="Ldot" unicode="&#x13f;" horiz-adv-x="591" 
d="M570 0h-517v680h201v-506h316v-174zM422 249c-57 0 -103 42 -103 98s46 98 103 98c55 0 101 -42 101 -98s-46 -98 -101 -98z" />
    <glyph glyph-name="Lslash" unicode="&#x141;" horiz-adv-x="591" 
d="M570 174v-174h-517v198l-50 -16v153l50 16v329h201v-263l139 46v-153l-139 -46v-90h316z" />
    <glyph glyph-name="M" unicode="M" horiz-adv-x="934" 
d="M679 282l-148 -282h-128l-147 282l-18 -282h-195l33 680h172l219 -404l219 404h173l32 -680h-195z" />
    <glyph glyph-name="N" unicode="N" horiz-adv-x="765" 
d="M712 680v-680h-179l-278 343v-343h-202v680h185l272 -344v344h202z" />
    <glyph glyph-name="Nacute" unicode="&#x143;" horiz-adv-x="765" 
d="M611 890l-140 -153h-184l96 153h228zM711 680v-680h-179l-278 343v-343h-201v680h185l272 -344v344h201z" />
    <glyph glyph-name="Ncaron" unicode="&#x147;" horiz-adv-x="765" 
d="M462 732h-167l-128 157h168l44 -57l43 57h168zM711 680v-680h-179l-278 343v-343h-201v680h185l272 -344v344h201z" />
    <glyph glyph-name="Ncommaaccent" unicode="&#x145;" horiz-adv-x="765" 
d="M711 680v-680h-179l-278 343v-343h-201v680h185l272 -344v344h201zM296 -292l43 85c-32 14 -49 41 -49 69c0 48 40 85 89 85s89 -37 89 -85c0 -34 -15 -59 -83 -154h-89z" />
    <glyph glyph-name="Ntilde" unicode="&#xd1;" horiz-adv-x="765" 
d="M460 903h139c0 -168 -136 -195 -213 -150l-28 17c-27 16 -38 1 -38 -24h-139c0 167 135 192 213 149l28 -17c28 -16 38 -1 38 25zM711 680v-680h-179l-278 343v-343h-201v680h185l272 -344v344h201z" />
    <glyph glyph-name="O" unicode="O" horiz-adv-x="802" 
d="M401 695c218 0 367 -142 367 -355s-149 -355 -367 -355s-367 142 -367 355s149 355 367 355zM401 167c94 0 160 69 160 173s-66 173 -160 173s-160 -69 -160 -173s66 -173 160 -173z" />
    <glyph glyph-name="Oacute" unicode="&#xd3;" horiz-adv-x="802" 
d="M633 890l-140 -153h-184l96 153h228zM401 695c218 0 366 -142 366 -355s-148 -355 -366 -355s-367 142 -367 355s149 355 367 355zM401 167c95 0 161 69 161 173s-66 173 -161 173c-94 0 -160 -69 -160 -173s66 -173 160 -173z" />
    <glyph glyph-name="Ocircumflex" unicode="&#xd4;" horiz-adv-x="802" 
d="M401 793l-44 -56h-168l128 153h167l128 -153h-168zM401 695c218 0 366 -142 366 -355s-148 -355 -366 -355s-367 142 -367 355s149 355 367 355zM401 167c95 0 161 69 161 173s-66 173 -161 173c-94 0 -160 -69 -160 -173s66 -173 160 -173z" />
    <glyph glyph-name="Odieresis" unicode="&#xd6;" horiz-adv-x="802" 
d="M279 728c-57 0 -102 41 -102 97s45 98 102 98c56 0 102 -42 102 -98s-46 -97 -102 -97zM523 728c-57 0 -103 41 -103 97s46 98 103 98c55 0 101 -42 101 -98s-46 -97 -101 -97zM401 695c218 0 366 -142 366 -355s-148 -355 -366 -355s-367 142 -367 355s149 355 367 355z
M401 167c95 0 161 69 161 173s-66 173 -161 173c-94 0 -160 -69 -160 -173s66 -173 160 -173z" />
    <glyph glyph-name="Ograve" unicode="&#xd2;" horiz-adv-x="802" 
d="M496 737h-182l-140 153h229zM401 695c218 0 366 -142 366 -355s-148 -355 -366 -355s-367 142 -367 355s149 355 367 355zM401 167c95 0 161 69 161 173s-66 173 -161 173c-94 0 -160 -69 -160 -173s66 -173 160 -173z" />
    <glyph glyph-name="Ohungarumlaut" unicode="&#x150;" horiz-adv-x="802" 
d="M431 897l-60 -154h-131l35 154h156zM617 897l-59 -154h-131l34 154h156zM401 695c218 0 366 -142 366 -355s-148 -355 -366 -355s-367 142 -367 355s149 355 367 355zM401 167c95 0 161 69 161 173s-66 173 -161 173c-94 0 -160 -69 -160 -173s66 -173 160 -173z" />
    <glyph glyph-name="Omacron" unicode="&#x14c;" horiz-adv-x="802" 
d="M574 887v-140h-346v140h346zM401 695c218 0 366 -142 366 -355s-148 -355 -366 -355s-367 142 -367 355s149 355 367 355zM401 167c95 0 161 69 161 173s-66 173 -161 173c-94 0 -160 -69 -160 -173s66 -173 160 -173z" />
    <glyph glyph-name="Oslash" unicode="&#xd8;" horiz-adv-x="802" 
d="M714 634l-39 -46c58 -61 92 -147 92 -248c0 -213 -148 -355 -366 -355c-76 0 -144 17 -200 49l-40 -47l-77 65l38 45c-56 61 -88 144 -88 243c0 213 149 355 367 355c73 0 139 -16 194 -46l42 50zM241 340c0 -32 6 -60 17 -84l209 244c-20 9 -42 13 -66 13
c-94 0 -160 -69 -160 -173zM401 167c95 0 161 69 161 173c0 35 -7 66 -21 92l-213 -249c22 -10 46 -16 73 -16z" />
    <glyph glyph-name="Otilde" unicode="&#xd5;" horiz-adv-x="802" 
d="M482 903h139c0 -168 -136 -195 -213 -150l-28 17c-27 16 -38 1 -38 -24h-139c0 167 135 192 213 149l28 -17c28 -16 38 -1 38 25zM401 695c218 0 366 -142 366 -355s-148 -355 -366 -355s-367 142 -367 355s149 355 367 355zM401 167c95 0 161 69 161 173
s-66 173 -161 173c-94 0 -160 -69 -160 -173s66 -173 160 -173z" />
    <glyph glyph-name="OE" unicode="&#x152;" horiz-adv-x="1004" 
d="M643 422h280v-162h-280v-91h327v-169h-528c-240 1 -408 128 -408 340s168 339 408 340h528v-169h-327v-89zM241 340c0 -103 71 -157 201 -158v316c-130 -1 -201 -55 -201 -158z" />
    <glyph glyph-name="P" unicode="P" horiz-adv-x="656" 
d="M332 688c191 0 306 -94 306 -265c0 -164 -115 -261 -306 -261h-77v-162h-202v680c100 4 183 8 279 8zM255 332h81c60 0 99 34 99 91c0 64 -39 95 -99 95c-28 0 -55 0 -81 -1v-185z" />
    <glyph glyph-name="Thorn" unicode="&#xde;" horiz-adv-x="659" 
d="M332 608c191 0 306 -94 306 -265c0 -164 -115 -261 -306 -261h-77v-82h-202v680h202v-73c25 0 51 1 77 1zM255 252h81c60 0 99 34 99 91c0 64 -39 95 -99 95c-28 0 -55 0 -81 -1v-185z" />
    <glyph glyph-name="Q" unicode="Q" horiz-adv-x="802" 
d="M767 340c0 -140 -64 -249 -170 -308l154 -197h-232l-119 150c-217 0 -366 142 -366 355s149 355 367 355s366 -142 366 -355zM241 340c0 -104 66 -173 160 -173c95 0 161 69 161 173s-66 173 -161 173c-94 0 -160 -69 -160 -173z" />
    <glyph glyph-name="R" unicode="R" horiz-adv-x="684" 
d="M344 177h-31h-58v-177h-202v680c92 3 192 7 289 7c186 0 297 -87 297 -249c0 -91 -38 -163 -104 -208l150 -230h-235zM255 340h78c65 0 103 37 103 92c0 60 -38 86 -106 86h-75v-178z" />
    <glyph glyph-name="Racute" unicode="&#x154;" horiz-adv-x="684" 
d="M545 890l-140 -153h-184l96 153h228zM344 177h-31h-59v-177h-201v680c92 3 191 7 289 7c186 0 296 -87 296 -249c0 -91 -37 -163 -104 -208l151 -230h-235zM255 340h78c66 0 103 37 103 92c0 60 -37 86 -106 86h-75v-178z" />
    <glyph glyph-name="Rcaron" unicode="&#x158;" horiz-adv-x="684" 
d="M396 732h-167l-128 157h168l44 -57l43 57h168zM344 177h-31h-59v-177h-201v680c92 3 191 7 289 7c186 0 296 -87 296 -249c0 -91 -37 -163 -104 -208l151 -230h-235zM255 340h78c66 0 103 37 103 92c0 60 -37 86 -106 86h-75v-178z" />
    <glyph glyph-name="Rcommaaccent" unicode="&#x156;" horiz-adv-x="684" 
d="M344 177h-31h-59v-177h-201v680c92 3 191 7 289 7c186 0 296 -87 296 -249c0 -91 -37 -163 -104 -208l151 -230h-235zM255 340h78c66 0 103 37 103 92c0 60 -37 86 -106 86h-75v-178zM261 -289l43 85c-32 14 -49 41 -49 69c0 48 40 85 89 85s89 -37 89 -85
c0 -34 -15 -59 -83 -154h-89z" />
    <glyph glyph-name="S" unicode="S" horiz-adv-x="680" 
d="M631 647l-38 -172c-106 31 -184 47 -243 47c-46 0 -74 -12 -74 -44c0 -37 46 -41 131 -60c130 -29 234 -74 234 -212c0 -141 -109 -221 -289 -221c-99 0 -211 24 -322 61l45 170c116 -40 202 -58 257 -60c63 -2 85 20 85 44c0 39 -60 46 -134 62
c-156 35 -228 82 -228 205c0 144 108 225 289 225c89 0 203 -18 287 -45z" />
    <glyph glyph-name="Sacute" unicode="&#x15a;" horiz-adv-x="680" 
d="M632 890l-140 -153h-184l96 153h228zM631 647l-38 -172c-106 31 -185 47 -243 47c-46 0 -74 -12 -74 -44c0 -37 45 -41 131 -60c130 -29 234 -74 234 -212c0 -141 -109 -221 -290 -221c-98 0 -211 24 -321 61l45 170c116 -40 202 -58 256 -60c64 -2 86 20 86 44
c0 39 -60 46 -134 62c-156 35 -229 82 -229 205c0 144 109 225 290 225c89 0 203 -18 287 -45z" />
    <glyph glyph-name="Scaron" unicode="&#x160;" horiz-adv-x="680" 
d="M483 732h-167l-128 157h168l44 -57l43 57h168zM631 647l-38 -172c-106 31 -185 47 -243 47c-46 0 -74 -12 -74 -44c0 -37 45 -41 131 -60c130 -29 234 -74 234 -212c0 -141 -109 -221 -290 -221c-98 0 -211 24 -321 61l45 170c116 -40 202 -58 256 -60c64 -2 86 20 86 44
c0 39 -60 46 -134 62c-156 35 -229 82 -229 205c0 144 109 225 290 225c89 0 203 -18 287 -45z" />
    <glyph glyph-name="Scedilla" unicode="&#x15e;" horiz-adv-x="680" 
d="M631 647l-38 -172c-106 31 -185 47 -243 47c-46 0 -74 -12 -74 -44c0 -37 45 -41 131 -60c130 -29 234 -74 234 -212c0 -141 -109 -221 -290 -221c-98 0 -211 24 -321 61l45 170c116 -40 202 -58 256 -60c64 -2 86 20 86 44c0 39 -60 46 -134 62
c-156 35 -229 82 -229 205c0 144 109 225 290 225c89 0 203 -18 287 -45zM325 -213h-135l43 167h165z" />
    <glyph glyph-name="Scommaaccent" unicode="&#x218;" horiz-adv-x="680" 
d="M631 647l-38 -172c-106 31 -185 47 -243 47c-46 0 -74 -12 -74 -44c0 -37 45 -41 131 -60c130 -29 234 -74 234 -212c0 -141 -109 -221 -290 -221c-98 0 -211 24 -321 61l45 170c116 -40 202 -58 256 -60c64 -2 86 20 86 44c0 39 -60 46 -134 62
c-156 35 -229 82 -229 205c0 144 109 225 290 225c89 0 203 -18 287 -45zM235 -289l43 85c-32 14 -49 41 -49 69c0 48 40 85 89 85s89 -37 89 -85c0 -34 -15 -59 -83 -154h-89z" />
    <glyph glyph-name="T" unicode="T" horiz-adv-x="673" 
d="M437 505v-505h-201v505h-216v175h633v-175h-216z" />
    <glyph glyph-name="Tcaron" unicode="&#x164;" horiz-adv-x="673" 
d="M419 732h-167l-128 157h168l44 -57l43 57h168zM437 505v-505h-201v505h-216v175h633v-175h-216z" />
    <glyph glyph-name="uni021A" unicode="&#x21a;" horiz-adv-x="673" 
d="M437 505v-505h-201v505h-216v175h633v-175h-216zM255 -289l43 85c-32 14 -49 41 -49 69c0 48 40 85 89 85s89 -37 89 -85c0 -34 -15 -59 -83 -154h-89z" />
    <glyph glyph-name="U" unicode="U" horiz-adv-x="740" 
d="M696 680v-361c0 -212 -121 -334 -326 -334s-327 122 -327 334v361h204v-361c0 -93 47 -146 123 -146s122 53 122 146v361h204z" />
    <glyph glyph-name="Uacute" unicode="&#xda;" horiz-adv-x="740" 
d="M602 890l-140 -153h-184l96 153h228zM696 680v-361c0 -212 -121 -334 -327 -334c-205 0 -326 122 -326 334v361h204v-361c0 -93 46 -146 122 -146s123 53 123 146v361h204z" />
    <glyph glyph-name="Ucircumflex" unicode="&#xdb;" horiz-adv-x="740" 
d="M370 793l-44 -56h-168l128 153h167l128 -153h-168zM696 680v-361c0 -212 -121 -334 -327 -334c-205 0 -326 122 -326 334v361h204v-361c0 -93 46 -146 122 -146s123 53 123 146v361h204z" />
    <glyph glyph-name="Udieresis" unicode="&#xdc;" horiz-adv-x="740" 
d="M248 728c-57 0 -102 41 -102 97s45 98 102 98c56 0 102 -42 102 -98s-46 -97 -102 -97zM492 728c-57 0 -103 41 -103 97s46 98 103 98c55 0 101 -42 101 -98s-46 -97 -101 -97zM696 680v-361c0 -212 -121 -334 -327 -334c-205 0 -326 122 -326 334v361h204v-361
c0 -93 46 -146 122 -146s123 53 123 146v361h204z" />
    <glyph glyph-name="Ugrave" unicode="&#xd9;" horiz-adv-x="740" 
d="M465 737h-182l-140 153h229zM696 680v-361c0 -212 -121 -334 -327 -334c-205 0 -326 122 -326 334v361h204v-361c0 -93 46 -146 122 -146s123 53 123 146v361h204z" />
    <glyph glyph-name="Uhungarumlaut" unicode="&#x170;" horiz-adv-x="740" 
d="M400 897l-60 -154h-131l35 154h156zM586 897l-59 -154h-131l34 154h156zM696 680v-361c0 -212 -121 -334 -327 -334c-205 0 -326 122 -326 334v361h204v-361c0 -93 46 -146 122 -146s123 53 123 146v361h204z" />
    <glyph glyph-name="Umacron" unicode="&#x16a;" horiz-adv-x="740" 
d="M543 887v-140h-346v140h346zM696 680v-361c0 -212 -121 -334 -327 -334c-205 0 -326 122 -326 334v361h204v-361c0 -93 46 -146 122 -146s123 53 123 146v361h204z" />
    <glyph glyph-name="Uogonek" unicode="&#x172;" horiz-adv-x="740" 
d="M696 680v-361c0 -163 -71 -273 -198 -315c-44 -15 -56 -28 -56 -46c0 -19 15 -30 43 -30c17 0 31 2 52 8l18 -144c-15 -8 -54 -17 -91 -17c-97 0 -167 53 -167 131c0 29 12 57 42 80c-187 11 -296 132 -296 333v361h204v-361c0 -93 46 -146 122 -146s123 53 123 146v361
h204z" />
    <glyph glyph-name="Uring" unicode="&#x16e;" horiz-adv-x="740" 
d="M369 980c82 0 141 -52 141 -131c0 -78 -59 -131 -141 -131s-141 53 -141 131c0 79 59 131 141 131zM369 802c29 0 48 19 48 47s-19 47 -48 47s-48 -19 -48 -47s19 -47 48 -47zM696 680v-361c0 -212 -121 -334 -327 -334c-205 0 -326 122 -326 334v361h204v-361
c0 -93 46 -146 122 -146s123 53 123 146v361h204z" />
    <glyph glyph-name="V" unicode="V" horiz-adv-x="799" 
d="M503 0h-206l-287 680h225l164 -417l166 417h224z" />
    <glyph glyph-name="W" unicode="W" horiz-adv-x="1069" 
d="M854 0h-197l-122 353l-123 -353h-197l-207 680h214l103 -362l127 362h165l126 -362l104 362h214z" />
    <glyph glyph-name="Wacute" unicode="&#x1e82;" horiz-adv-x="1069" 
d="M767 890l-140 -153h-184l96 153h228zM854 0h-197l-122 353l-123 -353h-197l-207 680h214l103 -362l127 362h165l126 -362l104 362h214z" />
    <glyph glyph-name="Wcircumflex" unicode="&#x174;" horiz-adv-x="1069" 
d="M535 793l-44 -56h-168l128 153h167l128 -153h-168zM854 0h-197l-122 353l-123 -353h-197l-207 680h214l103 -362l127 362h165l126 -362l104 362h214z" />
    <glyph glyph-name="Wdieresis" unicode="&#x1e84;" horiz-adv-x="1069" 
d="M413 728c-57 0 -102 41 -102 97s45 98 102 98c56 0 102 -42 102 -98s-46 -97 -102 -97zM657 728c-57 0 -103 41 -103 97s46 98 103 98c55 0 101 -42 101 -98s-46 -97 -101 -97zM854 0h-197l-122 353l-123 -353h-197l-207 680h214l103 -362l127 362h165l126 -362l104 362
h214z" />
    <glyph glyph-name="Wgrave" unicode="&#x1e80;" horiz-adv-x="1069" 
d="M630 737h-182l-140 153h229zM854 0h-197l-122 353l-123 -353h-197l-207 680h214l103 -362l127 362h165l126 -362l104 362h214z" />
    <glyph glyph-name="X" unicode="X" horiz-adv-x="755" 
d="M512 334l233 -334h-230l-138 184l-138 -184h-230l233 334l-231 346h241l125 -185l124 185h242z" />
    <glyph glyph-name="Y" unicode="Y" horiz-adv-x="752" 
d="M275 205l-267 475h224l143 -260l145 260h224l-267 -475v-205h-201z" />
    <glyph glyph-name="Yacute" unicode="&#xdd;" horiz-adv-x="752" 
d="M608 890l-140 -153h-184l96 153h228zM275 205l-267 475h224l143 -260l145 260h224l-267 -475v-205h-201z" />
    <glyph glyph-name="Ycircumflex" unicode="&#x176;" horiz-adv-x="752" 
d="M376 793l-44 -56h-168l128 153h167l128 -153h-168zM275 205l-267 475h224l143 -260l145 260h224l-267 -475v-205h-201z" />
    <glyph glyph-name="Ydieresis" unicode="&#x178;" horiz-adv-x="752" 
d="M254 728c-57 0 -102 41 -102 97s45 98 102 98c56 0 102 -42 102 -98s-46 -97 -102 -97zM498 728c-57 0 -103 41 -103 97s46 98 103 98c55 0 101 -42 101 -98s-46 -97 -101 -97zM275 205l-267 475h224l143 -260l145 260h224l-267 -475v-205h-201z" />
    <glyph glyph-name="Ygrave" unicode="&#x1ef2;" horiz-adv-x="752" 
d="M471 737h-182l-140 153h229zM275 205l-267 475h224l143 -260l145 260h224l-267 -475v-205h-201z" />
    <glyph glyph-name="Z" unicode="Z" horiz-adv-x="664" 
d="M625 551l-301 -376h309v-175h-603v129l310 376h-291v175h576v-129z" />
    <glyph glyph-name="Zacute" unicode="&#x179;" horiz-adv-x="664" 
d="M564 890l-140 -153h-184l96 153h228zM625 551l-301 -376h308v-175h-602v129l309 376h-291v175h577v-129z" />
    <glyph glyph-name="Zcaron" unicode="&#x17d;" horiz-adv-x="664" 
d="M415 732h-167l-128 157h168l44 -57l43 57h168zM625 551l-301 -376h308v-175h-602v129l309 376h-291v175h577v-129z" />
    <glyph glyph-name="Zdotaccent" unicode="&#x17b;" horiz-adv-x="664" 
d="M330 728c-54 0 -98 40 -98 94c0 53 44 93 98 93s98 -40 98 -93c0 -54 -44 -94 -98 -94zM625 551l-301 -376h308v-175h-602v129l309 376h-291v175h577v-129z" />
    <glyph glyph-name="R.ss02" horiz-adv-x="679" 
d="M342 687c186 0 297 -87 297 -249c0 -104 -58 -184 -156 -221h-1l200 -217h-249l-172 187h-6v-187h-202v680c92 3 192 7 289 7zM343 518h-88v-164h91c52 0 90 37 90 85c0 53 -38 79 -93 79z" />
    <glyph glyph-name="Racute.ss02" horiz-adv-x="679" 
d="M551 890l-140 -153h-184l96 153h228zM342 687c186 0 296 -87 296 -249c0 -104 -58 -184 -155 -221h-1l199 -217h-248l-172 187h-7v-187h-201v680c92 3 191 7 289 7zM343 518h-88v-164h92c52 0 89 37 89 85c0 53 -37 79 -93 79z" />
    <glyph glyph-name="Rcaron.ss02" horiz-adv-x="679" 
d="M402 732h-167l-128 157h168l44 -57l43 57h168zM342 687c186 0 296 -87 296 -249c0 -104 -58 -184 -155 -221h-1l199 -217h-248l-172 187h-7v-187h-201v680c92 3 191 7 289 7zM343 518h-88v-164h92c52 0 89 37 89 85c0 53 -37 79 -93 79z" />
    <glyph glyph-name="Rcommaaccent.ss02" horiz-adv-x="679" 
d="M342 687c186 0 296 -87 296 -249c0 -104 -58 -184 -155 -221h-1l199 -217h-248l-172 187h-7v-187h-201v680c92 3 191 7 289 7zM343 518h-88v-164h92c52 0 89 37 89 85c0 53 -37 79 -93 79zM251 -289l43 85c-32 14 -49 41 -49 69c0 48 40 85 89 85s89 -37 89 -85
c0 -34 -15 -59 -83 -154h-89z" />
    <glyph glyph-name="Q.ss04" horiz-adv-x="802" 
d="M401 695c218 0 366 -142 366 -355s-148 -355 -366 -355s-367 142 -367 355s149 355 367 355zM401 167c95 0 161 69 161 173s-66 173 -161 173c-94 0 -160 -69 -160 -173s66 -173 160 -173zM719 -46v-155c-112 0 -230 10 -342 30v125h342z" />
    <glyph glyph-name="a" unicode="a" horiz-adv-x="635" 
d="M274 507c79 0 124 -3 311 -24v-483h-193v31c-37 -29 -77 -46 -135 -46c-98 0 -230 80 -230 264c5 155 99 258 247 258zM312 357c-62 0 -100 -43 -100 -110c0 -62 42 -105 97 -105c26 0 53 11 83 37v173c-35 3 -56 5 -80 5z" />
    <glyph glyph-name="aacute" unicode="&#xe1;" horiz-adv-x="635" 
d="M560 722l-140 -157h-181l93 157h228zM274 507c79 0 124 -3 312 -24v-483h-194v31c-37 -29 -77 -46 -135 -46c-97 0 -230 80 -230 264c5 155 99 258 247 258zM312 357c-62 0 -100 -43 -100 -110c0 -62 42 -105 97 -105c26 0 53 11 83 37v173c-35 3 -56 5 -80 5z" />
    <glyph glyph-name="abreve" unicode="&#x103;" horiz-adv-x="635" 
d="M384 736h140c0 -113 -78 -178 -190 -178s-190 65 -190 178h139c0 -31 21 -52 51 -52s50 21 50 52zM274 507c79 0 124 -3 312 -24v-483h-194v31c-37 -29 -77 -46 -135 -46c-97 0 -230 80 -230 264c5 155 99 258 247 258zM312 357c-62 0 -100 -43 -100 -110
c0 -62 42 -105 97 -105c26 0 53 11 83 37v173c-35 3 -56 5 -80 5z" />
    <glyph glyph-name="acaron" unicode="&#x1ce;" horiz-adv-x="635" 
d="M417 565h-167l-128 157h168l44 -57l43 57h168zM274 507c79 0 124 -3 312 -24v-483h-194v31c-37 -29 -77 -46 -135 -46c-97 0 -230 80 -230 264c5 155 99 258 247 258zM312 357c-62 0 -100 -43 -100 -110c0 -62 42 -105 97 -105c26 0 53 11 83 37v173c-35 3 -56 5 -80 5z
" />
    <glyph glyph-name="acircumflex" unicode="&#xe2;" horiz-adv-x="635" 
d="M334 620l-44 -53h-168l128 151h167l128 -151h-168zM274 507c79 0 124 -3 312 -24v-483h-194v31c-37 -29 -77 -46 -135 -46c-97 0 -230 80 -230 264c5 155 99 258 247 258zM312 357c-62 0 -100 -43 -100 -110c0 -62 42 -105 97 -105c26 0 53 11 83 37v173
c-35 3 -56 5 -80 5z" />
    <glyph glyph-name="adieresis" unicode="&#xe4;" horiz-adv-x="635" 
d="M212 751c56 0 102 -42 102 -98s-46 -97 -102 -97c-57 0 -102 41 -102 97s45 98 102 98zM456 751c56 0 102 -42 102 -98s-46 -97 -102 -97c-57 0 -102 41 -102 97s45 98 102 98zM274 507c79 0 124 -3 312 -24v-483h-194v31c-37 -29 -77 -46 -135 -46
c-97 0 -230 80 -230 264c5 155 99 258 247 258zM312 357c-62 0 -100 -43 -100 -110c0 -62 42 -105 97 -105c26 0 53 11 83 37v173c-35 3 -56 5 -80 5z" />
    <glyph glyph-name="agrave" unicode="&#xe0;" horiz-adv-x="635" 
d="M426 565h-181l-140 157h228zM274 507c79 0 124 -3 312 -24v-483h-194v31c-37 -29 -77 -46 -135 -46c-97 0 -230 80 -230 264c5 155 99 258 247 258zM312 357c-62 0 -100 -43 -100 -110c0 -62 42 -105 97 -105c26 0 53 11 83 37v173c-35 3 -56 5 -80 5z" />
    <glyph glyph-name="amacron" unicode="&#x101;" horiz-adv-x="635" 
d="M481 707v-140h-294v140h294zM274 507c79 0 124 -3 312 -24v-483h-194v31c-37 -29 -77 -46 -135 -46c-97 0 -230 80 -230 264c5 155 99 258 247 258zM312 357c-62 0 -100 -43 -100 -110c0 -62 42 -105 97 -105c26 0 53 11 83 37v173c-35 3 -56 5 -80 5z" />
    <glyph glyph-name="aogonek" unicode="&#x105;" horiz-adv-x="635" 
d="M576 -59l18 -144c-15 -8 -54 -17 -91 -17c-97 0 -167 53 -167 131c0 33 16 65 56 90v30c-37 -29 -77 -46 -135 -46c-97 0 -230 80 -230 264c5 155 99 258 247 258c79 0 124 -3 312 -24v-483h-72c-25 -12 -33 -23 -33 -37c0 -19 15 -30 43 -30c17 0 31 2 52 8zM309 142
c26 0 53 11 83 37v173c-35 3 -56 5 -80 5c-62 0 -100 -43 -100 -110c0 -62 42 -105 97 -105z" />
    <glyph glyph-name="aring" unicode="&#xe5;" horiz-adv-x="635" 
d="M333 822c82 0 141 -53 141 -131s-59 -131 -141 -131s-141 53 -141 131s59 131 141 131zM333 644c29 0 48 19 48 47s-19 47 -48 47s-48 -19 -48 -47s19 -47 48 -47zM274 507c79 0 124 -3 312 -24v-483h-194v31c-37 -29 -77 -46 -135 -46c-97 0 -230 80 -230 264
c5 155 99 258 247 258zM312 357c-62 0 -100 -43 -100 -110c0 -62 42 -105 97 -105c26 0 53 11 83 37v173c-35 3 -56 5 -80 5z" />
    <glyph glyph-name="atilde" unicode="&#xe3;" horiz-adv-x="635" 
d="M408 723h132c0 -160 -130 -186 -204 -143l-27 17c-26 15 -37 1 -37 -24h-132c0 160 128 184 204 143l27 -17c27 -14 37 -1 37 24zM274 507c79 0 124 -3 312 -24v-483h-194v31c-37 -29 -77 -46 -135 -46c-97 0 -230 80 -230 264c5 155 99 258 247 258zM312 357
c-62 0 -100 -43 -100 -110c0 -62 42 -105 97 -105c26 0 53 11 83 37v173c-35 3 -56 5 -80 5z" />
    <glyph glyph-name="ae" unicode="&#xe6;" horiz-adv-x="878" 
d="M849 276c0 -30 -3 -52 -10 -85h-312c17 -38 52 -58 108 -58c47 0 92 5 173 22l23 -129c-55 -20 -129 -41 -204 -41c-62 0 -115 13 -158 37c-144 -38 -197 -37 -249 -37c-127 0 -195 67 -195 162c0 99 59 145 205 144l104 -1l-1 11c-3 38 -12 56 -60 56
c-55 0 -92 -4 -184 -16l-20 145c111 16 161 22 226 22c67 1 119 -13 154 -42c42 27 92 42 150 42c148 0 250 -93 250 -231v-1zM607 365c-47 0 -76 -27 -86 -74h165c-2 45 -32 74 -79 74zM204 149c0 -23 20 -38 62 -38c22 0 57 2 104 12c-10 19 -17 39 -22 61h-88
c-43 0 -56 -16 -56 -35z" />
    <glyph glyph-name="b" unicode="b" horiz-adv-x="636" 
d="M245 710v-209c43 4 79 6 114 6c153 0 246 -103 250 -257c0 -188 -134 -264 -244 -264c-84 0 -132 5 -314 23v701h194zM321 357c-17 0 -41 -2 -76 -7v-202c40 -4 64 -6 78 -6c61 0 101 43 101 107c0 66 -38 108 -103 108z" />
    <glyph glyph-name="c" unicode="c" horiz-adv-x="512" 
d="M487 480l-24 -141c-58 9 -98 15 -134 15c-75 0 -119 -44 -119 -108c0 -63 44 -104 116 -104c30 0 90 6 144 15l17 -142c-56 -18 -125 -30 -177 -30c-169 0 -283 104 -283 261c0 159 114 263 285 263c49 0 119 -11 175 -29z" />
    <glyph glyph-name="cacute" unicode="&#x107;" horiz-adv-x="512" 
d="M519 717l-140 -157h-181l93 157h228zM487 480l-23 -141c-58 9 -98 15 -135 15c-75 0 -119 -44 -119 -108c0 -63 45 -104 116 -104c31 0 90 6 144 15l17 -142c-56 -18 -125 -30 -176 -30c-169 0 -284 104 -284 261c0 159 114 263 285 263c49 0 119 -11 175 -29z" />
    <glyph glyph-name="ccaron" unicode="&#x10d;" horiz-adv-x="512" 
d="M376 560h-167l-128 157h168l44 -57l43 57h168zM487 480l-23 -141c-58 9 -98 15 -135 15c-75 0 -119 -44 -119 -108c0 -63 45 -104 116 -104c31 0 90 6 144 15l17 -142c-56 -18 -125 -30 -176 -30c-169 0 -284 104 -284 261c0 159 114 263 285 263c49 0 119 -11 175 -29z
" />
    <glyph glyph-name="ccedilla" unicode="&#xe7;" horiz-adv-x="512" 
d="M487 480l-23 -141c-58 9 -98 15 -135 15c-75 0 -119 -44 -119 -108c0 -63 45 -104 116 -104c31 0 90 6 144 15l17 -142c-56 -18 -125 -30 -176 -30c-169 0 -284 104 -284 261c0 159 114 263 285 263c49 0 119 -11 175 -29zM284 -213h-135l43 167h165z" />
    <glyph glyph-name="cdotaccent" unicode="&#x10b;" horiz-adv-x="512" 
d="M293 551c-57 0 -102 41 -102 97s45 98 102 98c56 0 102 -42 102 -98s-46 -97 -102 -97zM487 480l-23 -141c-58 9 -98 15 -135 15c-75 0 -119 -44 -119 -108c0 -63 45 -104 116 -104c31 0 90 6 144 15l17 -142c-56 -18 -125 -30 -176 -30c-169 0 -284 104 -284 261
c0 159 114 263 285 263c49 0 119 -11 175 -29z" />
    <glyph glyph-name="d" unicode="d" horiz-adv-x="636" 
d="M585 710v-701c-182 -18 -230 -23 -314 -23c-110 0 -244 76 -244 264c4 154 97 257 250 257c35 0 71 -2 114 -6v209h194zM315 357c-65 0 -103 -42 -103 -108c0 -64 40 -107 101 -107c14 0 38 2 78 6v202c-35 5 -59 7 -76 7z" />
    <glyph glyph-name="eth" unicode="&#xf0;" horiz-adv-x="602" 
d="M136 688l127 47c30 -14 60 -31 88 -50l102 37l34 -88l-51 -19c81 -80 139 -196 139 -340c0 -185 -112 -291 -274 -291s-274 106 -274 265c0 156 110 261 255 261c29 0 44 -4 69 -14c-22 28 -40 50 -58 67l-158 -57l-35 89l112 40zM301 350c-57 0 -97 -41 -97 -102
c0 -63 40 -104 97 -104c56 0 97 41 97 104c0 61 -41 102 -97 102z" />
    <glyph glyph-name="dcaron" unicode="&#x10f;" horiz-adv-x="636" 
d="M585 710v-701c-182 -18 -230 -23 -314 -23c-110 0 -244 76 -244 264c4 154 97 257 250 257c35 0 71 -2 114 -6v209h194zM787 710l-39 -203h-130l5 203h164zM315 357c-65 0 -103 -42 -103 -108c0 -64 40 -107 101 -107c14 0 38 2 78 6v202c-35 5 -59 7 -76 7z" />
    <glyph glyph-name="dcroat" unicode="&#x111;" horiz-adv-x="636" 
d="M619 545h-34v-536c-182 -18 -230 -23 -314 -23c-110 0 -244 76 -244 264c4 154 97 257 250 257c35 0 71 -2 114 -6v44h-130v121h130v44h194v-44h34v-121zM391 148v202c-35 5 -59 7 -76 7c-65 0 -103 -42 -103 -108c0 -64 40 -107 101 -107c14 0 38 2 78 6z" />
    <glyph glyph-name="e" unicode="e" horiz-adv-x="558" 
d="M281 508c148 0 250 -93 251 -231c0 -31 -3 -53 -10 -86h-312c16 -38 52 -58 101 -58c53 0 99 5 180 22l22 -129c-54 -20 -129 -41 -203 -41c-177 0 -287 109 -287 263c0 157 106 260 258 260zM289 365c-47 0 -76 -27 -86 -74h165c-2 45 -31 74 -79 74z" />
    <glyph glyph-name="eacute" unicode="&#xe9;" horiz-adv-x="558" 
d="M510 717l-140 -157h-181l93 157h228zM281 508c148 0 250 -93 250 -231c0 -31 -3 -53 -10 -86h-312c17 -38 52 -58 102 -58c53 0 98 5 179 22l23 -129c-55 -20 -129 -41 -204 -41c-177 0 -286 109 -286 263c0 157 106 260 258 260zM289 365c-47 0 -76 -27 -86 -74h165
c-1 45 -31 74 -79 74z" />
    <glyph glyph-name="ecaron" unicode="&#x11b;" horiz-adv-x="558" 
d="M367 560h-167l-128 157h168l44 -57l43 57h168zM281 508c148 0 250 -93 250 -231c0 -31 -3 -53 -10 -86h-312c17 -38 52 -58 102 -58c53 0 98 5 179 22l23 -129c-55 -20 -129 -41 -204 -41c-177 0 -286 109 -286 263c0 157 106 260 258 260zM289 365
c-47 0 -76 -27 -86 -74h165c-1 45 -31 74 -79 74z" />
    <glyph glyph-name="ecircumflex" unicode="&#xea;" horiz-adv-x="558" 
d="M284 615l-44 -53h-168l128 151h167l128 -151h-168zM281 508c148 0 250 -93 250 -231c0 -31 -3 -53 -10 -86h-312c17 -38 52 -58 102 -58c53 0 98 5 179 22l23 -129c-55 -20 -129 -41 -204 -41c-177 0 -286 109 -286 263c0 157 106 260 258 260zM289 365
c-47 0 -76 -27 -86 -74h165c-1 45 -31 74 -79 74z" />
    <glyph glyph-name="edieresis" unicode="&#xeb;" horiz-adv-x="558" 
d="M162 746c56 0 102 -42 102 -98s-46 -97 -102 -97c-57 0 -102 41 -102 97s45 98 102 98zM406 746c56 0 102 -42 102 -98s-46 -97 -102 -97c-57 0 -102 41 -102 97s45 98 102 98zM281 508c148 0 250 -93 250 -231c0 -31 -3 -53 -10 -86h-312c17 -38 52 -58 102 -58
c53 0 98 5 179 22l23 -129c-55 -20 -129 -41 -204 -41c-177 0 -286 109 -286 263c0 157 106 260 258 260zM289 365c-47 0 -76 -27 -86 -74h165c-1 45 -31 74 -79 74z" />
    <glyph glyph-name="edotaccent" unicode="&#x117;" horiz-adv-x="558" 
d="M284 551c-57 0 -102 41 -102 97s45 98 102 98c56 0 102 -42 102 -98s-46 -97 -102 -97zM281 508c148 0 250 -93 250 -231c0 -31 -3 -53 -10 -86h-312c17 -38 52 -58 102 -58c53 0 98 5 179 22l23 -129c-55 -20 -129 -41 -204 -41c-177 0 -286 109 -286 263
c0 157 106 260 258 260zM289 365c-47 0 -76 -27 -86 -74h165c-1 45 -31 74 -79 74z" />
    <glyph glyph-name="egrave" unicode="&#xe8;" horiz-adv-x="558" 
d="M376 560h-181l-140 157h228zM281 508c148 0 250 -93 250 -231c0 -31 -3 -53 -10 -86h-312c17 -38 52 -58 102 -58c53 0 98 5 179 22l23 -129c-55 -20 -129 -41 -204 -41c-177 0 -286 109 -286 263c0 157 106 260 258 260zM289 365c-47 0 -76 -27 -86 -74h165
c-1 45 -31 74 -79 74z" />
    <glyph glyph-name="emacron" unicode="&#x113;" horiz-adv-x="558" 
d="M431 702v-140h-294v140h294zM281 508c148 0 250 -93 250 -231c0 -31 -3 -53 -10 -86h-312c17 -38 52 -58 102 -58c53 0 98 5 179 22l23 -129c-55 -20 -129 -41 -204 -41c-177 0 -286 109 -286 263c0 157 106 260 258 260zM289 365c-47 0 -76 -27 -86 -74h165
c-1 45 -31 74 -79 74z" />
    <glyph glyph-name="eogonek" unicode="&#x119;" horiz-adv-x="558" 
d="M531 277c0 -31 -3 -53 -10 -86h-312c17 -38 52 -58 102 -58c53 0 98 5 179 22l23 -129c-18 -7 -39 -14 -61 -20c-44 -15 -56 -28 -56 -46c0 -19 15 -30 43 -30c17 0 31 2 52 8l18 -144c-15 -8 -54 -17 -91 -17c-97 0 -167 53 -167 131c0 28 11 55 39 77
c-166 8 -267 115 -267 263c0 157 106 260 258 260c148 0 250 -93 250 -231zM203 291h165c-1 45 -31 74 -79 74c-47 0 -76 -27 -86 -74z" />
    <glyph glyph-name="f" unicode="f" horiz-adv-x="442" 
d="M439 321h-148v-321h-193v321h-95v171h95v63c0 146 86 222 208 222c50 0 85 -4 128 -12l-17 -151c-23 2 -40 3 -56 3c-50 0 -70 -24 -70 -76v-49h148v-171z" />
    <glyph glyph-name="g" unicode="g" horiz-adv-x="632" 
d="M274 507c95 0 144 -7 311 -24v-480c0 -167 -102 -263 -299 -263c-60 0 -119 10 -183 29l24 140c57 -10 103 -18 151 -18c77 0 111 34 114 102c-46 -4 -79 -5 -121 -5c-112 0 -244 80 -244 261c4 155 99 258 247 258zM312 357c-62 0 -100 -43 -100 -110
c0 -59 42 -101 97 -101c19 0 42 0 83 6v200c-35 3 -56 5 -80 5z" />
    <glyph glyph-name="gbreve" unicode="&#x11f;" horiz-adv-x="632" 
d="M370 731h140c0 -113 -78 -178 -190 -178s-190 65 -190 178h139c0 -31 21 -52 51 -52s50 21 50 52zM274 507c96 0 144 -7 312 -24v-480c0 -167 -103 -263 -300 -263c-59 0 -119 10 -183 29l24 140c57 -10 103 -18 151 -18c78 0 111 34 114 102c-45 -4 -78 -5 -121 -5
c-111 0 -244 80 -244 261c5 155 99 258 247 258zM312 357c-62 0 -100 -43 -100 -110c0 -59 42 -101 97 -101c19 0 42 0 83 6v200c-35 3 -56 5 -80 5z" />
    <glyph glyph-name="gcommaaccent" unicode="&#x123;" horiz-adv-x="632" 
d="M409 811l-43 -85c32 -14 49 -41 49 -69c0 -48 -40 -85 -89 -85s-89 37 -89 85c0 34 15 59 83 154h89zM274 507c96 0 144 -7 312 -24v-480c0 -167 -103 -263 -300 -263c-59 0 -119 10 -183 29l24 140c57 -10 103 -18 151 -18c78 0 111 34 114 102c-45 -4 -78 -5 -121 -5
c-111 0 -244 80 -244 261c5 155 99 258 247 258zM312 357c-62 0 -100 -43 -100 -110c0 -59 42 -101 97 -101c19 0 42 0 83 6v200c-35 3 -56 5 -80 5z" />
    <glyph glyph-name="gdotaccent" unicode="&#x121;" horiz-adv-x="632" 
d="M320 551c-57 0 -102 41 -102 97s45 98 102 98c56 0 102 -42 102 -98s-46 -97 -102 -97zM274 507c96 0 144 -7 312 -24v-480c0 -167 -103 -263 -300 -263c-59 0 -119 10 -183 29l24 140c57 -10 103 -18 151 -18c78 0 111 34 114 102c-45 -4 -78 -5 -121 -5
c-111 0 -244 80 -244 261c5 155 99 258 247 258zM312 357c-62 0 -100 -43 -100 -110c0 -59 42 -101 97 -101c19 0 42 0 83 6v200c-35 3 -56 5 -80 5z" />
    <glyph glyph-name="h" unicode="h" horiz-adv-x="624" 
d="M384 507c117 0 195 -75 195 -189v-318h-194v258c0 61 -31 76 -63 76c-15 0 -38 -2 -80 -6v-328h-194v710h194v-211c59 6 101 8 142 8z" />
    <glyph glyph-name="hbar" unicode="&#x127;" horiz-adv-x="628" 
d="M383 507c117 0 196 -75 196 -189v-318h-194v258c0 61 -31 76 -63 76c-15 0 -38 -2 -80 -6v-328h-194v571h-32v99h32v40h194v-40h85v-99h-85v-72c59 6 101 8 141 8z" />
    <glyph glyph-name="i" unicode="i" horiz-adv-x="285" 
d="M142 544c-61 0 -111 46 -111 108s50 108 111 108s112 -46 112 -108s-51 -108 -112 -108zM240 492v-492h-194v492h194z" />
    <glyph glyph-name="dotlessi" unicode="&#x131;" horiz-adv-x="286" 
d="M240 492v-492h-194v492h194z" />
    <glyph glyph-name="iacute" unicode="&#xed;" horiz-adv-x="286" 
d="M369 717l-140 -157h-181l93 157h228zM240 492v-492h-194v492h194z" />
    <glyph glyph-name="icircumflex" unicode="&#xee;" horiz-adv-x="286" 
d="M143 615l-44 -53h-168l128 151h167l128 -151h-168zM240 492v-492h-194v492h194z" />
    <glyph glyph-name="idieresis" unicode="&#xef;" horiz-adv-x="286" 
d="M21 746c56 0 102 -42 102 -98s-46 -97 -102 -97c-57 0 -102 41 -102 97s45 98 102 98zM265 746c56 0 102 -42 102 -98s-46 -97 -102 -97c-57 0 -102 41 -102 97s45 98 102 98zM240 492v-492h-194v492h194z" />
    <glyph glyph-name="i.loclTRK" horiz-adv-x="286" 
d="M143 551c-57 0 -102 41 -102 97s45 98 102 98c56 0 102 -42 102 -98s-46 -97 -102 -97zM240 492v-492h-194v492h194z" />
    <glyph glyph-name="igrave" unicode="&#xec;" horiz-adv-x="286" 
d="M235 560h-181l-140 157h228zM240 492v-492h-194v492h194z" />
    <glyph glyph-name="ij" unicode="&#x133;" horiz-adv-x="605" 
d="M142 544c-61 0 -111 46 -111 108s50 108 111 108s112 -46 112 -108s-51 -108 -112 -108zM456 760c60 0 111 -46 111 -108s-51 -108 -111 -108c-62 0 -112 46 -112 108s50 108 112 108zM240 492v-492h-194v492h194zM553 492v-474c0 -159 -32 -259 -266 -264l-10 156
c82 5 82 40 82 95v487h194z" />
    <glyph glyph-name="imacron" unicode="&#x12b;" horiz-adv-x="286" 
d="M290 702v-140h-294v140h294zM240 492v-492h-194v492h194z" />
    <glyph glyph-name="iogonek" unicode="&#x12f;" horiz-adv-x="286" 
d="M143 551c-57 0 -102 41 -102 97s45 98 102 98c56 0 102 -42 102 -98s-46 -97 -102 -97zM46 492h194v-492h-87c-22 -11 -29 -22 -29 -35c0 -19 15 -30 43 -30c17 0 31 2 52 8l18 -144c-15 -8 -54 -17 -91 -17c-97 0 -167 53 -167 131c0 36 19 71 67 96v483z" />
    <glyph glyph-name="j" unicode="j" horiz-adv-x="296" 
d="M148 760c60 0 111 -46 111 -108s-51 -108 -111 -108c-62 0 -112 46 -112 108s50 108 112 108zM245 492v-474c0 -159 -32 -259 -266 -264l-10 156c82 5 82 40 82 95v487h194z" />
    <glyph glyph-name="k" unicode="k" horiz-adv-x="632" 
d="M245 334h11l128 158h217l-165 -205l186 -287h-220l-100 158h-57v-158h-194v710h194v-376z" />
    <glyph glyph-name="kcommaaccent" unicode="&#x137;" horiz-adv-x="632" 
d="M245 334h11l128 158h217l-165 -205l186 -287h-220l-100 158h-57v-158h-194v710h194v-376zM218 -289l43 85c-32 14 -49 41 -49 69c0 48 40 85 89 85s89 -37 89 -85c0 -34 -15 -59 -83 -154h-89z" />
    <glyph glyph-name="l" unicode="l" horiz-adv-x="297" 
d="M245 710v-710h-193v710h193z" />
    <glyph glyph-name="lacute" unicode="&#x13a;" horiz-adv-x="290" 
d="M372 905l-140 -156h-181l93 156h228zM246 710v-710h-194v710h194z" />
    <glyph glyph-name="lcaron" unicode="&#x13e;" horiz-adv-x="297" 
d="M246 710v-710h-194v710h194zM441 710l-39 -203h-130l5 203h164z" />
    <glyph glyph-name="lcommaaccent" unicode="&#x13c;" horiz-adv-x="297" 
d="M246 710v-710h-194v710h194zM61 -289l43 85c-32 14 -49 41 -49 69c0 48 40 85 89 85s89 -37 89 -85c0 -34 -15 -59 -83 -154h-89z" />
    <glyph glyph-name="ldot" unicode="&#x140;" horiz-adv-x="473" 
d="M246 710v-710h-194v710h194zM382 249c-57 0 -103 42 -103 98s46 98 103 98c55 0 101 -42 101 -98s-46 -98 -101 -98z" />
    <glyph glyph-name="lslash" unicode="&#x142;" horiz-adv-x="297" 
d="M290 309l-44 -15v-294h-194v230l-44 -15v153l44 15v327h194v-263l44 15v-153z" />
    <glyph glyph-name="m" unicode="m" horiz-adv-x="932" 
d="M688 507c115 0 199 -62 199 -189v-318h-194v258c0 64 -30 76 -66 76c-14 0 -33 -2 -64 -5c2 -20 3 -32 3 -54v-275h-194v258c0 64 -30 76 -66 76c-13 0 -32 -1 -61 -3v-331h-194v482c155 19 236 25 316 25c37 0 71 -6 100 -19c99 14 160 19 221 19z" />
    <glyph glyph-name="n" unicode="n" horiz-adv-x="627" 
d="M386 507c117 0 196 -75 196 -189v-318h-194v258c0 61 -31 76 -63 76c-15 0 -38 -2 -80 -4v-330h-194v483c169 19 257 24 335 24z" />
    <glyph glyph-name="nacute" unicode="&#x144;" horiz-adv-x="627" 
d="M540 717l-140 -157h-181l93 157h228zM386 507c117 0 196 -75 196 -189v-318h-194v258c0 61 -31 76 -63 76c-15 0 -38 -2 -80 -4v-330h-194v483c169 19 257 24 335 24z" />
    <glyph glyph-name="ncaron" unicode="&#x148;" horiz-adv-x="627" 
d="M397 560h-167l-128 157h168l44 -57l43 57h168zM386 507c117 0 196 -75 196 -189v-318h-194v258c0 61 -31 76 -63 76c-15 0 -38 -2 -80 -4v-330h-194v483c169 19 257 24 335 24z" />
    <glyph glyph-name="ncommaaccent" unicode="&#x146;" horiz-adv-x="627" 
d="M386 507c117 0 196 -75 196 -189v-318h-194v258c0 61 -31 76 -63 76c-15 0 -38 -2 -80 -4v-330h-194v483c169 19 257 24 335 24zM230 -289l43 85c-32 14 -49 41 -49 69c0 48 40 85 89 85s89 -37 89 -85c0 -34 -15 -59 -83 -154h-89z" />
    <glyph glyph-name="ntilde" unicode="&#xf1;" horiz-adv-x="627" 
d="M388 718h132c0 -160 -130 -186 -204 -143l-27 17c-26 15 -37 1 -37 -24h-132c0 160 128 184 204 143l27 -17c27 -14 37 -1 37 24zM386 507c117 0 196 -75 196 -189v-318h-194v258c0 61 -31 76 -63 76c-15 0 -38 -2 -80 -4v-330h-194v483c169 19 257 24 335 24z" />
    <glyph glyph-name="o" unicode="o" horiz-adv-x="615" 
d="M308 510c164 0 280 -105 280 -261c0 -159 -116 -265 -280 -265c-165 0 -281 106 -281 265c0 156 116 261 281 261zM308 144c58 0 103 41 103 104c0 61 -45 102 -103 102c-59 0 -104 -41 -104 -102c0 -63 45 -104 104 -104z" />
    <glyph glyph-name="oacute" unicode="&#xf3;" horiz-adv-x="615" 
d="M534 717l-140 -157h-181l93 157h228zM308 510c164 0 281 -105 281 -261c0 -159 -117 -265 -281 -265s-281 106 -281 265c0 156 117 261 281 261zM308 144c58 0 103 41 103 104c0 61 -45 102 -103 102c-59 0 -104 -41 -104 -102c0 -63 45 -104 104 -104z" />
    <glyph glyph-name="ocircumflex" unicode="&#xf4;" horiz-adv-x="615" 
d="M307 615l-44 -53h-168l128 151h167l128 -151h-168zM308 510c164 0 281 -105 281 -261c0 -159 -117 -265 -281 -265s-281 106 -281 265c0 156 117 261 281 261zM308 144c58 0 103 41 103 104c0 61 -45 102 -103 102c-59 0 -104 -41 -104 -102c0 -63 45 -104 104 -104z" />
    <glyph glyph-name="odieresis" unicode="&#xf6;" horiz-adv-x="615" 
d="M186 746c56 0 102 -42 102 -98s-46 -97 -102 -97c-57 0 -102 41 -102 97s45 98 102 98zM430 746c56 0 102 -42 102 -98s-46 -97 -102 -97c-57 0 -102 41 -102 97s45 98 102 98zM308 510c164 0 281 -105 281 -261c0 -159 -117 -265 -281 -265s-281 106 -281 265
c0 156 117 261 281 261zM308 144c58 0 103 41 103 104c0 61 -45 102 -103 102c-59 0 -104 -41 -104 -102c0 -63 45 -104 104 -104z" />
    <glyph glyph-name="ograve" unicode="&#xf2;" horiz-adv-x="615" 
d="M399 560h-181l-140 157h228zM308 510c164 0 281 -105 281 -261c0 -159 -117 -265 -281 -265s-281 106 -281 265c0 156 117 261 281 261zM308 144c58 0 103 41 103 104c0 61 -45 102 -103 102c-59 0 -104 -41 -104 -102c0 -63 45 -104 104 -104z" />
    <glyph glyph-name="ohungarumlaut" unicode="&#x151;" horiz-adv-x="615" 
d="M353 732l-67 -170h-145l38 170h174zM547 732l-67 -170h-145l38 170h174zM308 510c164 0 281 -105 281 -261c0 -159 -117 -265 -281 -265s-281 106 -281 265c0 156 117 261 281 261zM308 144c58 0 103 41 103 104c0 61 -45 102 -103 102c-59 0 -104 -41 -104 -102
c0 -63 45 -104 104 -104z" />
    <glyph glyph-name="omacron" unicode="&#x14d;" horiz-adv-x="615" 
d="M455 702v-140h-294v140h294zM308 510c164 0 281 -105 281 -261c0 -159 -117 -265 -281 -265s-281 106 -281 265c0 156 117 261 281 261zM308 144c58 0 103 41 103 104c0 61 -45 102 -103 102c-59 0 -104 -41 -104 -102c0 -63 45 -104 104 -104z" />
    <glyph glyph-name="oslash" unicode="&#xf8;" horiz-adv-x="615" 
d="M560 488l-46 -54c48 -46 75 -109 75 -185c0 -159 -117 -265 -281 -265c-54 0 -103 11 -144 32l-52 -62l-62 52l49 58c-46 46 -72 109 -72 185c0 156 117 261 281 261c52 0 99 -11 140 -30l50 60zM204 248c0 -17 3 -33 10 -47l122 146c-9 2 -18 3 -28 3
c-59 0 -104 -41 -104 -102zM308 144c58 0 103 41 103 104c0 18 -4 35 -11 49l-125 -148c10 -3 21 -5 33 -5z" />
    <glyph glyph-name="otilde" unicode="&#xf5;" horiz-adv-x="615" 
d="M381 718h132c0 -160 -130 -186 -204 -143l-27 17c-26 15 -37 1 -37 -24h-132c0 160 128 184 204 143l27 -17c27 -14 37 -1 37 24zM308 510c164 0 281 -105 281 -261c0 -159 -117 -265 -281 -265s-281 106 -281 265c0 156 117 261 281 261zM308 144c58 0 103 41 103 104
c0 61 -45 102 -103 102c-59 0 -104 -41 -104 -102c0 -63 45 -104 104 -104z" />
    <glyph glyph-name="oe" unicode="&#x153;" horiz-adv-x="948" 
d="M921 277c0 -31 -3 -53 -10 -86h-312c16 -38 52 -58 101 -58c53 0 99 5 180 22l23 -129c-55 -20 -129 -41 -204 -41c-82 0 -149 23 -198 64c-49 -42 -116 -65 -193 -65c-164 0 -281 106 -281 265c0 156 117 261 281 261c75 0 141 -22 190 -61c44 38 104 59 173 59
c148 0 249 -93 250 -231zM592 291h166c-2 45 -32 74 -80 74c-47 0 -76 -27 -86 -74zM308 144c58 0 103 41 103 104c0 61 -45 102 -103 102c-59 0 -104 -41 -104 -102c0 -63 45 -104 104 -104z" />
    <glyph glyph-name="p" unicode="p" horiz-adv-x="638" 
d="M363 507c148 0 241 -103 247 -258c0 -181 -133 -261 -245 -261c-42 0 -75 1 -120 5v-211h-194v701c171 21 233 24 312 24zM327 146c55 0 97 42 97 101c0 67 -38 110 -100 110c-23 0 -45 -2 -79 -5v-200c40 -6 63 -6 82 -6z" />
    <glyph glyph-name="thorn" unicode="&#xfe;" horiz-adv-x="639" 
d="M363 507c148 0 241 -103 247 -258c0 -184 -132 -264 -244 -264c-42 0 -75 1 -121 5v-208h-193v928h193v-208c45 4 77 5 118 5zM328 142c55 0 97 43 97 105c0 67 -38 110 -100 110c-24 0 -45 -2 -80 -5v-203c41 -6 64 -7 83 -7z" />
    <glyph glyph-name="q" unicode="q" horiz-adv-x="638" 
d="M276 507c79 0 140 -3 311 -24v-701h-193v211c-46 -4 -79 -5 -121 -5c-112 0 -244 80 -244 261c6 155 99 258 247 258zM311 146c19 0 42 0 83 6v200c-35 3 -56 5 -80 5c-62 0 -100 -43 -100 -110c0 -59 42 -101 97 -101z" />
    <glyph glyph-name="r" unicode="r" horiz-adv-x="425" 
d="M405 503v-186c-50 0 -106 -2 -160 -6v-311h-194v471c131 24 251 32 354 32z" />
    <glyph glyph-name="racute" unicode="&#x155;" horiz-adv-x="425" 
d="M454 717l-140 -157h-181l93 157h228zM405 503v-186c-50 0 -106 -2 -160 -6v-311h-194v471c131 24 251 32 354 32z" />
    <glyph glyph-name="rcaron" unicode="&#x159;" horiz-adv-x="425" 
d="M311 560h-167l-128 157h168l44 -57l43 57h168zM405 503v-186c-50 0 -106 -2 -160 -6v-311h-194v471c131 24 251 32 354 32z" />
    <glyph glyph-name="rcommaaccent" unicode="&#x157;" horiz-adv-x="425" 
d="M405 503v-186c-50 0 -106 -2 -160 -6v-311h-194v471c131 24 251 32 354 32zM67 -289l43 85c-32 14 -49 41 -49 69c0 48 40 85 89 85s89 -37 89 -85c0 -34 -15 -59 -83 -154h-89z" />
    <glyph glyph-name="s" unicode="s" horiz-adv-x="526" 
d="M30 30l35 138c87 -29 159 -44 193 -44c28 0 47 5 47 19c0 23 -37 25 -86 36c-112 26 -172 60 -172 156c0 112 82 173 224 173c67 0 154 -14 220 -34l-31 -140c-83 25 -144 37 -180 37c-27 0 -45 -7 -45 -24c0 -24 33 -23 92 -36c95 -22 169 -56 169 -158
c0 -108 -83 -168 -222 -168c-74 0 -159 17 -244 45z" />
    <glyph glyph-name="sacute" unicode="&#x15b;" horiz-adv-x="526" 
d="M501 722l-140 -157h-181l93 157h228zM30 30l35 138c87 -29 159 -44 193 -44c28 0 47 5 47 19c0 23 -37 25 -86 36c-112 26 -172 60 -172 156c0 112 82 173 224 173c67 0 154 -14 220 -34l-31 -140c-83 25 -144 37 -180 37c-27 0 -45 -7 -45 -24c0 -24 33 -23 92 -36
c95 -22 169 -56 169 -158c0 -108 -83 -168 -222 -168c-74 0 -159 17 -244 45z" />
    <glyph glyph-name="scaron" unicode="&#x161;" horiz-adv-x="526" 
d="M357 565h-167l-128 157h168l44 -57l43 57h168zM30 30l35 138c87 -29 159 -44 193 -44c28 0 47 5 47 19c0 23 -37 25 -86 36c-112 26 -172 60 -172 156c0 112 82 173 224 173c67 0 154 -14 220 -34l-31 -140c-83 25 -144 37 -180 37c-27 0 -45 -7 -45 -24
c0 -24 33 -23 92 -36c95 -22 169 -56 169 -158c0 -108 -83 -168 -222 -168c-74 0 -159 17 -244 45z" />
    <glyph glyph-name="scedilla" unicode="&#x15f;" horiz-adv-x="526" 
d="M30 30l35 138c87 -29 159 -44 193 -44c28 0 47 5 47 19c0 23 -37 25 -86 36c-112 26 -172 60 -172 156c0 112 82 173 224 173c67 0 154 -14 220 -34l-31 -140c-83 25 -144 37 -180 37c-27 0 -45 -7 -45 -24c0 -24 33 -23 92 -36c95 -22 169 -56 169 -158
c0 -108 -83 -168 -222 -168c-74 0 -159 17 -244 45zM284 -213h-135l43 167h165z" />
    <glyph glyph-name="scommaaccent" unicode="&#x219;" horiz-adv-x="526" 
d="M30 30l35 138c87 -29 159 -44 193 -44c28 0 47 5 47 19c0 23 -37 25 -86 36c-112 26 -172 60 -172 156c0 112 82 173 224 173c67 0 154 -14 220 -34l-31 -140c-83 25 -144 37 -180 37c-27 0 -45 -7 -45 -24c0 -24 33 -23 92 -36c95 -22 169 -56 169 -158
c0 -108 -83 -168 -222 -168c-74 0 -159 17 -244 45zM187 -289l43 85c-32 14 -49 41 -49 69c0 48 40 85 89 85s89 -37 89 -85c0 -34 -15 -59 -83 -154h-89z" />
    <glyph glyph-name="germandbls" unicode="&#xdf;" horiz-adv-x="691" 
d="M309 777v-160c-47 0 -65 -25 -65 -66v-59h399v-101l-119 -166l5 -1c88 -15 145 -94 145 -199c0 -146 -97 -234 -261 -234c-58 0 -111 11 -156 23l23 149c59 -10 98 -14 129 -14c54 0 86 35 86 82c0 38 -35 68 -89 68h-88v77l95 150h-169v-326h-193v562
c0 142 83 215 258 215z" />
    <glyph glyph-name="t" unicode="t" horiz-adv-x="482" 
d="M443 166l17 -156c-67 -20 -114 -25 -172 -25c-126 0 -194 79 -194 222v114h-84v171h84v158h194v-158h144v-171h-144v-97c0 -41 16 -66 60 -66c19 0 42 3 95 8z" />
    <glyph glyph-name="tcaron" unicode="&#x165;" horiz-adv-x="482" 
d="M491 737l-39 -203h-130l5 203h164zM443 166l17 -156c-67 -20 -114 -25 -172 -25c-126 0 -194 79 -194 222v114h-84v171h84v158h194v-158h144v-171h-144v-97c0 -41 16 -66 60 -66c19 0 42 3 95 8z" />
    <glyph glyph-name="uni021B" unicode="&#x21b;" horiz-adv-x="482" 
d="M443 166l17 -156c-67 -20 -114 -25 -172 -25c-126 0 -194 79 -194 222v114h-84v171h84v158h194v-158h144v-171h-144v-97c0 -41 16 -66 60 -66c19 0 42 3 95 8zM177 -289l43 85c-32 14 -49 41 -49 69c0 48 40 85 89 85s89 -37 89 -85c0 -34 -15 -59 -83 -154h-89z" />
    <glyph glyph-name="u" unicode="u" horiz-adv-x="628" 
d="M578 492v-484c-169 -15 -257 -18 -335 -18c-113 0 -195 62 -195 189v313h193v-272c0 -64 29 -76 64 -76c14 0 38 2 80 4v344h193z" />
    <glyph glyph-name="uacute" unicode="&#xfa;" horiz-adv-x="628" 
d="M540 717l-140 -157h-181l93 157h228zM579 492v-484c-170 -15 -257 -18 -336 -18c-113 0 -195 62 -195 189v313h194v-272c0 -64 29 -76 63 -76c15 0 38 2 80 4v344h194z" />
    <glyph glyph-name="ucircumflex" unicode="&#xfb;" horiz-adv-x="628" 
d="M314 615l-44 -53h-168l128 151h167l128 -151h-168zM579 492v-484c-170 -15 -257 -18 -336 -18c-113 0 -195 62 -195 189v313h194v-272c0 -64 29 -76 63 -76c15 0 38 2 80 4v344h194z" />
    <glyph glyph-name="udieresis" unicode="&#xfc;" horiz-adv-x="628" 
d="M192 746c56 0 102 -42 102 -98s-46 -97 -102 -97c-57 0 -102 41 -102 97s45 98 102 98zM436 746c56 0 102 -42 102 -98s-46 -97 -102 -97c-57 0 -102 41 -102 97s45 98 102 98zM579 492v-484c-170 -15 -257 -18 -336 -18c-113 0 -195 62 -195 189v313h194v-272
c0 -64 29 -76 63 -76c15 0 38 2 80 4v344h194z" />
    <glyph glyph-name="ugrave" unicode="&#xf9;" horiz-adv-x="628" 
d="M406 560h-181l-140 157h228zM579 492v-484c-170 -15 -257 -18 -336 -18c-113 0 -195 62 -195 189v313h194v-272c0 -64 29 -76 63 -76c15 0 38 2 80 4v344h194z" />
    <glyph glyph-name="uhungarumlaut" unicode="&#x171;" horiz-adv-x="628" 
d="M360 732l-67 -170h-145l38 170h174zM554 732l-67 -170h-145l38 170h174zM579 492v-484c-170 -15 -257 -18 -336 -18c-113 0 -195 62 -195 189v313h194v-272c0 -64 29 -76 63 -76c15 0 38 2 80 4v344h194z" />
    <glyph glyph-name="umacron" unicode="&#x16b;" horiz-adv-x="628" 
d="M461 702v-140h-294v140h294zM579 492v-484c-170 -15 -257 -18 -336 -18c-113 0 -195 62 -195 189v313h194v-272c0 -64 29 -76 63 -76c15 0 38 2 80 4v344h194z" />
    <glyph glyph-name="uogonek" unicode="&#x173;" horiz-adv-x="628" 
d="M618 -60l18 -144c-15 -8 -54 -17 -91 -17c-97 0 -167 53 -167 131c0 31 14 62 51 86c-79 -5 -134 -6 -186 -6c-113 0 -195 62 -195 189v313h194v-272c0 -64 29 -76 63 -76c15 0 38 2 80 4v344h194v-484c-44 -15 -56 -28 -56 -46c0 -19 15 -30 43 -30c17 0 31 2 52 8z" />
    <glyph glyph-name="uring" unicode="&#x16f;" horiz-adv-x="628" 
d="M314 817c82 0 141 -53 141 -131s-59 -131 -141 -131s-141 53 -141 131s59 131 141 131zM314 639c29 0 48 19 48 47s-19 47 -48 47s-48 -19 -48 -47s19 -47 48 -47zM579 492v-484c-170 -15 -257 -18 -336 -18c-113 0 -195 62 -195 189v313h194v-272c0 -64 29 -76 63 -76
c15 0 38 2 80 4v344h194z" />
    <glyph glyph-name="v" unicode="v" horiz-adv-x="634" 
d="M412 0h-190l-211 492h205l101 -261l101 261h205z" />
    <glyph glyph-name="w" unicode="w" horiz-adv-x="836" 
d="M675 0h-185l-72 231l-73 -231h-184l-150 492h194l64 -247l77 247h144l76 -246l64 246h195z" />
    <glyph glyph-name="wacute" unicode="&#x1e83;" horiz-adv-x="836" 
d="M661 717l-140 -157h-181l93 157h228zM675 0h-185l-72 231l-73 -231h-184l-150 492h194l64 -247l77 247h144l76 -246l64 246h195z" />
    <glyph glyph-name="wcircumflex" unicode="&#x175;" horiz-adv-x="836" 
d="M418 615l-44 -53h-168l128 151h167l128 -151h-168zM675 0h-185l-72 231l-73 -231h-184l-150 492h194l64 -247l77 247h144l76 -246l64 246h195z" />
    <glyph glyph-name="wdieresis" unicode="&#x1e85;" horiz-adv-x="836" 
d="M296 746c56 0 102 -42 102 -98s-46 -97 -102 -97c-57 0 -102 41 -102 97s45 98 102 98zM540 746c56 0 102 -42 102 -98s-46 -97 -102 -97c-57 0 -102 41 -102 97s45 98 102 98zM675 0h-185l-72 231l-73 -231h-184l-150 492h194l64 -247l77 247h144l76 -246l64 246h195z
" />
    <glyph glyph-name="wgrave" unicode="&#x1e81;" horiz-adv-x="836" 
d="M490 560h-181l-140 157h228zM675 0h-185l-72 231l-73 -231h-184l-150 492h194l64 -247l77 247h144l76 -246l64 246h195z" />
    <glyph glyph-name="x" unicode="x" horiz-adv-x="602" 
d="M428 243l163 -243h-205l-85 127l-85 -127h-205l162 243l-162 250h215l75 -111l75 111h215z" />
    <glyph glyph-name="y" unicode="y" horiz-adv-x="681" 
d="M670 492l-316 -709h-209l102 233l-233 476h216l117 -246l108 246h215z" />
    <glyph glyph-name="yacute" unicode="&#xfd;" horiz-adv-x="681" 
d="M444 562h-181l93 157h228zM670 492l-316 -709h-209l102 232l-233 477h215l118 -247l108 247h215z" />
    <glyph glyph-name="ycircumflex" unicode="&#x177;" horiz-adv-x="681" 
d="M314 564h-168l128 151h167l128 -151h-168l-43 53zM670 492l-316 -709h-209l102 232l-233 477h215l118 -247l108 247h215z" />
    <glyph glyph-name="ydieresis" unicode="&#xff;" horiz-adv-x="681" 
d="M236 553c-57 0 -102 41 -102 97s45 98 102 98c56 0 102 -42 102 -98s-46 -97 -102 -97zM480 553c-57 0 -102 41 -102 97s45 98 102 98c56 0 102 -42 102 -98s-46 -97 -102 -97zM670 492l-316 -709h-209l102 232l-233 477h215l118 -247l108 247h215z" />
    <glyph glyph-name="ygrave" unicode="&#x1ef3;" horiz-adv-x="681" 
d="M269 562l-140 157h228l93 -157h-181zM670 492l-316 -709h-209l102 232l-233 477h215l118 -247l108 247h215z" />
    <glyph glyph-name="z" unicode="z" horiz-adv-x="528" 
d="M488 391l-191 -230h204v-161h-471v98l199 234h-197v161h456v-102z" />
    <glyph glyph-name="zacute" unicode="&#x17a;" horiz-adv-x="528" 
d="M485 717l-140 -157h-181l93 157h228zM487 391l-190 -230h204v-161h-471v98l198 234h-197v161h456v-102z" />
    <glyph glyph-name="zcaron" unicode="&#x17e;" horiz-adv-x="528" 
d="M342 560h-167l-128 157h168l44 -57l43 57h168zM487 391l-190 -230h204v-161h-471v98l198 234h-197v161h456v-102z" />
    <glyph glyph-name="zdotaccent" unicode="&#x17c;" horiz-adv-x="528" 
d="M259 551c-57 0 -102 41 -102 97s45 98 102 98c56 0 102 -42 102 -98s-46 -97 -102 -97zM487 391l-190 -230h204v-161h-471v98l198 234h-197v161h456v-102z" />
    <glyph glyph-name="germandbls.case" horiz-adv-x="1330" 
d="M631 647l-38 -172c-106 31 -185 47 -243 47c-46 0 -74 -12 -74 -44c0 -37 45 -41 131 -60c130 -29 234 -74 234 -212c0 -141 -109 -221 -290 -221c-98 0 -211 24 -321 61l45 170c116 -40 202 -58 256 -60c64 -2 86 20 86 44c0 39 -60 46 -134 62
c-156 35 -229 82 -229 205c0 144 109 225 290 225c89 0 203 -18 287 -45zM1281 647l-38 -172c-106 31 -184 47 -243 47c-46 0 -74 -12 -74 -44c0 -37 46 -41 131 -60c130 -29 234 -74 234 -212c0 -141 -109 -221 -289 -221c-99 0 -211 24 -322 61l45 170
c116 -40 202 -58 257 -60c63 -2 85 20 85 44c0 39 -60 46 -134 62c-156 35 -228 82 -228 205c0 144 108 225 289 225c89 0 203 -18 287 -45z" />
    <glyph glyph-name="y.ss01" horiz-adv-x="621" 
d="M578 492v-489c0 -167 -102 -270 -299 -270c-60 0 -118 9 -182 28l23 148c57 -10 103 -18 151 -18c79 0 112 35 114 105c-59 -3 -102 -3 -142 -3c-113 0 -195 59 -195 190v309h193v-269c0 -64 29 -75 64 -75c14 0 38 1 80 4v340h193z" />
    <glyph glyph-name="yacute.ss01" horiz-adv-x="621" 
d="M537 717l-140 -157h-181l93 157h228zM579 492v-489c0 -167 -103 -270 -300 -270c-59 0 -118 9 -182 28l23 148c57 -10 103 -18 151 -18c79 0 112 35 114 105c-59 -3 -101 -3 -142 -3c-113 0 -195 59 -195 190v309h194v-269c0 -64 29 -75 63 -75c15 0 38 1 80 4v340h194z
" />
    <glyph glyph-name="ycircumflex.ss01" horiz-adv-x="621" 
d="M310 615l-44 -53h-168l128 151h167l128 -151h-168zM579 492v-489c0 -167 -103 -270 -300 -270c-59 0 -118 9 -182 28l23 148c57 -10 103 -18 151 -18c79 0 112 35 114 105c-59 -3 -101 -3 -142 -3c-113 0 -195 59 -195 190v309h194v-269c0 -64 29 -75 63 -75
c15 0 38 1 80 4v340h194z" />
    <glyph glyph-name="ydieresis.ss01" horiz-adv-x="621" 
d="M189 746c56 0 102 -42 102 -98s-46 -97 -102 -97c-57 0 -102 41 -102 97s45 98 102 98zM433 746c56 0 102 -42 102 -98s-46 -97 -102 -97c-57 0 -102 41 -102 97s45 98 102 98zM579 492v-489c0 -167 -103 -270 -300 -270c-59 0 -118 9 -182 28l23 148
c57 -10 103 -18 151 -18c79 0 112 35 114 105c-59 -3 -101 -3 -142 -3c-113 0 -195 59 -195 190v309h194v-269c0 -64 29 -75 63 -75c15 0 38 1 80 4v340h194z" />
    <glyph glyph-name="ygrave.ss01" horiz-adv-x="621" 
d="M402 560h-181l-140 157h228zM579 492v-489c0 -167 -103 -270 -300 -270c-59 0 -118 9 -182 28l23 148c57 -10 103 -18 151 -18c79 0 112 35 114 105c-59 -3 -101 -3 -142 -3c-113 0 -195 59 -195 190v309h194v-269c0 -64 29 -75 63 -75c15 0 38 1 80 4v340h194z" />
    <glyph glyph-name="a.ss03" horiz-adv-x="582" 
d="M308 508c144 2 229 -65 229 -189v-309c-183 -26 -247 -25 -317 -25c-127 0 -195 67 -195 162c0 99 72 147 205 154l117 6v3c0 30 -25 47 -67 47c-62 0 -99 -4 -191 -16l-20 145c111 16 161 22 239 22zM266 111c19 0 46 1 81 5v78l-87 -5c-41 -2 -56 -16 -56 -39
s20 -39 62 -39z" />
    <glyph glyph-name="aacute.ss03" horiz-adv-x="582" 
d="M509 717l-140 -157h-181l93 157h228zM308 508c144 2 229 -65 229 -189v-309c-183 -26 -247 -25 -317 -25c-127 0 -195 67 -195 162c0 99 72 147 205 154l117 6v3c0 30 -25 47 -67 47c-62 0 -99 -4 -191 -16l-20 145c111 16 161 22 239 22zM266 111c19 0 46 1 81 5v78
l-87 -5c-41 -2 -56 -16 -56 -39s20 -39 62 -39z" />
    <glyph glyph-name="abreve.ss03" horiz-adv-x="582" 
d="M333 731h140c0 -113 -78 -178 -190 -178s-190 65 -190 178h139c0 -31 21 -52 51 -52s50 21 50 52zM308 508c144 2 229 -65 229 -189v-309c-183 -26 -247 -25 -317 -25c-127 0 -195 67 -195 162c0 99 72 147 205 154l117 6v3c0 30 -25 47 -67 47c-62 0 -99 -4 -191 -16
l-20 145c111 16 161 22 239 22zM266 111c19 0 46 1 81 5v78l-87 -5c-41 -2 -56 -16 -56 -39s20 -39 62 -39z" />
    <glyph glyph-name="acaron.ss03" horiz-adv-x="582" 
d="M365 560h-167l-128 157h168l44 -57l43 57h168zM308 508c144 2 229 -65 229 -189v-309c-183 -26 -247 -25 -317 -25c-127 0 -195 67 -195 162c0 99 72 147 205 154l117 6v3c0 30 -25 47 -67 47c-62 0 -99 -4 -191 -16l-20 145c111 16 161 22 239 22zM266 111
c19 0 46 1 81 5v78l-87 -5c-41 -2 -56 -16 -56 -39s20 -39 62 -39z" />
    <glyph glyph-name="acircumflex.ss03" horiz-adv-x="582" 
d="M282 615l-44 -53h-168l128 151h167l128 -151h-168zM308 508c144 2 229 -65 229 -189v-309c-183 -26 -247 -25 -317 -25c-127 0 -195 67 -195 162c0 99 72 147 205 154l117 6v3c0 30 -25 47 -67 47c-62 0 -99 -4 -191 -16l-20 145c111 16 161 22 239 22zM266 111
c19 0 46 1 81 5v78l-87 -5c-41 -2 -56 -16 -56 -39s20 -39 62 -39z" />
    <glyph glyph-name="adieresis.ss03" horiz-adv-x="582" 
d="M161 746c56 0 102 -42 102 -98s-46 -97 -102 -97c-57 0 -102 41 -102 97s45 98 102 98zM405 746c56 0 102 -42 102 -98s-46 -97 -102 -97c-57 0 -102 41 -102 97s45 98 102 98zM308 508c144 2 229 -65 229 -189v-309c-183 -26 -247 -25 -317 -25c-127 0 -195 67 -195 162
c0 99 72 147 205 154l117 6v3c0 30 -25 47 -67 47c-62 0 -99 -4 -191 -16l-20 145c111 16 161 22 239 22zM266 111c19 0 46 1 81 5v78l-87 -5c-41 -2 -56 -16 -56 -39s20 -39 62 -39z" />
    <glyph glyph-name="agrave.ss03" horiz-adv-x="582" 
d="M374 560h-181l-140 157h228zM308 508c144 2 229 -65 229 -189v-309c-183 -26 -247 -25 -317 -25c-127 0 -195 67 -195 162c0 99 72 147 205 154l117 6v3c0 30 -25 47 -67 47c-62 0 -99 -4 -191 -16l-20 145c111 16 161 22 239 22zM266 111c19 0 46 1 81 5v78l-87 -5
c-41 -2 -56 -16 -56 -39s20 -39 62 -39z" />
    <glyph glyph-name="amacron.ss03" horiz-adv-x="582" 
d="M430 702v-140h-294v140h294zM308 508c144 2 229 -65 229 -189v-309c-183 -26 -247 -25 -317 -25c-127 0 -195 67 -195 162c0 99 72 147 205 154l117 6v3c0 30 -25 47 -67 47c-62 0 -99 -4 -191 -16l-20 145c111 16 161 22 239 22zM266 111c19 0 46 1 81 5v78l-87 -5
c-41 -2 -56 -16 -56 -39s20 -39 62 -39z" />
    <glyph glyph-name="aogonek.ss03" horiz-adv-x="582" 
d="M576 -58l18 -144c-15 -8 -54 -17 -91 -17c-97 0 -167 53 -167 131c0 28 12 56 40 79c-70 -6 -112 -6 -156 -6c-127 0 -195 67 -195 162c0 99 72 147 205 154l117 6v3c0 30 -25 47 -67 47c-62 0 -99 -4 -191 -16l-20 145c111 16 161 22 239 22c144 2 229 -65 229 -189
v-309c-44 -15 -56 -28 -56 -46c0 -19 15 -30 43 -30c17 0 31 2 52 8zM347 194l-87 -5c-41 -2 -56 -16 -56 -39s20 -39 62 -39c19 0 46 1 81 5v78z" />
    <glyph glyph-name="aring.ss03" horiz-adv-x="582" 
d="M282 817c82 0 141 -53 141 -131s-59 -131 -141 -131s-141 53 -141 131s59 131 141 131zM282 639c29 0 48 19 48 47s-19 47 -48 47s-48 -19 -48 -47s19 -47 48 -47zM308 508c144 2 229 -65 229 -189v-309c-183 -26 -247 -25 -317 -25c-127 0 -195 67 -195 162
c0 99 72 147 205 154l117 6v3c0 30 -25 47 -67 47c-62 0 -99 -4 -191 -16l-20 145c111 16 161 22 239 22zM266 111c19 0 46 1 81 5v78l-87 -5c-41 -2 -56 -16 -56 -39s20 -39 62 -39z" />
    <glyph glyph-name="atilde.ss03" horiz-adv-x="582" 
d="M356 718h132c0 -160 -130 -186 -204 -143l-27 17c-26 15 -37 1 -37 -24h-132c0 160 128 184 204 143l27 -17c27 -14 37 -1 37 24zM308 508c144 2 229 -65 229 -189v-309c-183 -26 -247 -25 -317 -25c-127 0 -195 67 -195 162c0 99 72 147 205 154l117 6v3
c0 30 -25 47 -67 47c-62 0 -99 -4 -191 -16l-20 145c111 16 161 22 239 22zM266 111c19 0 46 1 81 5v78l-87 -5c-41 -2 -56 -16 -56 -39s20 -39 62 -39z" />
    <glyph glyph-name="uni00660062" horiz-adv-x="1085" 
d="M812 507c148 0 242 -103 246 -258c0 -184 -132 -264 -244 -264c-86 0 -132 4 -314 25v580c-50 17 -82 21 -109 21c-65 0 -100 -29 -100 -90v-29h152v-171h-152v-321h-193v321h-95v171h95v50c0 157 112 235 251 235c59 0 85 -7 159 -31l186 -9v-236c44 5 76 6 118 6z
M776 142c55 0 97 43 97 105c0 67 -38 110 -100 110c-23 0 -45 -3 -79 -7v-202c40 -5 62 -6 82 -6z" />
    <glyph glyph-name="uni006600660062" horiz-adv-x="1494" 
d="M1217 507c153 0 246 -103 250 -257c0 -188 -134 -264 -244 -264c-84 0 -132 5 -314 23v581c-50 17 -84 21 -113 21c-62 0 -96 -29 -96 -90v-29h152v-171h-152v-321h-193v321h-216v-321h-193v321h-95v171h95v30c0 157 121 255 277 255c70 0 139 -17 202 -61
c45 41 108 61 178 61c62 0 91 -8 161 -31l187 -9v-236c43 4 79 6 114 6zM507 492v50c0 10 0 20 1 30c-33 23 -69 39 -113 39c-62 0 -104 -29 -104 -96v-23h216zM1181 142c61 0 101 43 101 107c0 66 -38 108 -103 108c-17 0 -41 -2 -76 -7v-202c40 -4 64 -6 78 -6z" />
    <glyph glyph-name="uni006600660066" horiz-adv-x="1260" 
d="M1257 321h-148v-321h-193v321h-216v-321h-193v321h-216v-321h-193v321h-95v171h95v30c0 157 121 255 277 255c74 0 146 -19 212 -69c50 44 119 69 197 69c67 0 131 -15 192 -55c36 37 88 55 148 55c50 0 85 -4 128 -12l-17 -151c-23 2 -40 3 -56 3c-50 0 -70 -24 -70 -76
v-49h148v-171zM507 492v30c0 17 1 33 4 48c-35 24 -71 41 -116 41c-62 0 -104 -29 -104 -96v-23h216zM916 492v63v17c-33 23 -69 39 -112 39c-62 0 -104 -29 -104 -96v-23h216z" />
    <glyph glyph-name="uni006600660068" horiz-adv-x="1482" 
d="M1241 507c117 0 195 -75 195 -189v-318h-193v258c0 61 -31 76 -64 76c-14 0 -38 -2 -80 -6v-328h-193v590c-50 17 -83 21 -110 21c-62 0 -96 -29 -96 -90v-29h149v-171h-149v-321h-193v321h-216v-321h-193v321h-95v171h95v30c0 157 121 255 277 255c70 0 139 -17 202 -61
c45 41 108 61 178 61c59 0 88 -8 158 -31l187 -9v-35h-1v-203c59 6 102 8 142 8zM507 492v50c0 10 0 20 1 30c-33 23 -69 39 -113 39c-62 0 -104 -29 -104 -96v-23h216z" />
    <glyph glyph-name="uni00660066006A" horiz-adv-x="1137" 
d="M1093 492v-461c0 -159 -32 -259 -266 -264l-10 156c82 6 82 40 82 95v303h-199v-321h-193v321h-216v-321h-193v321h-95v171h95v30c0 157 121 255 277 255c75 0 146 -19 212 -69c50 44 119 69 197 69c88 0 171 -26 246 -98l-98 -118c-38 29 -78 50 -128 50
c-62 0 -104 -29 -104 -96v-23h393zM507 492v30c0 17 1 33 4 48c-35 24 -71 41 -116 41c-62 0 -104 -29 -104 -96v-23h216z" />
    <glyph glyph-name="uni00660066006B" horiz-adv-x="1487" 
d="M1477 0h-220l-100 158h-58v-158h-193v590c-50 17 -83 21 -110 21c-62 0 -96 -29 -96 -90v-29h149v-171h-149v-321h-193v321h-216v-321h-193v321h-95v171h95v30c0 157 121 255 277 255c70 0 139 -17 202 -61c45 41 108 61 178 61c59 0 88 -8 158 -31l187 -9v-35h-1v-368
h12l127 158h218l-165 -205zM507 492v50c0 10 0 20 1 30c-33 23 -69 39 -113 39c-62 0 -104 -29 -104 -96v-23h216z" />
    <glyph glyph-name="uni006600660074" horiz-adv-x="1290" 
d="M1251 166l17 -156c-67 -20 -115 -25 -172 -25c-126 0 -194 79 -194 222v114h-202v-321h-193v321h-216v-321h-193v321h-95v171h95v30c0 157 121 255 277 255c67 0 132 -15 192 -55c37 36 89 55 151 55c47 0 81 -4 119 -11l-16 -151c-18 1 -32 2 -48 2
c-53 0 -73 -24 -73 -76v-49h202v158h194v-158h144v-171h-144v-97c0 -41 16 -66 60 -66c18 0 42 3 95 8zM507 492v63v17c-33 23 -69 39 -112 39c-62 0 -104 -29 -104 -96v-23h216z" />
    <glyph glyph-name="uni00660068" horiz-adv-x="1076" 
d="M835 507c117 0 196 -75 196 -189v-318h-194v258c0 61 -31 76 -63 76c-15 0 -38 -2 -80 -7v-327h-194v590c-50 17 -82 21 -109 21c-65 0 -100 -29 -100 -90v-29h152v-171h-152v-321h-193v321h-95v171h95v50c0 157 112 235 251 235c59 0 85 -7 159 -31l186 -9v-237
c59 6 101 7 141 7z" />
    <glyph glyph-name="uni0066006A" horiz-adv-x="732" 
d="M687 492v-461c0 -159 -31 -259 -266 -264l-10 156c83 6 83 40 83 95v303h-203v-321h-193v321h-95v171h95v30c0 157 121 255 280 255c88 0 172 -26 246 -98l-98 -118c-37 29 -77 50 -128 50c-65 0 -107 -29 -107 -96v-23h396z" />
    <glyph glyph-name="uni0066006B" horiz-adv-x="1078" 
d="M848 0l-97 158h-61v-158h-193v590c-50 17 -82 21 -109 21c-62 0 -97 -29 -97 -90v-29h148v-171h-148v-321h-193v321h-95v171h95v50c0 157 112 235 248 235c59 0 85 -7 159 -31l185 -9v-403h12l127 158h218l-165 -205l186 -287h-220z" />
    <glyph glyph-name="uni00660074" horiz-adv-x="881" 
d="M842 166l17 -156c-67 -20 -115 -25 -172 -25c-126 0 -194 79 -194 222v114h-202v-321h-193v321h-95v171h95v63c0 146 86 222 211 222c47 0 81 -4 120 -11l-17 -151c-18 1 -32 2 -48 2c-53 0 -73 -24 -73 -76v-49h202v158h194v-158h144v-171h-144v-97c0 -41 16 -66 60 -66
c18 0 42 3 95 8z" />
    <glyph glyph-name="uni00720066" horiz-adv-x="818" 
d="M815 321h-145v-321h-193v316c-83 -2 -164 -6 -233 -11v-305h-194v461c121 21 263 30 427 31v63c0 146 86 222 208 222c50 0 84 -4 127 -12l-17 -151c-22 2 -39 3 -55 3c-50 0 -70 -24 -70 -76v-49h145v-171z" />
    <glyph glyph-name="uni00720074" horiz-adv-x="851" 
d="M657 502h144v-171h-144v-107c0 -41 16 -66 60 -66c18 0 42 3 95 8l17 -156c-67 -20 -115 -25 -172 -25c-126 0 -194 79 -194 222v118c-73 -1 -152 -5 -219 -9v-316h-194v471c144 21 282 30 413 31v148h194v-148z" />
    <glyph glyph-name="ordfeminine" unicode="&#xaa;" horiz-adv-x="460" 
d="M244 695c104 1 169 -48 169 -134v-219c-135 -18 -183 -18 -235 -18c-92 0 -141 50 -141 115c0 70 52 96 145 101l92 5v4c-1 18 -12 28 -43 28c-37 0 -85 -3 -148 -11l-15 113c85 12 119 15 176 16zM274 474l-64 -3c-26 -2 -34 -10 -34 -25c0 -16 12 -25 37 -25
c14 0 35 1 61 3v50z" />
    <glyph glyph-name="ordmasculine" unicode="&#xba;" horiz-adv-x="453" 
d="M227 695c117 0 196 -74 196 -184c0 -112 -79 -187 -196 -187s-197 75 -197 187c0 110 80 184 197 184zM227 448c32 0 60 25 60 63c0 36 -28 60 -60 60c-34 0 -60 -24 -60 -60c0 -38 26 -63 60 -63z" />
    <glyph glyph-name="zero" unicode="0" horiz-adv-x="727" 
d="M364 695c197 0 329 -142 329 -355s-132 -355 -329 -355c-198 0 -330 142 -330 355s132 355 330 355zM364 157c86 0 144 73 144 183s-58 183 -144 183c-87 0 -145 -73 -145 -183s58 -183 145 -183z" />
    <glyph glyph-name="one" unicode="1" horiz-adv-x="446" 
d="M376 0h-189v459l-140 -33l-37 168l297 86h69v-680z" />
    <glyph glyph-name="two" unicode="2" horiz-adv-x="585" 
d="M553 0h-512v131l212 184c79 66 97 95 97 128c0 55 -34 78 -93 78c-30 0 -89 -6 -190 -37l-39 159c98 35 184 52 260 52c178 0 256 -100 256 -222c0 -103 -59 -174 -148 -249l-69 -56h226v-168z" />
    <glyph glyph-name="three" unicode="3" horiz-adv-x="620" 
d="M555 579l-146 -176l11 -2c99 -16 161 -89 161 -184c0 -146 -95 -232 -274 -232c-101 0 -175 16 -280 56l50 149c75 -27 161 -46 228 -46c59 0 94 27 94 72c0 35 -39 57 -101 57h-125v78l142 162h-256v167h496v-101z" />
    <glyph glyph-name="four" unicode="4" horiz-adv-x="669" 
d="M572 256h75v-152h-75v-104h-173v104h-376v131l376 445h173v-424zM232 256h167v213z" />
    <glyph glyph-name="five" unicode="5" horiz-adv-x="618" 
d="M277 438l53 -3c167 -8 257 -85 257 -217c0 -134 -92 -233 -292 -233c-70 0 -149 9 -262 57l50 149c92 -33 161 -45 213 -45c72 0 103 28 103 70c0 45 -41 68 -107 71l-205 10l37 383h431v-176h-271z" />
    <glyph glyph-name="six" unicode="6" horiz-adv-x="635" 
d="M509 680l-144 -187c147 -16 244 -108 244 -244c0 -158 -118 -264 -291 -264c-174 0 -291 106 -291 264c0 60 22 109 57 156l208 275h217zM318 140c68 0 114 43 114 108c0 63 -46 106 -114 106c-69 0 -115 -43 -115 -106c0 -65 47 -108 115 -108z" />
    <glyph glyph-name="seven" unicode="7" horiz-adv-x="583" 
d="M564 573l-240 -573h-207l214 504h-304v176h537v-107z" />
    <glyph glyph-name="eight" unicode="8" horiz-adv-x="627" 
d="M474 354c86 -34 126 -90 126 -167c0 -127 -107 -202 -287 -202c-179 0 -286 75 -286 202c0 77 40 133 125 167c-67 30 -96 84 -96 149c0 113 108 192 257 192c150 0 258 -79 258 -192c0 -65 -29 -119 -97 -149zM236 486c0 -41 31 -68 77 -68s78 27 78 68
c0 40 -32 69 -78 69s-77 -29 -77 -69zM313 138c54 0 88 33 88 75c0 43 -34 74 -88 74c-53 0 -88 -31 -88 -74c0 -42 35 -75 88 -75z" />
    <glyph glyph-name="nine" unicode="9" horiz-adv-x="645" 
d="M318 695c174 0 291 -106 291 -264c0 -46 -20 -99 -46 -142l-183 -289h-215l119 185c-155 12 -257 106 -257 246c0 158 117 264 291 264zM204 432c0 -63 46 -106 114 -106c69 0 114 43 114 106c0 65 -46 108 -114 108s-114 -43 -114 -108z" />
    <glyph glyph-name="zero.osf" horiz-adv-x="634" 
d="M317 556c169 0 290 -114 290 -284s-121 -284 -290 -284c-168 0 -290 114 -290 284s122 284 290 284zM317 147c66 0 120 50 120 125s-54 125 -120 125s-120 -50 -120 -125s54 -125 120 -125z" />
    <glyph glyph-name="one.osf" horiz-adv-x="513" 
d="M507 164v-164h-490v164h169v164l-143 -33l-36 163l296 86h70v-380h134z" />
    <glyph glyph-name="two.osf" horiz-adv-x="552" 
d="M268 556c173 0 244 -85 244 -186c0 -84 -52 -144 -138 -199l-11 -7h160v-164h-485v131l110 55c152 80 171 115 171 147c0 36 -24 56 -74 56c-26 0 -78 -5 -191 -30l-30 158c95 26 177 39 244 39z" />
    <glyph glyph-name="three.osf" horiz-adv-x="617" 
d="M555 445l-157 -182l12 -2c106 -16 171 -87 171 -184c0 -144 -97 -230 -276 -230c-102 0 -177 16 -281 56l48 142c76 -28 162 -47 231 -47c64 0 105 29 105 78c0 39 -44 63 -112 63h-123v74l153 170h-270v159h499v-97z" />
    <glyph glyph-name="four.osf" horiz-adv-x="663" 
d="M567 137h76v-137h-76v-136h-171v136h-376v116l376 428h171v-407zM228 137h168v196z" />
    <glyph glyph-name="five.osf" horiz-adv-x="611" 
d="M268 302l54 -4c166 -10 257 -84 257 -216c0 -134 -92 -233 -292 -233c-71 0 -149 9 -255 57l43 148c91 -34 160 -47 216 -47c72 0 110 28 110 75c0 48 -44 70 -131 74l-191 9l37 379h430v-170h-271z" />
    <glyph glyph-name="six.osf" horiz-adv-x="629" 
d="M466 680l-119 -185c156 -12 258 -106 258 -246c0 -158 -117 -264 -291 -264s-291 106 -291 264c0 46 19 100 46 142l183 289h214zM314 140c68 0 114 43 114 108c0 63 -46 106 -114 106c-69 0 -114 -43 -114 -106c0 -65 46 -108 114 -108z" />
    <glyph glyph-name="seven.osf" horiz-adv-x="579" 
d="M563 439l-247 -576h-200l222 511h-315v169h540v-104z" />
    <glyph glyph-name="eight.osf" horiz-adv-x="627" 
d="M474 354c86 -34 126 -90 126 -167c0 -127 -107 -202 -287 -202c-179 0 -286 75 -286 202c0 77 40 133 125 167c-67 30 -96 84 -96 149c0 113 108 192 257 192c150 0 258 -79 258 -192c0 -65 -29 -119 -97 -149zM236 486c0 -41 31 -68 77 -68s77 27 77 68
c0 40 -31 69 -77 69s-77 -29 -77 -69zM313 138c53 0 88 33 88 75c0 43 -35 74 -88 74s-88 -31 -88 -74c0 -42 35 -75 88 -75z" />
    <glyph glyph-name="nine.osf" horiz-adv-x="645" 
d="M318 559c174 0 291 -106 291 -264c0 -46 -20 -99 -46 -142l-183 -289h-215l119 185c-155 12 -257 106 -257 246c0 158 117 264 291 264zM204 296c0 -63 46 -106 114 -106c69 0 114 43 114 106c0 65 -46 108 -114 108s-114 -43 -114 -108z" />
    <glyph glyph-name="zero.osf.zero" horiz-adv-x="634" 
d="M318 556c168 0 290 -114 290 -284s-122 -284 -290 -284c-169 0 -291 114 -291 284s122 284 291 284zM317 397c-66 0 -120 -50 -120 -125c0 -19 3 -36 10 -51l162 165c-16 7 -34 11 -52 11zM317 147c65 0 119 50 119 125c0 21 -4 40 -12 57l-165 -167
c17 -10 37 -15 58 -15z" />
    <glyph glyph-name="three.ss05" horiz-adv-x="607" 
d="M463 340c74 -25 119 -66 119 -149c0 -124 -99 -206 -284 -206c-90 0 -173 19 -266 52l44 153c78 -26 168 -43 216 -43c63 0 94 24 94 61c0 42 -39 59 -87 59h-125v146h125c46 0 84 17 84 60c0 38 -31 60 -93 60c-50 0 -134 -16 -214 -43l-44 153c93 33 177 52 265 52
c182 0 281 -83 281 -204c0 -86 -50 -126 -115 -151z" />
    <glyph glyph-name="zero.tf" horiz-adv-x="660" 
d="M330 695c185 0 313 -142 313 -355s-128 -355 -313 -355s-312 142 -312 355s127 355 312 355zM330 155c75 0 129 74 129 185s-54 185 -129 185s-129 -74 -129 -185s54 -185 129 -185z" />
    <glyph glyph-name="one.tf" horiz-adv-x="660" 
d="M617 0h-562v164h194v299l-141 -33l-37 164l297 86h69v-516h180v-164z" />
    <glyph glyph-name="two.tf" horiz-adv-x="660" 
d="M607 0h-538v131l212 184c79 66 97 95 97 128c0 55 -35 78 -93 78c-31 0 -89 -6 -190 -37l-40 159c98 35 185 52 261 52c178 0 256 -100 256 -222c0 -103 -58 -176 -148 -249l-69 -56h252v-168z" />
    <glyph glyph-name="three.tf" horiz-adv-x="660" 
d="M583 579l-147 -176l12 -2c99 -16 161 -89 161 -184c0 -146 -96 -232 -275 -232c-101 0 -174 16 -279 56l49 149c75 -27 161 -46 229 -46c58 0 93 27 93 72c0 35 -39 57 -100 57h-125v78l141 162h-255v167h496v-101z" />
    <glyph glyph-name="four.tf" horiz-adv-x="660" 
d="M558 256h75v-152h-75v-104h-172v104h-356v131l356 445h172v-424zM238 256h148v213z" />
    <glyph glyph-name="five.tf" horiz-adv-x="660" 
d="M302 438l53 -3c167 -8 257 -85 257 -217c0 -134 -92 -233 -292 -233c-70 0 -149 9 -262 57l50 149c92 -33 161 -45 213 -45c72 0 103 28 103 70c0 45 -41 68 -107 71l-205 10l37 383h431v-176h-271z" />
    <glyph glyph-name="six.tf" horiz-adv-x="660" 
d="M474 680l-114 -185c155 -11 259 -105 259 -246c0 -158 -118 -264 -291 -264c-174 0 -291 106 -291 264c0 46 20 99 45 142l176 289h216zM328 140c68 0 114 43 114 108c0 63 -46 106 -114 106c-69 0 -115 -43 -115 -106c0 -65 47 -108 115 -108z" />
    <glyph glyph-name="seven.tf" horiz-adv-x="660" 
d="M617 573l-296 -573h-214l267 504h-327v176h570v-107z" />
    <glyph glyph-name="eight.tf" horiz-adv-x="660" 
d="M494 354c85 -34 126 -90 126 -167c0 -127 -108 -202 -287 -202s-286 75 -286 202c0 77 40 133 125 167c-68 30 -97 84 -97 149c0 113 108 192 258 192c149 0 258 -79 258 -192c0 -65 -29 -119 -97 -149zM256 486c0 -41 31 -68 77 -68s77 27 77 68c0 40 -31 69 -77 69
s-77 -29 -77 -69zM333 138c53 0 88 33 88 75c0 43 -35 74 -88 74s-88 -31 -88 -74c0 -42 35 -75 88 -75z" />
    <glyph glyph-name="nine.tf" horiz-adv-x="660" 
d="M333 695c174 0 291 -106 291 -264c0 -46 -19 -99 -45 -142l-183 -289h-216l119 185c-154 12 -257 106 -257 246c0 158 118 264 291 264zM219 432c0 -63 46 -106 114 -106c69 0 115 43 115 106c0 65 -47 108 -115 108s-114 -43 -114 -108z" />
    <glyph glyph-name="zero.zero" horiz-adv-x="727" 
d="M364 695c197 0 329 -142 329 -355s-132 -355 -329 -355c-198 0 -330 142 -330 355s132 355 330 355zM364 525c-88 0 -146 -74 -146 -185c0 -31 5 -59 14 -82l178 257c-14 6 -29 10 -46 10zM490 435l-184 -265c17 -9 36 -15 58 -15c87 0 145 74 145 185c0 37 -7 69 -19 95
z" />
    <glyph glyph-name="fraction" unicode="&#x2044;" horiz-adv-x="573" 
d="M96 0h-93l470 680h93z" />
    <glyph glyph-name="onehalf" unicode="&#xbd;" horiz-adv-x="945" 
d="M59 275v113h79v150l-72 -17l-25 107l179 52h46v-292h77v-113h-284zM754 680l-469 -680h-93l469 680h93zM914 110v-110h-325v87l160 127c19 15 24 30 24 45c0 28 -17 39 -50 39c-17 0 -52 -3 -121 -24l-22 109c62 22 117 31 165 31c116 0 161 -64 161 -131
c0 -65 -30 -105 -89 -152l-26 -21h123z" />
    <glyph glyph-name="onequarter" unicode="&#xbc;" horiz-adv-x="929" 
d="M62 275v113h79v150l-72 -17l-25 107l179 52h46v-292h77v-113h-284zM761 680l-470 -680h-93l470 680h93zM892 174v-101h-51v-73h-119v73h-233v89l222 243h130v-231h51zM722 275l-87 -101h87v101z" />
    <glyph glyph-name="threequarters" unicode="&#xbe;" horiz-adv-x="938" 
d="M375 614l-91 -96l4 -1c59 -14 96 -54 96 -108c0 -90 -57 -142 -175 -142c-62 0 -109 9 -176 34l34 99c47 -15 100 -27 140 -27c36 0 55 12 55 33c0 17 -12 27 -43 27h-98v51l83 85h-148v112h319v-67zM297 0h-93l470 680h93zM852 174h51v-101h-51v-73h-118v73h-234v89
l222 243h130v-231zM647 174h87v101z" />
    <glyph glyph-name="oneeighth" unicode="&#x215b;" horiz-adv-x="952" 
d="M56 275v113h79v150l-72 -17l-25 107l179 52h46v-292h77v-113h-284zM754 680l-469 -680h-93l469 680h93zM830 216c55 -20 79 -53 79 -102c0 -74 -68 -122 -182 -122c-113 0 -180 48 -180 122c0 49 24 82 78 102c-42 19 -59 45 -59 83c0 69 67 116 161 116
c96 0 160 -47 160 -116c0 -38 -15 -64 -57 -83zM727 323c-24 0 -39 -15 -39 -36c0 -22 15 -35 39 -35c25 0 40 13 40 35c0 21 -15 36 -40 36zM727 92c28 0 46 16 46 39c0 24 -18 40 -46 40c-27 0 -45 -16 -45 -40c0 -23 18 -39 45 -39z" />
    <glyph glyph-name="threeeighths" unicode="&#x215c;" horiz-adv-x="960" 
d="M375 614l-91 -96l4 -1c59 -14 96 -54 96 -108c0 -90 -57 -142 -175 -142c-62 0 -109 9 -176 34l34 99c47 -15 100 -27 140 -27c36 0 55 12 55 33c0 17 -12 27 -43 27h-98v51l83 85h-148v112h319v-67zM294 0h-93l469 680h93zM838 216c55 -20 79 -53 79 -102
c0 -74 -68 -122 -182 -122c-113 0 -180 48 -180 122c0 49 24 82 78 102c-42 19 -59 45 -59 83c0 69 67 116 161 116c96 0 160 -47 160 -116c0 -38 -15 -64 -57 -83zM696 287c0 -22 15 -35 39 -35c25 0 40 13 40 35c0 21 -15 36 -40 36c-24 0 -39 -15 -39 -36zM735 92
c28 0 46 16 46 39c0 24 -18 40 -46 40c-27 0 -45 -16 -45 -40c0 -23 18 -39 45 -39z" />
    <glyph glyph-name="fiveeighths" unicode="&#x215d;" horiz-adv-x="962" 
d="M190 534l28 -1c106 -5 160 -46 160 -125c0 -80 -58 -141 -187 -141c-47 0 -94 4 -166 34l34 99c58 -21 99 -28 131 -28c44 0 62 14 62 33c0 25 -23 33 -57 35l-134 7l23 234h273v-112h-163zM284 0h-93l470 680h93zM840 216c55 -20 79 -53 79 -102
c0 -74 -69 -122 -182 -122c-114 0 -181 48 -181 122c0 49 24 82 78 102c-42 19 -58 45 -58 83c0 69 67 116 161 116c96 0 160 -47 160 -116c0 -38 -15 -64 -57 -83zM697 287c0 -22 16 -35 40 -35c25 0 40 13 40 35c0 21 -15 36 -40 36c-24 0 -40 -15 -40 -36zM737 92
c28 0 46 16 46 39c0 24 -18 40 -46 40c-27 0 -45 -16 -45 -40c0 -23 18 -39 45 -39z" />
    <glyph glyph-name="seveneighths" unicode="&#x215e;" horiz-adv-x="921" 
d="M384 608l-144 -333h-142l126 288h-179v117h339v-72zM238 0h-93l470 680h93zM799 216c55 -20 79 -53 79 -102c0 -74 -68 -122 -182 -122c-113 0 -180 48 -180 122c0 49 24 82 78 102c-42 19 -59 45 -59 83c0 69 67 116 161 116c96 0 160 -47 160 -116
c0 -38 -15 -64 -57 -83zM657 287c0 -22 15 -35 39 -35c25 0 40 13 40 35c0 21 -15 36 -40 36c-24 0 -39 -15 -39 -36zM696 92c28 0 46 16 46 39c0 24 -18 40 -46 40c-27 0 -45 -16 -45 -40c0 -23 18 -39 45 -39z" />
    <glyph glyph-name="zero.dnom" horiz-adv-x="473" 
d="M236 415c129 0 214 -85 214 -211c0 -127 -85 -212 -214 -212c-128 0 -213 85 -213 212c0 126 85 211 213 211zM236 105c53 0 88 40 88 99c0 58 -35 98 -88 98c-51 0 -87 -40 -87 -98c0 -59 36 -99 87 -99z" />
    <glyph glyph-name="one.dnom" horiz-adv-x="327" 
d="M310 113v-113h-284v113h79v150l-72 -17l-25 107l179 52h46v-292h77z" />
    <glyph glyph-name="two.dnom" horiz-adv-x="364" 
d="M347 0h-325v87l161 127c18 15 24 30 24 45c0 28 -17 39 -50 39c-17 0 -52 -3 -121 -24l-23 109c62 22 118 31 166 31c116 0 161 -64 161 -131c0 -65 -31 -105 -89 -152l-27 -21h123v-110z" />
    <glyph glyph-name="three.dnom" horiz-adv-x="374" 
d="M352 339l-91 -96l4 -1c59 -14 96 -54 96 -108c0 -90 -57 -142 -175 -142c-62 0 -109 9 -176 34l34 99c47 -15 100 -27 140 -27c36 0 55 12 55 33c0 17 -12 27 -43 27h-98v51l83 85h-148v112h319v-67z" />
    <glyph glyph-name="four.dnom" horiz-adv-x="416" 
d="M360 174h51v-101h-51v-73h-118v73h-234v89l222 243h130v-231zM155 174h87v101z" />
    <glyph glyph-name="five.dnom" horiz-adv-x="381" 
d="M180 259l28 -1c106 -5 160 -46 160 -125c0 -80 -58 -141 -187 -141c-47 0 -94 4 -166 34l34 99c58 -21 99 -28 131 -28c44 0 62 14 62 33c0 25 -23 33 -57 35l-134 7l23 234h273v-112h-163z" />
    <glyph glyph-name="six.dnom" horiz-adv-x="389" 
d="M294 406l-68 -106c88 -10 147 -66 147 -149c0 -97 -73 -161 -178 -161c-106 0 -178 64 -178 161c0 28 12 61 28 87l106 168h143zM195 93c35 0 59 23 59 57s-24 56 -59 56c-36 0 -60 -22 -60 -56s24 -57 60 -57z" />
    <glyph glyph-name="seven.dnom" horiz-adv-x="355" 
d="M347 333l-144 -333h-142l126 288h-179v117h339v-72z" />
    <glyph glyph-name="eight.dnom" horiz-adv-x="379" 
d="M292 216c55 -20 79 -53 79 -102c0 -74 -69 -122 -182 -122c-114 0 -181 48 -181 122c0 49 24 82 78 102c-42 19 -58 45 -58 83c0 69 67 116 161 116c96 0 160 -47 160 -116c0 -38 -15 -64 -57 -83zM149 287c0 -22 16 -35 40 -35c25 0 40 13 40 35c0 21 -15 36 -40 36
c-24 0 -40 -15 -40 -36zM189 92c28 0 46 16 46 39c0 24 -18 40 -46 40c-27 0 -45 -16 -45 -40c0 -23 18 -39 45 -39z" />
    <glyph glyph-name="nine.dnom" horiz-adv-x="386" 
d="M371 254c0 -28 -11 -60 -28 -86l-4 -6l-102 -162h-144l69 106c-88 10 -147 66 -147 148c0 98 73 162 178 162c106 0 178 -64 178 -162zM133 256c0 -34 24 -56 60 -56s60 22 60 56c0 33 -24 57 -60 57s-60 -24 -60 -57z" />
    <glyph glyph-name="zero.numr" horiz-adv-x="473" 
d="M236 690c129 0 214 -85 214 -211c0 -127 -85 -212 -214 -212c-128 0 -213 85 -213 212c0 126 85 211 213 211zM236 380c53 0 88 40 88 99c0 58 -35 98 -88 98c-51 0 -87 -40 -87 -98c0 -59 36 -99 87 -99z" />
    <glyph glyph-name="one.numr" horiz-adv-x="327" 
d="M310 388v-113h-284v113h79v150l-72 -17l-25 107l179 52h46v-292h77z" />
    <glyph glyph-name="two.numr" horiz-adv-x="364" 
d="M347 276h-325v87l161 127c18 15 24 30 24 45c0 28 -17 39 -50 39c-17 0 -52 -3 -121 -24l-23 109c62 22 118 31 166 31c116 0 161 -64 161 -131c0 -65 -31 -105 -89 -152l-27 -21h123v-110z" />
    <glyph glyph-name="three.numr" horiz-adv-x="374" 
d="M352 614l-91 -96l4 -1c59 -14 96 -54 96 -108c0 -90 -57 -142 -175 -142c-62 0 -109 9 -176 34l34 99c47 -15 100 -27 140 -27c36 0 55 12 55 33c0 17 -12 27 -43 27h-98v51l83 85h-148v112h319v-67z" />
    <glyph glyph-name="four.numr" horiz-adv-x="416" 
d="M360 449h51v-101h-51v-73h-118v73h-234v89l222 243h130v-231zM155 449h87v101z" />
    <glyph glyph-name="five.numr" horiz-adv-x="381" 
d="M180 534l28 -1c106 -5 160 -46 160 -125c0 -80 -58 -141 -187 -141c-47 0 -94 4 -166 34l34 99c58 -21 99 -28 131 -28c44 0 62 14 62 33c0 25 -23 33 -57 35l-134 7l23 234h273v-112h-163z" />
    <glyph glyph-name="six.numr" horiz-adv-x="389" 
d="M294 681l-68 -106c88 -10 147 -66 147 -149c0 -97 -73 -161 -178 -161c-106 0 -178 64 -178 161c0 28 12 61 28 87l106 168h143zM195 368c35 0 59 23 59 57s-24 56 -59 56c-36 0 -60 -22 -60 -56s24 -57 60 -57z" />
    <glyph glyph-name="seven.numr" horiz-adv-x="355" 
d="M347 608l-144 -333h-142l126 288h-179v117h339v-72z" />
    <glyph glyph-name="eight.numr" horiz-adv-x="379" 
d="M292 490c55 -20 79 -53 79 -102c0 -74 -69 -122 -182 -122c-114 0 -181 48 -181 122c0 49 24 82 78 102c-42 19 -58 45 -58 83c0 69 67 116 161 116c96 0 160 -47 160 -116c0 -38 -15 -64 -57 -83zM149 561c0 -22 16 -35 40 -35c25 0 40 13 40 35c0 21 -15 36 -40 36
c-24 0 -40 -15 -40 -36zM189 366c28 0 46 16 46 39c0 24 -18 40 -46 40c-27 0 -45 -16 -45 -40c0 -23 18 -39 45 -39z" />
    <glyph glyph-name="nine.numr" horiz-adv-x="386" 
d="M371 526c0 -28 -11 -60 -28 -86l-4 -6l-102 -162h-144l69 106c-88 10 -147 66 -147 148c0 98 73 162 178 162c106 0 178 -64 178 -162zM133 528c0 -34 24 -56 60 -56s60 22 60 56c0 33 -24 57 -60 57s-60 -24 -60 -57z" />
    <glyph glyph-name="zerosuperior" unicode="&#x2070;" horiz-adv-x="473" 
d="M236 689c129 0 214 -85 214 -211c0 -127 -85 -212 -214 -212c-128 0 -213 85 -213 212c0 126 85 211 213 211zM236 379c53 0 88 40 88 99c0 58 -35 98 -88 98c-51 0 -87 -40 -87 -98c0 -59 36 -99 87 -99z" />
    <glyph glyph-name="onesuperior" unicode="&#xb9;" horiz-adv-x="327" 
d="M310 388v-113h-284v113h79v150l-72 -17l-25 107l179 52h46v-292h77z" />
    <glyph glyph-name="twosuperior" unicode="&#xb2;" horiz-adv-x="364" 
d="M347 274h-325v87l161 127c18 15 24 30 24 45c0 28 -17 39 -50 39c-17 0 -52 -3 -121 -24l-23 109c62 22 118 31 166 31c116 0 161 -64 161 -131c0 -65 -31 -105 -89 -152l-27 -21h123v-110z" />
    <glyph glyph-name="threesuperior" unicode="&#xb3;" horiz-adv-x="374" 
d="M352 614l-91 -96l4 -1c59 -14 96 -54 96 -108c0 -90 -57 -142 -175 -142c-62 0 -109 9 -176 34l34 99c47 -15 100 -27 140 -27c36 0 55 12 55 33c0 17 -12 27 -43 27h-98v51l83 85h-148v112h319v-67z" />
    <glyph glyph-name="foursuperior" unicode="&#x2074;" horiz-adv-x="416" 
d="M360 449h51v-101h-51v-73h-118v73h-234v89l222 243h130v-231zM155 449h87v101z" />
    <glyph glyph-name="fivesuperior" unicode="&#x2075;" horiz-adv-x="381" 
d="M180 534l28 -1c106 -5 160 -46 160 -125c0 -80 -58 -141 -187 -141c-47 0 -94 4 -166 34l34 99c58 -21 99 -28 131 -28c44 0 62 14 62 33c0 25 -23 33 -57 35l-134 7l23 234h273v-112h-163z" />
    <glyph glyph-name="sixsuperior" unicode="&#x2076;" horiz-adv-x="389" 
d="M294 681l-68 -106c88 -10 147 -66 147 -149c0 -97 -73 -161 -178 -161c-106 0 -178 64 -178 161c0 28 12 61 28 87l106 168h143zM195 368c35 0 59 23 59 57s-24 56 -59 56c-36 0 -60 -22 -60 -56s24 -57 60 -57z" />
    <glyph glyph-name="sevensuperior" unicode="&#x2077;" horiz-adv-x="355" 
d="M347 608l-144 -333h-142l126 288h-179v117h339v-72z" />
    <glyph glyph-name="eightsuperior" unicode="&#x2078;" horiz-adv-x="379" 
d="M292 490c55 -20 79 -53 79 -102c0 -74 -69 -122 -182 -122c-114 0 -181 48 -181 122c0 49 24 82 78 102c-42 19 -58 45 -58 83c0 69 67 116 161 116c96 0 160 -47 160 -116c0 -38 -15 -64 -57 -83zM149 561c0 -22 16 -35 40 -35c25 0 40 13 40 35c0 21 -15 36 -40 36
c-24 0 -40 -15 -40 -36zM189 366c28 0 46 16 46 39c0 24 -18 40 -46 40c-27 0 -45 -16 -45 -40c0 -23 18 -39 45 -39z" />
    <glyph glyph-name="ninesuperior" unicode="&#x2079;" horiz-adv-x="386" 
d="M371 528c0 -28 -11 -60 -28 -86l-4 -6l-102 -162h-144l69 106c-88 10 -147 66 -147 148c0 98 73 162 178 162c106 0 178 -64 178 -162zM133 530c0 -34 24 -56 60 -56s60 22 60 56c0 33 -24 57 -60 57s-60 -24 -60 -57z" />
    <glyph glyph-name="zeroinferior" unicode="&#x2080;" horiz-adv-x="473" 
d="M236 235c129 0 214 -85 214 -211c0 -127 -85 -212 -214 -212c-128 0 -213 85 -213 212c0 126 85 211 213 211zM236 -75c53 0 88 40 88 99c0 58 -35 98 -88 98c-51 0 -87 -40 -87 -98c0 -59 36 -99 87 -99z" />
    <glyph glyph-name="oneinferior" unicode="&#x2081;" horiz-adv-x="327" 
d="M310 -67v-113h-284v113h79v150l-72 -17l-25 107l179 52h46v-292h77z" />
    <glyph glyph-name="twoinferior" unicode="&#x2082;" horiz-adv-x="364" 
d="M347 -180h-325v87l161 127c18 15 24 30 24 45c0 28 -17 39 -50 39c-17 0 -52 -3 -121 -24l-23 109c62 22 118 31 166 31c116 0 161 -64 161 -131c0 -65 -31 -105 -89 -152l-27 -21h123v-110z" />
    <glyph glyph-name="threeinferior" unicode="&#x2083;" horiz-adv-x="374" 
d="M352 159l-91 -96l4 -1c59 -14 96 -54 96 -108c0 -90 -57 -142 -175 -142c-62 0 -109 9 -176 34l34 99c47 -15 100 -27 140 -27c36 0 55 12 55 33c0 17 -12 27 -43 27h-98v51l83 85h-148v112h319v-67z" />
    <glyph glyph-name="fourinferior" unicode="&#x2084;" horiz-adv-x="416" 
d="M360 -6h51v-101h-51v-73h-118v73h-234v89l222 243h130v-231zM155 -6h87v101z" />
    <glyph glyph-name="fiveinferior" unicode="&#x2085;" horiz-adv-x="381" 
d="M180 79l28 -1c106 -5 160 -46 160 -125c0 -80 -58 -141 -187 -141c-47 0 -94 4 -166 34l34 99c58 -21 99 -28 131 -28c44 0 62 14 62 33c0 25 -23 33 -57 35l-134 7l23 234h273v-112h-163z" />
    <glyph glyph-name="sixinferior" unicode="&#x2086;" horiz-adv-x="389" 
d="M294 226l-68 -106c88 -10 147 -66 147 -149c0 -97 -73 -161 -178 -161c-106 0 -178 64 -178 161c0 28 12 61 28 87l106 168h143zM195 -87c35 0 59 23 59 57s-24 56 -59 56c-36 0 -60 -22 -60 -56s24 -57 60 -57z" />
    <glyph glyph-name="seveninferior" unicode="&#x2087;" horiz-adv-x="355" 
d="M347 153l-144 -333h-142l126 288h-179v117h339v-72z" />
    <glyph glyph-name="eightinferior" unicode="&#x2088;" horiz-adv-x="379" 
d="M292 36c55 -20 79 -53 79 -102c0 -74 -69 -122 -182 -122c-114 0 -181 48 -181 122c0 49 24 82 78 102c-42 19 -58 45 -58 83c0 69 67 116 161 116c96 0 160 -47 160 -116c0 -38 -15 -64 -57 -83zM149 107c0 -22 16 -35 40 -35c25 0 40 13 40 35c0 21 -15 36 -40 36
c-24 0 -40 -15 -40 -36zM189 -88c28 0 46 16 46 39c0 24 -18 40 -46 40c-27 0 -45 -16 -45 -40c0 -23 18 -39 45 -39z" />
    <glyph glyph-name="nineinferior" unicode="&#x2089;" horiz-adv-x="386" 
d="M371 74c0 -28 -11 -60 -28 -86l-4 -6l-102 -162h-144l69 106c-88 10 -147 66 -147 148c0 98 73 162 178 162c106 0 178 -64 178 -162zM133 76c0 -34 24 -56 60 -56s60 22 60 56c0 33 -24 57 -60 57s-60 -24 -60 -57z" />
    <glyph glyph-name="braceleft" unicode="{" horiz-adv-x="388" 
d="M300 556v-162c0 -73 -35 -116 -106 -139c71 -23 106 -66 106 -139v-162c0 -41 17 -48 65 -48v-184c-176 0 -258 73 -258 215v192c0 41 -31 56 -79 56v140c48 0 79 15 79 56v192c0 142 82 215 258 215v-184c-48 0 -65 -7 -65 -48z" />
    <glyph glyph-name="braceright" unicode="}" horiz-adv-x="388" 
d="M88 394v162c0 41 -17 48 -65 48v184c176 0 258 -73 258 -215v-192c0 -41 31 -56 79 -56v-140c-48 0 -79 -15 -79 -56v-192c0 -142 -82 -215 -258 -215v184c48 0 65 7 65 48v162c0 73 35 116 106 139c-71 23 -106 66 -106 139z" />
    <glyph glyph-name="bracketleft" unicode="[" horiz-adv-x="405" 
d="M238 -83h144v-177h-338v1040h338v-177h-144v-686z" />
    <glyph glyph-name="bracketright" unicode="]" horiz-adv-x="405" 
d="M23 603v177h338v-1040h-338v177h144v686h-144z" />
    <glyph glyph-name="parenleft" unicode="(" horiz-adv-x="397" 
d="M214 796l156 -89c-80 -135 -138 -255 -138 -446c0 -192 58 -313 138 -454l-156 -89c-115 153 -183 330 -183 543c0 212 68 389 183 535z" />
    <glyph glyph-name="parenright" unicode=")" horiz-adv-x="389" 
d="M19 707l156 89c115 -146 183 -323 183 -535c0 -213 -68 -390 -183 -543l-156 89c80 141 138 262 138 454c0 191 -58 311 -138 446z" />
    <glyph glyph-name="braceleft.case" horiz-adv-x="395" 
d="M300 556v-79c0 -76 -35 -119 -106 -142c71 -23 106 -66 106 -142v-79c0 -41 17 -48 65 -48v-184c-176 0 -258 73 -258 215v112c0 41 -31 56 -79 56v140c48 0 79 15 79 56v112c0 142 82 215 258 215v-184c-48 0 -65 -7 -65 -48z" />
    <glyph glyph-name="braceright.case" horiz-adv-x="395" 
d="M95 477v79c0 41 -18 48 -65 48v184c175 0 258 -73 258 -215v-112c0 -41 31 -56 78 -56v-140c-47 0 -78 -15 -78 -56v-112c0 -142 -83 -215 -258 -215v184c47 0 65 7 65 48v79c0 76 35 119 106 142c-71 23 -106 66 -106 142z" />
    <glyph glyph-name="bracketleft.case" horiz-adv-x="405" 
d="M238 77h144v-177h-338v880h338v-177h-144v-526z" />
    <glyph glyph-name="bracketright.case" horiz-adv-x="405" 
d="M20 603v177h337v-880h-337v177h144v526h-144z" />
    <glyph glyph-name="parenleft.case" horiz-adv-x="386" 
d="M201 796l156 -89c-80 -135 -125 -219 -125 -370s45 -228 125 -369l-156 -89c-115 152 -170 286 -170 458c0 173 55 313 170 459z" />
    <glyph glyph-name="parenright.case" horiz-adv-x="376" 
d="M19 707l156 89c115 -146 170 -286 170 -459c0 -172 -55 -306 -170 -458l-156 89c80 141 125 218 125 369s-45 235 -125 370z" />
    <glyph glyph-name="emdash" unicode="&#x2014;" horiz-adv-x="1046" 
d="M973 169v178h-900v-178h900z" />
    <glyph glyph-name="endash" unicode="&#x2013;" horiz-adv-x="604" 
d="M550 169v178h-497v-178h497z" />
    <glyph glyph-name="hyphen" unicode="-" horiz-adv-x="530" 
d="M436 167v179h-343v-179h343z" />
    <glyph glyph-name="emdash.case" horiz-adv-x="1046" 
d="M973 249v178h-900v-178h900z" />
    <glyph glyph-name="endash.case" horiz-adv-x="604" 
d="M550 249v178h-497v-178h497z" />
    <glyph glyph-name="hyphen.case" horiz-adv-x="490" 
d="M415 247v179h-343v-179h343z" />
    <glyph glyph-name="guillemotleft" unicode="&#xab;" horiz-adv-x="665" 
d="M340 119l-113 -100l-200 230l200 231l113 -97l-106 -133zM616 119l-113 -100l-200 230l200 231l114 -97l-107 -133z" />
    <glyph glyph-name="guillemotright" unicode="&#xbb;" horiz-adv-x="665" 
d="M47 383l113 97l200 -231l-200 -230l-113 100l106 131zM323 383l114 97l200 -231l-200 -230l-113 100l106 131z" />
    <glyph glyph-name="guilsinglleft" unicode="&#x2039;" horiz-adv-x="388" 
d="M339 119l-112 -100l-200 230l200 231l113 -97l-106 -133z" />
    <glyph glyph-name="guilsinglright" unicode="&#x203a;" horiz-adv-x="388" 
d="M48 383l114 97l200 -231l-200 -230l-113 100l106 131z" />
    <glyph glyph-name="quotedblbase" unicode="&#x201e;" horiz-adv-x="586" 
d="M54 -133l64 137c-43 19 -64 54 -64 91c0 62 52 109 115 109s115 -47 115 -109c0 -44 -20 -78 -114 -228h-116zM302 -133l64 137c-43 19 -64 54 -64 91c0 62 52 109 115 109s115 -47 115 -109c0 -44 -20 -78 -114 -228h-116z" />
    <glyph glyph-name="quotedblleft" unicode="&#x201c;" horiz-adv-x="586" 
d="M283 762l-63 -137c43 -18 64 -54 64 -90c0 -63 -52 -110 -115 -110s-116 47 -116 110c0 44 20 78 115 227h115zM532 762l-64 -137c43 -18 64 -54 64 -90c0 -63 -52 -110 -115 -110s-115 47 -115 110c0 44 20 78 114 227h116z" />
    <glyph glyph-name="quotedblright" unicode="&#x201d;" horiz-adv-x="592" 
d="M169 775c63 0 115 -48 115 -110c0 -44 -20 -78 -114 -227h-116l63 136c-43 19 -63 54 -63 91c0 62 51 110 115 110zM424 775c63 0 115 -48 115 -110c0 -44 -20 -78 -114 -227h-116l63 136c-43 19 -63 54 -63 91c0 62 51 110 115 110z" />
    <glyph glyph-name="quoteleft" unicode="&#x2018;" horiz-adv-x="337" 
d="M283 763l-63 -136c43 -19 64 -54 64 -91c0 -62 -52 -110 -115 -110s-116 48 -116 110c0 44 20 78 115 227h115z" />
    <glyph glyph-name="quoteright" unicode="&#x2019;" horiz-adv-x="337" 
d="M54 437l63 137c-43 18 -63 54 -63 90c0 63 51 110 115 110c63 0 115 -47 115 -110c0 -44 -20 -78 -114 -227h-116z" />
    <glyph glyph-name="quotesinglbase" unicode="&#x201a;" horiz-adv-x="337" 
d="M54 -133l64 137c-43 19 -64 54 -64 91c0 62 52 109 115 109s115 -47 115 -109c0 -44 -20 -78 -114 -228h-116z" />
    <glyph glyph-name="guillemotleft.case" horiz-adv-x="665" 
d="M339 199l-112 -100l-200 230l200 231l113 -97l-106 -133zM616 199l-113 -100l-200 230l200 231l114 -97l-107 -133z" />
    <glyph glyph-name="guillemotright.case" horiz-adv-x="665" 
d="M47 463l113 97l200 -231l-200 -230l-113 100l106 131zM323 463l114 97l200 -231l-200 -230l-113 100l106 131z" />
    <glyph glyph-name="guilsinglleft.case" horiz-adv-x="388" 
d="M339 199l-112 -100l-200 230l200 231l113 -97l-106 -133z" />
    <glyph glyph-name="guilsinglright.case" horiz-adv-x="388" 
d="M48 463l114 97l200 -231l-200 -230l-113 100l106 131z" />
    <glyph glyph-name="asterisk" unicode="*" horiz-adv-x="409" 
d="M385 474l-47 -81l-86 51v-96h-95v96l-86 -51l-47 81l88 52l-88 52l47 82l86 -51v91h95v-91l86 51l47 -82l-88 -52z" />
    <glyph glyph-name="backslash" unicode="\" horiz-adv-x="535" 
d="M208 768l317 -1040h-188l-317 1040h188z" />
    <glyph glyph-name="bullet" unicode="&#x2022;" horiz-adv-x="403" 
d="M201 136c-95 0 -170 70 -170 164s75 164 170 164c94 0 171 -70 171 -164s-77 -164 -171 -164z" />
    <glyph glyph-name="colon" unicode=":" horiz-adv-x="337" 
d="M168 288c-63 0 -115 48 -115 111s52 110 115 110s116 -47 116 -110s-53 -111 -116 -111zM168 -16c-63 0 -115 47 -115 110s52 110 115 110s115 -47 115 -110s-52 -110 -115 -110z" />
    <glyph glyph-name="comma" unicode="," horiz-adv-x="337" 
d="M54 -133l63 137c-43 19 -63 54 -63 91c0 62 51 109 115 109c63 0 115 -47 115 -109c0 -44 -20 -78 -114 -228h-116z" />
    <glyph glyph-name="ellipsis" unicode="&#x2026;" horiz-adv-x="904" 
d="M168 -16c-63 0 -115 47 -115 110s52 110 115 110s115 -47 115 -110s-52 -110 -115 -110zM449 -16c-63 0 -115 47 -115 110s52 110 115 110s116 -47 116 -110s-53 -110 -116 -110zM735 -16c-63 0 -115 47 -115 110s52 110 115 110s116 -47 116 -110s-53 -110 -116 -110z
" />
    <glyph glyph-name="exclam" unicode="!" horiz-adv-x="301" 
d="M259 680l-16 -451h-186l-16 451h218zM152 -16c-58 0 -105 42 -105 100c0 57 47 100 105 100c57 0 105 -43 105 -100c0 -58 -48 -100 -105 -100z" />
    <glyph glyph-name="exclamdown" unicode="&#xa1;" horiz-adv-x="296" 
d="M154 509c58 0 105 -43 105 -101c0 -56 -47 -99 -105 -99c-57 0 -104 43 -104 99c0 58 47 101 104 101zM59 264h186l16 -451h-218z" />
    <glyph glyph-name="numbersign" unicode="#" horiz-adv-x="817" 
d="M631 282h107v-152h-155l-40 -130h-176l40 130h-132l-41 -130h-176l41 130h-76v152h124l32 104h-101v152h149l44 143h176l-44 -143h132l45 143h176l-45 -143h82v-152h-130zM355 386l-32 -104h132l32 104h-132z" />
    <glyph glyph-name="period" unicode="." horiz-adv-x="337" 
d="M168 -16c-63 0 -115 47 -115 110s52 110 115 110s116 -47 116 -110s-53 -110 -116 -110z" />
    <glyph glyph-name="periodcentered" unicode="&#xb7;" horiz-adv-x="337" 
d="M168 157c-63 0 -115 48 -115 111s52 110 115 110s116 -47 116 -110s-53 -111 -116 -111z" />
    <glyph glyph-name="question" unicode="?" horiz-adv-x="508" 
d="M224 695c157 0 261 -84 261 -212c0 -112 -76 -209 -199 -209h-4l1 -52h-171l-19 178h115c60 0 98 25 98 70c0 40 -32 66 -91 66c-43 0 -98 -7 -168 -18l-25 153c67 14 140 24 202 24zM203 184c57 0 105 -43 105 -100c0 -58 -48 -100 -105 -100c-58 0 -105 42 -105 100
c0 57 47 100 105 100z" />
    <glyph glyph-name="questiondown" unicode="&#xbf;" horiz-adv-x="505" 
d="M304 315c-57 0 -105 44 -105 100c0 58 48 101 105 101c58 0 105 -43 105 -101c0 -56 -47 -100 -105 -100zM283 -196c-157 0 -261 85 -261 212c0 112 76 210 199 210h4l-1 51h171l19 -178h-115c-60 0 -98 -24 -98 -70c0 -40 32 -66 91 -66c43 0 98 8 168 19l25 -153
c-67 -15 -140 -25 -202 -25z" />
    <glyph glyph-name="quotedbl" unicode="&#x22;" horiz-adv-x="464" 
d="M238 768l-39 -280h-142v280h181zM434 768l-39 -280h-142v280h181z" />
    <glyph glyph-name="quotesingle" unicode="'" horiz-adv-x="267" 
d="M237 768l-39 -280h-141v280h180z" />
    <glyph glyph-name="semicolon" unicode=";" horiz-adv-x="340" 
d="M172 288c-64 0 -115 48 -115 111s51 110 115 110c63 0 115 -47 115 -110s-52 -111 -115 -111zM54 -133l64 137c-43 19 -64 54 -64 91c0 62 52 109 115 109s115 -47 115 -109c0 -44 -20 -78 -114 -228h-116z" />
    <glyph glyph-name="slash" unicode="/" horiz-adv-x="535" 
d="M158 -272h-155l367 1040h155z" />
    <glyph glyph-name="underscore" unicode="_" horiz-adv-x="615" 
d="M23 -92h568v-158h-568v158z" />
    <glyph glyph-name="backslash.case" horiz-adv-x="496" 
d="M208 768l268 -878h-188l-268 878h188z" />
    <glyph glyph-name="bullet.case" horiz-adv-x="398" 
d="M201 163c-95 0 -170 70 -170 164s75 164 170 164c94 0 171 -70 171 -164s-77 -164 -171 -164z" />
    <glyph glyph-name="exclamdown.case" horiz-adv-x="296" 
d="M154 696c58 0 105 -42 105 -100c0 -57 -47 -100 -105 -100c-57 0 -104 43 -104 100c0 58 47 100 104 100zM59 451h186l16 -451h-218z" />
    <glyph glyph-name="periodcentered.case" horiz-adv-x="337" 
d="M168 231c-63 0 -115 47 -115 110s52 110 115 110s116 -47 116 -110s-53 -110 -116 -110z" />
    <glyph glyph-name="questiondown.case" horiz-adv-x="505" 
d="M304 496c-57 0 -105 43 -105 100c0 58 48 100 105 100c58 0 105 -42 105 -100c0 -57 -47 -100 -105 -100zM283 -15c-157 0 -261 84 -261 212c0 112 76 209 199 209h4l-1 52h171l19 -178h-115c-60 0 -98 -25 -98 -70c0 -40 32 -66 91 -66c43 0 98 7 168 18l25 -153
c-67 -14 -140 -24 -202 -24z" />
    <glyph glyph-name="slash.case" horiz-adv-x="491" 
d="M208 -94h-188l263 862h188z" />
    <glyph glyph-name="space" unicode=" " horiz-adv-x="223" 
 />
    <glyph glyph-name="uni2009" unicode="&#x2009;" horiz-adv-x="130" 
 />
    <glyph glyph-name="florin" unicode="&#x192;" horiz-adv-x="603" 
d="M416 695c63 0 100 -6 160 -19l-18 -148c-38 4 -64 7 -87 7c-50 0 -63 -25 -70 -76l-3 -22h148v-172h-170l-8 -58c-19 -146 -86 -222 -208 -222c-62 0 -100 6 -160 19l18 148c39 -4 64 -7 87 -7c50 0 63 25 70 76l6 44h-111v172h133l5 36c19 146 86 222 208 222z" />
    <glyph glyph-name="florin.tf" horiz-adv-x="660" 
d="M515 535c-50 0 -63 -25 -70 -76l-3 -22h148v-172h-170l-8 -58c-19 -146 -86 -222 -208 -222c-62 0 -100 6 -160 19l18 148c39 -4 64 -7 87 -7c50 0 63 25 70 76l6 44h-111v172h133l5 36c19 146 86 222 208 222c63 0 100 -6 160 -19l-18 -148c-38 4 -64 7 -87 7z" />
    <glyph glyph-name="cent" unicode="&#xa2;" horiz-adv-x="509" 
d="M470 167l17 -142c-34 -11 -73 -20 -109 -25v-104h-144v107c-126 27 -207 121 -207 252c0 133 81 228 207 255v109h144v-106c36 -5 75 -14 109 -25l-23 -142c-58 9 -115 15 -145 15c-64 0 -108 -43 -108 -106c0 -61 44 -102 109 -102c37 0 96 6 150 14z" />
    <glyph glyph-name="dollar" unicode="$" horiz-adv-x="680" 
d="M641 206c0 -121 -80 -197 -217 -216v-94h-144v93c-80 8 -166 29 -250 57l45 170c116 -40 202 -58 256 -60c64 -2 86 20 86 44c0 39 -60 46 -134 62c-156 35 -229 82 -229 205c0 126 84 204 226 221v112h144v-112c71 -7 147 -22 207 -41l-38 -172c-106 31 -185 47 -243 47
c-46 0 -74 -12 -74 -44c0 -37 45 -41 131 -60c130 -29 234 -74 234 -212z" />
    <glyph glyph-name="Euro" unicode="&#x20ac;" horiz-adv-x="734" 
d="M435 695c96 0 194 -17 271 -39l-32 -169c-96 16 -146 23 -204 23c-64 0 -111 -23 -137 -64h204l-22 -84h-210c-1 -8 -1 -16 -1 -24c0 -5 0 -14 1 -22h199l-21 -84h-150c26 -38 68 -60 125 -60c63 0 122 8 223 21l25 -169c-78 -21 -176 -39 -271 -39
c-182 0 -298 90 -334 247h-67v84h56c-1 8 -1 16 -1 22c0 8 0 16 1 24h-56v84h68c38 153 163 249 333 249z" />
    <glyph glyph-name="sterling" unicode="&#xa3;" horiz-adv-x="618" 
d="M583 0h-556v165h52v99h-52v138h52v76c0 127 104 212 261 212c61 0 135 -10 201 -25l-24 -153c-70 11 -113 19 -156 19c-59 0 -92 -26 -92 -81v-48h171v-138h-171v-99h314v-165z" />
    <glyph glyph-name="yen" unicode="&#xa5;" horiz-adv-x="752" 
d="M666 292v-99h-189v-41h189v-99h-189v-53h-201v53h-190v99h189v41h-189v99h141l-219 388h224l143 -260l145 260h224l-219 -388h141z" />
    <glyph glyph-name="cent.tf" horiz-adv-x="660" 
d="M540 167l17 -142c-34 -11 -73 -20 -110 -25v-104h-144v107c-126 27 -207 121 -207 252c0 133 81 228 207 255v109h144v-106c37 -5 76 -14 110 -25l-24 -142c-58 9 -114 15 -144 15c-64 0 -108 -43 -108 -106c0 -61 44 -102 108 -102c37 0 97 6 151 14z" />
    <glyph glyph-name="dollar.tf" horiz-adv-x="660" 
d="M633 206c0 -121 -80 -197 -217 -216v-94h-144v93c-80 8 -166 29 -250 57l45 170c116 -40 202 -58 256 -60c64 -2 86 20 86 44c0 39 -60 46 -134 62c-156 35 -229 82 -229 205c0 126 84 204 226 221v112h144v-112c71 -7 147 -22 207 -41l-38 -172c-106 31 -185 47 -243 47
c-46 0 -74 -12 -74 -44c0 -37 45 -41 131 -60c130 -29 234 -74 234 -212z" />
    <glyph glyph-name="Euro.tf" horiz-adv-x="660" 
d="M418 172c59 0 103 6 201 18l21 -171c-68 -19 -154 -34 -243 -34c-163 0 -278 91 -313 247h-63v84h52l-1 25v21h-51v84h64c38 152 159 249 311 249c88 0 176 -14 247 -34l-28 -170c-98 16 -136 21 -190 21c-51 0 -91 -24 -115 -66h183l-21 -84h-186l-1 -21
c0 -9 0 -17 1 -25h177l-21 -84h-130c24 -39 61 -60 106 -60z" />
    <glyph glyph-name="sterling.tf" horiz-adv-x="660" 
d="M613 0h-556v165h53v99h-53v138h53v76c0 127 104 212 261 212c61 0 135 -10 201 -25l-24 -153c-71 11 -113 19 -156 19c-59 0 -92 -26 -92 -81v-48h171v-138h-171v-99h313v-165z" />
    <glyph glyph-name="yen.tf" horiz-adv-x="660" 
d="M616 292v-99h-185v-41h185v-99h-184v-53h-202v53h-187v99h186v41h-186v99h146l-182 388h222l100 -226l101 226h222l-181 -388h145z" />
    <glyph glyph-name="asciitilde" unicode="~" horiz-adv-x="507" 
d="M334 429h160c0 -194 -156 -225 -245 -173l-33 19c-31 19 -43 2 -43 -28h-161c0 194 156 222 246 172l32 -19c32 -17 44 -1 44 29z" />
    <glyph glyph-name="divide" unicode="&#xf7;" horiz-adv-x="682" 
d="M341 442c-51 0 -92 38 -92 88s41 88 92 88s92 -38 92 -88s-41 -88 -92 -88zM93 392h496v-135h-496v135zM341 33c-51 0 -92 38 -92 88s41 88 92 88s92 -38 92 -88s-41 -88 -92 -88z" />
    <glyph glyph-name="equal" unicode="=" horiz-adv-x="669" 
d="M575 360h-482v135h482v-135zM575 147h-482v135h482v-135z" />
    <glyph glyph-name="greater" unicode="&#x3e;" horiz-adv-x="515" 
d="M479 225l-422 -190v165l239 108l-239 107v165l422 -190v-165z" />
    <glyph glyph-name="less" unicode="&#x3c;" horiz-adv-x="515" 
d="M459 580v-165l-240 -107l240 -108v-165l-422 190v165z" />
    <glyph glyph-name="minus" unicode="&#x2212;" horiz-adv-x="655" 
d="M93 392h469v-135h-469v135z" />
    <glyph glyph-name="multiply" unicode="&#xd7;" horiz-adv-x="627" 
d="M546 184l-96 -96l-136 137l-137 -137l-96 96l137 137l-137 136l96 96l137 -136l136 136l96 -96l-136 -136z" />
    <glyph glyph-name="percent" unicode="%" horiz-adv-x="1095" 
d="M263 695c120 0 210 -82 210 -204c0 -123 -90 -205 -210 -205s-210 82 -210 205c0 122 90 204 210 204zM358 0h-93l469 680h93zM264 403c46 0 86 35 86 88c0 51 -40 86 -86 86c-47 0 -87 -35 -87 -86c0 -53 40 -88 87 -88zM832 394c120 0 210 -82 210 -204
c0 -123 -90 -205 -210 -205s-210 82 -210 205c0 122 90 204 210 204zM832 103c47 0 87 35 87 87s-40 87 -87 87c-46 0 -86 -35 -86 -87s40 -87 86 -87z" />
    <glyph glyph-name="perthousand" unicode="&#x2030;" horiz-adv-x="1556" 
d="M263 695c120 0 210 -82 210 -204c0 -123 -90 -205 -210 -205s-210 82 -210 205c0 122 90 204 210 204zM357 0h-93l470 680h93zM263 577c-46 0 -86 -35 -86 -86c0 -53 40 -88 86 -88c47 0 87 35 87 88c0 51 -40 86 -87 86zM829 394c120 0 209 -82 209 -204
c0 -123 -89 -205 -209 -205s-210 82 -210 205c0 122 90 204 210 204zM1293 394c120 0 210 -82 210 -204c0 -123 -90 -205 -210 -205s-210 82 -210 205c0 122 90 204 210 204zM828 277c-46 0 -86 -35 -86 -87s40 -87 86 -87c47 0 87 35 87 87s-40 87 -87 87zM1294 277
c-47 0 -87 -35 -87 -87s40 -87 87 -87c46 0 86 35 86 87s-40 87 -86 87z" />
    <glyph glyph-name="plus" unicode="+" horiz-adv-x="655" 
d="M398 257v-167h-140v167h-165v135h165v167h140v-167h164v-135h-164z" />
    <glyph glyph-name="plusminus" unicode="&#xb1;" horiz-adv-x="655" 
d="M562 327h-164v-117h-140v117h-165v135h165v117h140v-117h164v-135zM562 172v-135h-469v135h469z" />
    <glyph glyph-name="arrowdown" unicode="&#x2193;" horiz-adv-x="763" 
d="M463 291l158 150l110 -119l-351 -336l-348 333l110 120l155 -148v389h166v-389z" />
    <glyph glyph-name="arrowdownleft" unicode="&#x2199;" horiz-adv-x="786" 
d="M344 163h236v-163h-510v496h163v-223l416 414l109 -109z" />
    <glyph glyph-name="arrowdownright" unicode="&#x2198;" horiz-adv-x="786" 
d="M137 687l416 -414v223h163v-496h-510v163h235l-414 415z" />
    <glyph glyph-name="arrowleft" unicode="&#x2190;" horiz-adv-x="752" 
d="M331 260l155 -167l-124 -115l-347 363l344 361l124 -115l-152 -164h401v-163h-401z" />
    <glyph glyph-name="arrowright" unicode="&#x2192;" horiz-adv-x="752" 
d="M21 423h400l-152 163l124 114l343 -359l-346 -362l-124 114l155 167h-400v163z" />
    <glyph glyph-name="arrowup" unicode="&#x2191;" horiz-adv-x="763" 
d="M297 0v389l-155 -148l-110 120l348 333l351 -335l-110 -120l-159 150v-389h-165z" />
    <glyph glyph-name="arrowupleft" unicode="&#x2196;" horiz-adv-x="786" 
d="M649 -7l-416 414v-223h-163v496h510v-163h-236l414 -415z" />
    <glyph glyph-name="arrowupright" unicode="&#x2197;" horiz-adv-x="792" 
d="M447 517h-235v163h510v-496h-163v223l-416 -414l-110 109z" />
    <glyph glyph-name="arrowdown.ss06" horiz-adv-x="699" 
d="M350 35c-167 0 -302 135 -302 302c0 166 135 301 302 301c166 0 301 -135 301 -301c0 -167 -135 -302 -301 -302zM350 118c119 0 218 99 218 219c0 119 -99 218 -218 218c-120 0 -219 -99 -219 -218c0 -120 99 -219 219 -219zM349 180l-137 137l52 50l49 -49v153h73v-153
l49 49l51 -50z" />
    <glyph glyph-name="arrowdownleft.ss06" horiz-adv-x="700" 
d="M137 123c-118 118 -118 309 0 427s308 118 427 0c117 -118 117 -309 0 -426c-119 -118 -309 -118 -427 -1zM196 182c84 -84 224 -84 309 1c84 84 84 224 0 308c-85 85 -225 85 -309 0c-85 -84 -85 -224 0 -309zM239 226v194l72 -1v-69l108 108l52 -52l-108 -108h69l1 -71
z" />
    <glyph glyph-name="arrowdownright.ss06" horiz-adv-x="699" 
d="M563 123c-118 -117 -308 -117 -427 1c-117 117 -117 308 0 426c119 118 309 118 427 0s118 -309 0 -427zM504 182c85 85 85 225 0 309c-84 85 -224 85 -309 0c-84 -84 -84 -224 0 -308c85 -85 225 -85 309 -1zM268 298h69l-108 108l52 52l108 -108v69l72 1v-194l-194 1z
" />
    <glyph glyph-name="arrowleft.ss06" horiz-adv-x="699" 
d="M48 336c0 167 135 302 302 302c166 0 301 -135 301 -302c0 -166 -135 -301 -301 -301c-167 0 -302 135 -302 301zM131 336c0 -119 99 -218 219 -218c119 0 218 99 218 218c0 120 -99 219 -218 219c-120 0 -219 -99 -219 -219zM193 337l137 137l50 -52l-49 -49h153v-73
h-153l49 -49l-50 -51z" />
    <glyph glyph-name="arrowright.ss06" horiz-adv-x="699" 
d="M651 336c0 -166 -135 -301 -302 -301c-166 0 -301 135 -301 301c0 167 135 302 301 302c167 0 302 -135 302 -302zM568 336c0 120 -99 219 -219 219c-119 0 -218 -99 -218 -219c0 -119 99 -218 218 -218c120 0 219 99 219 218zM319 251l49 49h-153v73h153l-49 49l50 52
l137 -137l-137 -137z" />
    <glyph glyph-name="arrowup.ss06" horiz-adv-x="699" 
d="M350 638c166 0 301 -135 301 -302c0 -166 -135 -301 -301 -301c-167 0 -302 135 -302 301c0 167 135 302 302 302zM350 555c-120 0 -219 -99 -219 -219c0 -119 99 -218 219 -218c119 0 218 99 218 218c0 120 -99 219 -218 219zM435 306l-49 49v-153h-73v153l-49 -49
l-52 50l137 137l137 -137z" />
    <glyph glyph-name="arrowupleft.ss06" horiz-adv-x="700" 
d="M137 551c118 117 308 117 427 -1c117 -117 117 -308 0 -426c-119 -118 -309 -118 -427 0s-118 309 0 427zM196 492c-85 -85 -85 -225 0 -309c84 -85 224 -85 309 0c84 84 84 224 0 308c-85 85 -225 85 -309 1zM432 376h-69l108 -108l-52 -52l-108 108v-69l-72 -1v194
l194 -1z" />
    <glyph glyph-name="arrowupright.ss06" horiz-adv-x="699" 
d="M563 551c118 -118 118 -309 0 -427s-308 -118 -427 0c-117 118 -117 309 0 426c119 118 309 118 427 1zM504 492c-84 84 -224 84 -309 -1c-84 -84 -84 -224 0 -308c85 -85 225 -85 309 0c85 84 85 224 0 309zM461 448v-194l-72 1v69l-108 -108l-52 52l108 108h-69l-1 71z
" />
    <glyph glyph-name="arrowdown.ss08" horiz-adv-x="699" 
d="M350 35c-167 0 -302 135 -302 302c0 166 135 301 302 301c166 0 301 -135 301 -301c0 -167 -135 -302 -301 -302zM435 367l-49 -49v153h-73v-153l-49 49l-52 -50l137 -137l137 137z" />
    <glyph glyph-name="arrowdownleft.ss08" horiz-adv-x="700" 
d="M137 123c-118 118 -118 309 0 427s308 118 427 0c117 -118 117 -309 0 -426c-119 -118 -309 -118 -427 -1zM432 298h-69l108 108l-52 52l-108 -108v69l-72 1v-194l194 1z" />
    <glyph glyph-name="arrowdownright.ss08" horiz-adv-x="699" 
d="M563 123c-118 -117 -308 -117 -427 1c-117 117 -117 308 0 426c119 118 309 118 427 0s118 -309 0 -427zM461 226v194l-72 -1v-69l-108 108l-52 -52l108 -108h-69l-1 -71z" />
    <glyph glyph-name="arrowleft.ss08" horiz-adv-x="699" 
d="M48 336c0 167 135 302 302 302c166 0 301 -135 301 -302c0 -166 -135 -301 -301 -301c-167 0 -302 135 -302 301zM380 251l-49 49h153v73h-153l49 49l-50 52l-137 -137l137 -137z" />
    <glyph glyph-name="arrowright.ss08" horiz-adv-x="699" 
d="M651 336c0 -166 -135 -301 -302 -301c-166 0 -301 135 -301 301c0 167 135 302 301 302c167 0 302 -135 302 -302zM506 337l-137 137l-50 -52l49 -49h-153v-73h153l-49 -49l50 -51z" />
    <glyph glyph-name="arrowup.ss08" horiz-adv-x="699" 
d="M350 638c166 0 301 -135 301 -302c0 -166 -135 -301 -301 -301c-167 0 -302 135 -302 301c0 167 135 302 302 302zM349 493l-137 -137l52 -50l49 49v-153h73v153l49 -49l51 50z" />
    <glyph glyph-name="arrowupleft.ss08" horiz-adv-x="700" 
d="M137 551c118 117 308 117 427 -1c117 -117 117 -308 0 -426c-119 -118 -309 -118 -427 0s-118 309 0 427zM239 448v-194l72 1v69l108 -108l52 52l-108 108h69l1 71z" />
    <glyph glyph-name="arrowupright.ss08" horiz-adv-x="699" 
d="M563 551c118 -118 118 -309 0 -427s-308 -118 -427 0c-117 118 -117 309 0 426c119 118 309 118 427 1zM268 376h69l-108 -108l52 -52l108 108v-69l72 -1v194l-194 -1z" />
    <glyph glyph-name="arrowdown.ss09" horiz-adv-x="700" 
d="M460 216l-110 -110l-110 110l-178 179l110 110l178 -179l178 179l110 -110z" />
    <glyph glyph-name="arrowup.ss09" horiz-adv-x="700" 
d="M528 130l-178 179l-178 -179l-110 110l178 179l110 110l110 -110l178 -179z" />
    <glyph glyph-name="arrowleft.ss09" horiz-adv-x="550" 
d="M288 337l178 -178l-110 -110l-288 288l110 110l179 178l110 -110z" />
    <glyph glyph-name="arrowright.ss09" horiz-adv-x="550" 
d="M482 337l-288 -288l-110 110l178 178l-179 178l110 110l179 -178z" />
    <glyph glyph-name="triagdn" unicode="&#x25bc;" horiz-adv-x="973" 
d="M903 680l-418 -691l-415 691h833z" />
    <glyph glyph-name="triagup" unicode="&#x25b2;" horiz-adv-x="973" 
d="M485 691l418 -691h-833z" />
    <glyph glyph-name="blackuppointingsmalltriangle" unicode="&#x25b4;" horiz-adv-x="540" 
d="M270 516l212 -351h-424z" />
    <glyph glyph-name="uni25B8" unicode="&#x25b8;" horiz-adv-x="484" 
d="M438 343l-351 -213v424z" />
    <glyph glyph-name="uni25C2" unicode="&#x25c2;" horiz-adv-x="484" 
d="M398 130l-351 213l351 211v-424z" />
    <glyph glyph-name="uni25BE" unicode="&#x25be;" horiz-adv-x="540" 
d="M482 496l-212 -351l-212 351h424z" />
    <glyph glyph-name="ampersand" unicode="&#x26;" horiz-adv-x="634" 
d="M571 278v-60c0 -140 -110 -233 -274 -233s-273 84 -273 209c0 82 38 132 107 159c-45 30 -68 76 -68 143c0 115 96 199 256 199c66 0 118 -7 178 -25l-36 -149c-54 10 -101 15 -140 15c-49 0 -80 -24 -80 -59c0 -44 17 -60 80 -60h299v-139h-49zM392 278h-71
c-73 0 -118 -18 -118 -64c0 -42 38 -70 94 -70c57 0 95 29 95 74v60z" />
    <glyph glyph-name="asciicircum" unicode="^" horiz-adv-x="437" 
d="M218 561l-60 -103h-150l142 223h137l141 -223h-150z" />
    <glyph glyph-name="at" unicode="@" horiz-adv-x="991" 
d="M506 690c276 0 460 -178 460 -447c0 -169 -102 -247 -240 -247c-77 0 -123 18 -147 60c-40 -39 -80 -61 -145 -61c-91 0 -218 84 -218 254c9 132 96 228 233 228c89 0 133 -6 286 -22v-291c0 -50 8 -71 41 -71c55 0 123 18 123 150c0 230 -158 383 -393 383
c-223 0 -393 -165 -393 -383s148 -382 370 -384c89 0 168 15 271 38l12 -60c-100 -25 -184 -42 -283 -42c-263 0 -437 192 -437 448s198 447 460 447zM484 338c-58 0 -93 -40 -93 -101c0 -58 39 -97 90 -97c25 0 50 10 77 33v22v139c-32 3 -52 4 -74 4z" />
    <glyph glyph-name="bar" unicode="|" horiz-adv-x="339" 
d="M252 765v-918h-165v918h165z" />
    <glyph glyph-name="brokenbar" unicode="&#xa6;" horiz-adv-x="339" 
d="M252 356h-165v408h165v-408zM252 -154h-165v408h165v-408z" />
    <glyph glyph-name="copyright" unicode="&#xa9;" horiz-adv-x="791" 
d="M395 695c208 0 365 -152 365 -355s-157 -355 -365 -355s-364 152 -364 355s156 355 364 355zM395 603c-152 0 -269 -114 -269 -263s117 -263 269 -263c153 0 270 114 270 263s-117 263 -270 263zM523 497l-15 -94c-38 6 -70 10 -97 10c-49 0 -75 -29 -75 -72
s26 -71 75 -71c31 0 59 4 101 10l11 -94c-43 -14 -81 -20 -117 -20c-123 0 -191 69 -191 175c0 105 68 177 191 177c36 0 74 -7 117 -21z" />
    <glyph glyph-name="uni2117" unicode="&#x2117;" horiz-adv-x="797" 
d="M399 695c208 0 364 -152 364 -355s-156 -355 -364 -355s-365 152 -365 355s157 355 365 355zM399 603c-153 0 -269 -114 -269 -263s116 -263 269 -263c152 0 269 114 269 263s-117 263 -269 263zM413 513c101 0 156 -43 156 -124c0 -91 -75 -122 -162 -122h-31v-88h-109
v331c43 2 105 3 146 3zM416 425c-12 0 -26 0 -40 -1v-71h42c24 0 41 17 41 38c0 20 -17 34 -43 34z" />
    <glyph glyph-name="dagger" unicode="&#x2020;" horiz-adv-x="397" 
d="M254 500v-208h-111v208h-108v112h108v108h111v-108h108v-112h-108z" />
    <glyph glyph-name="daggerdbl" unicode="&#x2021;" horiz-adv-x="397" 
d="M254 482h108v-112h-108v-78h-111v78h-108v112h108v48h-108v112h108v78h111v-78h108v-112h-108v-48z" />
    <glyph glyph-name="degree" unicode="&#xb0;" horiz-adv-x="458" 
d="M229 695c106 0 183 -76 183 -177c0 -102 -77 -178 -183 -178s-183 76 -183 178c0 101 77 177 183 177zM229 451c39 0 68 28 68 67c0 38 -29 66 -68 66s-68 -28 -68 -66c0 -39 29 -67 68 -67z" />
    <glyph glyph-name="uni2116" unicode="&#x2116;" horiz-adv-x="1399" 
d="M1066 695c164 0 281 -104 281 -261c0 -158 -117 -264 -281 -264s-281 106 -281 264c0 157 117 261 281 261zM711 680v-680h-179l-278 343v-343h-201v680h185l272 -344v344h201zM1066 329c58 0 103 42 103 105c0 61 -45 102 -103 102c-59 0 -104 -41 -104 -102
c0 -63 45 -105 104 -105zM824 124h483v-122h-483v122z" />
    <glyph glyph-name="paragraph" unicode="&#xb6;" horiz-adv-x="760" 
d="M286 689c90 0 380 -5 431 -9v-791h-157v655c-19 1 -39 1 -59 1v-656h-156v311h-59c-158 0 -266 100 -266 248s108 241 266 241zM345 549l-76 1c-60 0 -103 -38 -103 -103c0 -69 43 -110 103 -110h76v212z" />
    <glyph glyph-name="registered" unicode="&#xae;" horiz-adv-x="791" 
d="M395 695c208 0 365 -152 365 -355s-157 -355 -365 -355s-364 152 -364 355s156 355 364 355zM395 603c-152 0 -269 -114 -269 -263s117 -263 269 -263c153 0 270 114 270 263s-117 263 -270 263zM400 513c96 0 153 -43 153 -124c0 -41 -19 -75 -53 -96l77 -114h-127
l-54 88h-8h-28v-88h-110v331c46 2 100 3 150 3zM401 425c-14 0 -28 0 -41 -1v-71h43c22 0 39 17 39 37c0 22 -17 35 -41 35z" />
    <glyph glyph-name="registered.ss07" 
d="M300 695c146 0 256 -107 256 -250s-110 -249 -256 -249s-256 106 -256 249s110 250 256 250zM300 632c-107 0 -187 -81 -187 -187s80 -187 187 -187c109 0 189 81 189 187s-80 187 -189 187zM306 567c62 0 100 -32 100 -86c0 -29 -13 -51 -35 -66l49 -78h-85l-35 61h-21
v-61h-72v227c36 2 65 3 99 3zM279 505v-48h28c15 0 26 12 26 24c0 16 -11 25 -27 25z" />
    <glyph glyph-name="section" unicode="&#xa7;" horiz-adv-x="602" 
d="M319 695c82 0 161 -21 212 -51l-53 -139c-67 34 -121 49 -164 49s-60 -15 -60 -35c0 -35 50 -45 126 -69c101 -30 195 -69 195 -186c0 -70 -31 -114 -84 -148c22 -26 34 -57 34 -97c0 -115 -94 -185 -242 -185c-82 0 -161 21 -213 50l54 139c66 -33 121 -48 164 -48
s60 14 60 35c0 35 -50 45 -127 68c-101 31 -194 69 -194 187c0 69 31 114 83 148c-22 26 -33 57 -33 97c0 115 94 185 242 185zM238 335c-14 -15 -24 -32 -24 -53c0 -33 48 -56 105 -73c16 -5 31 -10 45 -15c13 15 24 32 24 53c0 33 -49 55 -106 73c-15 5 -30 9 -44 15z" />
    <glyph glyph-name="trademark" unicode="&#x2122;" horiz-adv-x="771" 
d="M306 586h-90v-226h-107v226h-91v94h288v-94zM621 474l-56 -114h-68l-57 114l-5 -114h-103l13 320h92l95 -172l92 172h92l15 -320h-104z" />
    <glyph glyph-name="at.case" horiz-adv-x="991" 
d="M506 780c276 0 460 -178 460 -447c0 -169 -102 -247 -240 -247c-77 0 -123 18 -147 60c-40 -39 -80 -61 -145 -61c-91 0 -218 84 -218 254c9 132 96 228 233 228c89 0 133 -6 286 -22v-291c0 -50 8 -71 41 -71c55 0 123 18 123 150c0 230 -158 383 -393 383
c-223 0 -393 -165 -393 -383s148 -382 370 -384c89 0 168 15 271 38l12 -60c-100 -25 -184 -42 -283 -42c-263 0 -437 192 -437 448s198 447 460 447zM484 428c-58 0 -93 -40 -93 -101c0 -58 39 -97 90 -97c25 0 50 10 77 33v22v139c-32 3 -52 4 -74 4z" />
    <glyph glyph-name="bar.case" horiz-adv-x="339" 
d="M252 795v-918h-165v918h165z" />
    <glyph glyph-name="brokenbar.case" horiz-adv-x="339" 
d="M252 386h-165v408h165v-408zM252 -124h-165v408h165v-408z" />
    <glyph glyph-name="acute" unicode="&#xb4;" 
d="M522 717l-140 -157h-181l93 157h228z" />
    <glyph glyph-name="breve" unicode="&#x2d8;" 
d="M350 731h140c0 -113 -78 -178 -190 -178s-190 65 -190 178h139c0 -31 21 -52 51 -52s50 21 50 52z" />
    <glyph glyph-name="caron" unicode="&#x2c7;" 
d="M383 560h-167l-128 157h168l44 -57l43 57h168z" />
    <glyph glyph-name="cedilla" unicode="&#xb8;" 
d="M329 -213h-135l43 167h165z" />
    <glyph glyph-name="circumflex" unicode="&#x2c6;" 
d="M300 615l-44 -53h-168l128 151h167l128 -151h-168z" />
    <glyph glyph-name="dieresis" unicode="&#xa8;" 
d="M178 746c56 0 102 -42 102 -98s-46 -97 -102 -97c-57 0 -102 41 -102 97s45 98 102 98zM422 746c56 0 102 -42 102 -98s-46 -97 -102 -97c-57 0 -102 41 -102 97s45 98 102 98z" />
    <glyph glyph-name="dotaccent" unicode="&#x2d9;" 
d="M300 551c-57 0 -102 41 -102 97s45 98 102 98c56 0 102 -42 102 -98s-46 -97 -102 -97z" />
    <glyph glyph-name="grave" unicode="`" 
d="M409 560h-181l-140 157h228z" />
    <glyph glyph-name="hungarumlaut" unicode="&#x2dd;" 
d="M349 732l-67 -170h-145l38 170h174zM543 732l-67 -170h-145l38 170h174z" />
    <glyph glyph-name="macron" unicode="&#xaf;" 
d="M447 702v-140h-294v140h294z" />
    <glyph glyph-name="ogonek" unicode="&#x2db;" 
d="M351 50l21 -30c-44 -15 -56 -28 -56 -46c0 -19 15 -30 43 -30c17 0 31 2 52 8l18 -144c-15 -8 -54 -17 -91 -17c-97 0 -167 53 -167 131c0 56 46 110 180 128z" />
    <glyph glyph-name="ring" unicode="&#x2da;" 
d="M299 817c82 0 141 -53 141 -131s-59 -131 -141 -131s-141 53 -141 131s59 131 141 131zM299 639c29 0 48 19 48 47s-19 47 -48 47s-48 -19 -48 -47s19 -47 48 -47z" />
    <glyph glyph-name="tilde" unicode="&#x2dc;" 
d="M374 718h132c0 -160 -130 -186 -204 -143l-27 17c-26 15 -37 1 -37 -24h-132c0 160 128 184 204 143l27 -17c27 -14 37 -1 37 24z" />
    <glyph glyph-name="caron.alt" 
d="M394 680l-39 -203h-130l5 203h164z" />
    <glyph glyph-name="acute.case" 
d="M542 890l-140 -153h-184l96 153h228z" />
    <glyph glyph-name="breve.case" 
d="M350 908h140c0 -112 -78 -178 -190 -178s-190 66 -190 178h139c0 -29 21 -51 51 -51s50 22 50 51z" />
    <glyph glyph-name="caron.case" 
d="M383 732h-167l-128 157h168l44 -57l43 57h168z" />
    <glyph glyph-name="circumflex.case" 
d="M300 793l-44 -56h-168l128 153h167l128 -153h-168z" />
    <glyph glyph-name="dieresis.case" 
d="M178 728c-57 0 -102 41 -102 97s45 98 102 98c56 0 102 -42 102 -98s-46 -97 -102 -97zM422 728c-57 0 -103 41 -103 97s46 98 103 98c55 0 101 -42 101 -98s-46 -97 -101 -97z" />
    <glyph glyph-name="dotaccent.case" 
d="M298 728c-54 0 -98 40 -98 94c0 53 44 93 98 93s98 -40 98 -93c0 -54 -44 -94 -98 -94z" />
    <glyph glyph-name="grave.case" 
d="M392 737h-182l-140 153h229z" />
    <glyph glyph-name="hungarumlaut.case" 
d="M329 897l-60 -154h-131l35 154h156zM515 897l-59 -154h-131l34 154h156z" />
    <glyph glyph-name="macron.case" 
d="M473 887v-140h-346v140h346z" />
    <glyph glyph-name="ring.case" 
d="M299 980c82 0 141 -52 141 -131c0 -78 -59 -131 -141 -131s-141 53 -141 131c0 79 59 131 141 131zM299 802c29 0 48 19 48 47s-19 47 -48 47s-48 -19 -48 -47s19 -47 48 -47z" />
    <glyph glyph-name="tilde.case" 
d="M381 903h139c0 -168 -136 -195 -213 -150l-28 17c-27 16 -38 1 -38 -24h-139c0 167 135 192 213 149l28 -17c28 -16 38 -1 38 25z" />
    <glyph glyph-name="commaaccentcomb" unicode="&#x326;" horiz-adv-x="0" 
d="M208 -289l43 85c-32 14 -49 41 -49 69c0 48 40 85 89 85s89 -37 89 -85c0 -34 -15 -59 -83 -154h-89z" />
    </font>
</defs>
</svg>
